<?xml version="1.0" encoding="utf-8" standalone="no"?>
<!DOCTYPE svg PUBLIC "-//W3C//DTD SVG 1.1//EN"
  "http://www.w3.org/Graphics/SVG/1.1/DTD/svg11.dtd">
<!-- Created with matplotlib (http://matplotlib.org/) -->
<svg height="411pt" version="1.1" viewBox="0 0 933 411" width="933pt" xmlns="http://www.w3.org/2000/svg" xmlns:xlink="http://www.w3.org/1999/xlink">
 <defs>
  <style type="text/css">
*{stroke-linecap:butt;stroke-linejoin:round;}
  </style>
 </defs>
 <g id="figure_1">
  <g id="patch_1">
   <path d="M 0 411.469375 
L 933.821875 411.469375 
L 933.821875 0 
L 0 0 
z
" style="fill:#ffffff;"/>
  </g>
  <g id="axes_1">
   <g id="patch_2">
    <path d="M 86.121875 354.556875 
L 923.121875 354.556875 
L 923.121875 28.396875 
L 86.121875 28.396875 
z
" style="fill:#ffffff;"/>
   </g>
   <g id="matplotlib.axis_1">
    <g id="xtick_1">
     <g id="line2d_1">
      <defs>
       <path d="M 0 0 
L 0 3.5 
" id="m60f403475d" style="stroke:#000000;stroke-width:0.8;"/>
      </defs>
      <g>
       <use style="stroke:#000000;stroke-width:0.8;" x="141.314546" xlink:href="#m60f403475d" y="354.556875"/>
      </g>
     </g>
     <g id="text_1">
      <!-- −6 -->
      <defs>
       <path d="M 10.59375 35.5 
L 73.1875 35.5 
L 73.1875 27.203125 
L 10.59375 27.203125 
z
" id="DejaVuSans-2212"/>
       <path d="M 33.015625 40.375 
Q 26.375 40.375 22.484375 35.828125 
Q 18.609375 31.296875 18.609375 23.390625 
Q 18.609375 15.53125 22.484375 10.953125 
Q 26.375 6.390625 33.015625 6.390625 
Q 39.65625 6.390625 43.53125 10.953125 
Q 47.40625 15.53125 47.40625 23.390625 
Q 47.40625 31.296875 43.53125 35.828125 
Q 39.65625 40.375 33.015625 40.375 
z
M 52.59375 71.296875 
L 52.59375 62.3125 
Q 48.875 64.0625 45.09375 64.984375 
Q 41.3125 65.921875 37.59375 65.921875 
Q 27.828125 65.921875 22.671875 59.328125 
Q 17.53125 52.734375 16.796875 39.40625 
Q 19.671875 43.65625 24.015625 45.921875 
Q 28.375 48.1875 33.59375 48.1875 
Q 44.578125 48.1875 50.953125 41.515625 
Q 57.328125 34.859375 57.328125 23.390625 
Q 57.328125 12.15625 50.6875 5.359375 
Q 44.046875 -1.421875 33.015625 -1.421875 
Q 20.359375 -1.421875 13.671875 8.265625 
Q 6.984375 17.96875 6.984375 36.375 
Q 6.984375 53.65625 15.1875 63.9375 
Q 23.390625 74.21875 37.203125 74.21875 
Q 40.921875 74.21875 44.703125 73.484375 
Q 48.484375 72.75 52.59375 71.296875 
z
" id="DejaVuSans-36"/>
      </defs>
      <g transform="translate(126.572358 376.75375)scale(0.2 -0.2)">
       <use xlink:href="#DejaVuSans-2212"/>
       <use x="83.789062" xlink:href="#DejaVuSans-36"/>
      </g>
     </g>
    </g>
    <g id="xtick_2">
     <g id="line2d_2">
      <g>
       <use style="stroke:#000000;stroke-width:0.8;" x="262.416989" xlink:href="#m60f403475d" y="354.556875"/>
      </g>
     </g>
     <g id="text_2">
      <!-- −4 -->
      <defs>
       <path d="M 37.796875 64.3125 
L 12.890625 25.390625 
L 37.796875 25.390625 
z
M 35.203125 72.90625 
L 47.609375 72.90625 
L 47.609375 25.390625 
L 58.015625 25.390625 
L 58.015625 17.1875 
L 47.609375 17.1875 
L 47.609375 0 
L 37.796875 0 
L 37.796875 17.1875 
L 4.890625 17.1875 
L 4.890625 26.703125 
z
" id="DejaVuSans-34"/>
      </defs>
      <g transform="translate(247.674801 376.75375)scale(0.2 -0.2)">
       <use xlink:href="#DejaVuSans-2212"/>
       <use x="83.789062" xlink:href="#DejaVuSans-34"/>
      </g>
     </g>
    </g>
    <g id="xtick_3">
     <g id="line2d_3">
      <g>
       <use style="stroke:#000000;stroke-width:0.8;" x="383.519432" xlink:href="#m60f403475d" y="354.556875"/>
      </g>
     </g>
     <g id="text_3">
      <!-- −2 -->
      <defs>
       <path d="M 19.1875 8.296875 
L 53.609375 8.296875 
L 53.609375 0 
L 7.328125 0 
L 7.328125 8.296875 
Q 12.9375 14.109375 22.625 23.890625 
Q 32.328125 33.6875 34.8125 36.53125 
Q 39.546875 41.84375 41.421875 45.53125 
Q 43.3125 49.21875 43.3125 52.78125 
Q 43.3125 58.59375 39.234375 62.25 
Q 35.15625 65.921875 28.609375 65.921875 
Q 23.96875 65.921875 18.8125 64.3125 
Q 13.671875 62.703125 7.8125 59.421875 
L 7.8125 69.390625 
Q 13.765625 71.78125 18.9375 73 
Q 24.125 74.21875 28.421875 74.21875 
Q 39.75 74.21875 46.484375 68.546875 
Q 53.21875 62.890625 53.21875 53.421875 
Q 53.21875 48.921875 51.53125 44.890625 
Q 49.859375 40.875 45.40625 35.40625 
Q 44.1875 33.984375 37.640625 27.21875 
Q 31.109375 20.453125 19.1875 8.296875 
z
" id="DejaVuSans-32"/>
      </defs>
      <g transform="translate(368.777244 376.75375)scale(0.2 -0.2)">
       <use xlink:href="#DejaVuSans-2212"/>
       <use x="83.789062" xlink:href="#DejaVuSans-32"/>
      </g>
     </g>
    </g>
    <g id="xtick_4">
     <g id="line2d_4">
      <g>
       <use style="stroke:#000000;stroke-width:0.8;" x="504.621875" xlink:href="#m60f403475d" y="354.556875"/>
      </g>
     </g>
     <g id="text_4">
      <!-- 0 -->
      <defs>
       <path d="M 31.78125 66.40625 
Q 24.171875 66.40625 20.328125 58.90625 
Q 16.5 51.421875 16.5 36.375 
Q 16.5 21.390625 20.328125 13.890625 
Q 24.171875 6.390625 31.78125 6.390625 
Q 39.453125 6.390625 43.28125 13.890625 
Q 47.125 21.390625 47.125 36.375 
Q 47.125 51.421875 43.28125 58.90625 
Q 39.453125 66.40625 31.78125 66.40625 
z
M 31.78125 74.21875 
Q 44.046875 74.21875 50.515625 64.515625 
Q 56.984375 54.828125 56.984375 36.375 
Q 56.984375 17.96875 50.515625 8.265625 
Q 44.046875 -1.421875 31.78125 -1.421875 
Q 19.53125 -1.421875 13.0625 8.265625 
Q 6.59375 17.96875 6.59375 36.375 
Q 6.59375 54.828125 13.0625 64.515625 
Q 19.53125 74.21875 31.78125 74.21875 
z
" id="DejaVuSans-30"/>
      </defs>
      <g transform="translate(498.259375 376.75375)scale(0.2 -0.2)">
       <use xlink:href="#DejaVuSans-30"/>
      </g>
     </g>
    </g>
    <g id="xtick_5">
     <g id="line2d_5">
      <g>
       <use style="stroke:#000000;stroke-width:0.8;" x="625.724318" xlink:href="#m60f403475d" y="354.556875"/>
      </g>
     </g>
     <g id="text_5">
      <!-- 2 -->
      <g transform="translate(619.361818 376.75375)scale(0.2 -0.2)">
       <use xlink:href="#DejaVuSans-32"/>
      </g>
     </g>
    </g>
    <g id="xtick_6">
     <g id="line2d_6">
      <g>
       <use style="stroke:#000000;stroke-width:0.8;" x="746.826761" xlink:href="#m60f403475d" y="354.556875"/>
      </g>
     </g>
     <g id="text_6">
      <!-- 4 -->
      <g transform="translate(740.464261 376.75375)scale(0.2 -0.2)">
       <use xlink:href="#DejaVuSans-34"/>
      </g>
     </g>
    </g>
    <g id="xtick_7">
     <g id="line2d_7">
      <g>
       <use style="stroke:#000000;stroke-width:0.8;" x="867.929204" xlink:href="#m60f403475d" y="354.556875"/>
      </g>
     </g>
     <g id="text_7">
      <!-- 6 -->
      <g transform="translate(861.566704 376.75375)scale(0.2 -0.2)">
       <use xlink:href="#DejaVuSans-36"/>
      </g>
     </g>
    </g>
    <g id="text_8">
     <!-- $x$ -->
     <defs>
      <path d="M 60.015625 54.6875 
L 34.90625 27.875 
L 50.296875 0 
L 39.984375 0 
L 28.421875 21.6875 
L 8.296875 0 
L -2.59375 0 
L 24.3125 28.8125 
L 10.015625 54.6875 
L 20.3125 54.6875 
L 30.8125 34.90625 
L 49.125 54.6875 
z
" id="DejaVuSans-Oblique-78"/>
     </defs>
     <g transform="translate(498.621875 400.11)scale(0.2 -0.2)">
      <use transform="translate(0 0.3125)" xlink:href="#DejaVuSans-Oblique-78"/>
     </g>
    </g>
   </g>
   <g id="matplotlib.axis_2">
    <g id="ytick_1">
     <g id="line2d_8">
      <defs>
       <path d="M 0 0 
L -3.5 0 
" id="mc56ca3c93c" style="stroke:#000000;stroke-width:0.8;"/>
      </defs>
      <g>
       <use style="stroke:#000000;stroke-width:0.8;" x="86.121875" xlink:href="#mc56ca3c93c" y="339.736039"/>
      </g>
     </g>
     <g id="text_9">
      <!-- −1.0 -->
      <defs>
       <path d="M 12.40625 8.296875 
L 28.515625 8.296875 
L 28.515625 63.921875 
L 10.984375 60.40625 
L 10.984375 69.390625 
L 28.421875 72.90625 
L 38.28125 72.90625 
L 38.28125 8.296875 
L 54.390625 8.296875 
L 54.390625 0 
L 12.40625 0 
z
" id="DejaVuSans-31"/>
       <path d="M 10.6875 12.40625 
L 21 12.40625 
L 21 0 
L 10.6875 0 
z
" id="DejaVuSans-2e"/>
      </defs>
      <g transform="translate(30.55625 347.334477)scale(0.2 -0.2)">
       <use xlink:href="#DejaVuSans-2212"/>
       <use x="83.789062" xlink:href="#DejaVuSans-31"/>
       <use x="147.412109" xlink:href="#DejaVuSans-2e"/>
       <use x="179.199219" xlink:href="#DejaVuSans-30"/>
      </g>
     </g>
    </g>
    <g id="ytick_2">
     <g id="line2d_9">
      <g>
       <use style="stroke:#000000;stroke-width:0.8;" x="86.121875" xlink:href="#mc56ca3c93c" y="265.607612"/>
      </g>
     </g>
     <g id="text_10">
      <!-- −0.5 -->
      <defs>
       <path d="M 10.796875 72.90625 
L 49.515625 72.90625 
L 49.515625 64.59375 
L 19.828125 64.59375 
L 19.828125 46.734375 
Q 21.96875 47.46875 24.109375 47.828125 
Q 26.265625 48.1875 28.421875 48.1875 
Q 40.625 48.1875 47.75 41.5 
Q 54.890625 34.8125 54.890625 23.390625 
Q 54.890625 11.625 47.5625 5.09375 
Q 40.234375 -1.421875 26.90625 -1.421875 
Q 22.3125 -1.421875 17.546875 -0.640625 
Q 12.796875 0.140625 7.71875 1.703125 
L 7.71875 11.625 
Q 12.109375 9.234375 16.796875 8.0625 
Q 21.484375 6.890625 26.703125 6.890625 
Q 35.15625 6.890625 40.078125 11.328125 
Q 45.015625 15.765625 45.015625 23.390625 
Q 45.015625 31 40.078125 35.4375 
Q 35.15625 39.890625 26.703125 39.890625 
Q 22.75 39.890625 18.8125 39.015625 
Q 14.890625 38.140625 10.796875 36.28125 
z
" id="DejaVuSans-35"/>
      </defs>
      <g transform="translate(30.55625 273.206049)scale(0.2 -0.2)">
       <use xlink:href="#DejaVuSans-2212"/>
       <use x="83.789062" xlink:href="#DejaVuSans-30"/>
       <use x="147.412109" xlink:href="#DejaVuSans-2e"/>
       <use x="179.199219" xlink:href="#DejaVuSans-35"/>
      </g>
     </g>
    </g>
    <g id="ytick_3">
     <g id="line2d_10">
      <g>
       <use style="stroke:#000000;stroke-width:0.8;" x="86.121875" xlink:href="#mc56ca3c93c" y="191.479184"/>
      </g>
     </g>
     <g id="text_11">
      <!-- 0.0 -->
      <g transform="translate(47.315625 199.077622)scale(0.2 -0.2)">
       <use xlink:href="#DejaVuSans-30"/>
       <use x="63.623047" xlink:href="#DejaVuSans-2e"/>
       <use x="95.410156" xlink:href="#DejaVuSans-30"/>
      </g>
     </g>
    </g>
    <g id="ytick_4">
     <g id="line2d_11">
      <g>
       <use style="stroke:#000000;stroke-width:0.8;" x="86.121875" xlink:href="#mc56ca3c93c" y="117.350757"/>
      </g>
     </g>
     <g id="text_12">
      <!-- 0.5 -->
      <g transform="translate(47.315625 124.949194)scale(0.2 -0.2)">
       <use xlink:href="#DejaVuSans-30"/>
       <use x="63.623047" xlink:href="#DejaVuSans-2e"/>
       <use x="95.410156" xlink:href="#DejaVuSans-35"/>
      </g>
     </g>
    </g>
    <g id="ytick_5">
     <g id="line2d_12">
      <g>
       <use style="stroke:#000000;stroke-width:0.8;" x="86.121875" xlink:href="#mc56ca3c93c" y="43.22233"/>
      </g>
     </g>
     <g id="text_13">
      <!-- 1.0 -->
      <g transform="translate(47.315625 50.820767)scale(0.2 -0.2)">
       <use xlink:href="#DejaVuSans-31"/>
       <use x="63.623047" xlink:href="#DejaVuSans-2e"/>
       <use x="95.410156" xlink:href="#DejaVuSans-30"/>
      </g>
     </g>
    </g>
    <g id="text_14">
     <!-- $f(x)$ -->
     <defs>
      <path d="M 47.796875 75.984375 
L 46.390625 68.5 
L 37.796875 68.5 
Q 32.90625 68.5 30.6875 66.578125 
Q 28.46875 64.65625 27.390625 59.515625 
L 26.421875 54.6875 
L 41.21875 54.6875 
L 39.890625 47.703125 
L 25.09375 47.703125 
L 15.828125 0 
L 6.78125 0 
L 16.109375 47.703125 
L 7.515625 47.703125 
L 8.796875 54.6875 
L 17.390625 54.6875 
L 18.109375 58.5 
Q 19.96875 68.171875 24.625 72.078125 
Q 29.296875 75.984375 39.3125 75.984375 
z
" id="DejaVuSans-Oblique-66"/>
      <path d="M 31 75.875 
Q 24.46875 64.65625 21.28125 53.65625 
Q 18.109375 42.671875 18.109375 31.390625 
Q 18.109375 20.125 21.3125 9.0625 
Q 24.515625 -2 31 -13.1875 
L 23.1875 -13.1875 
Q 15.875 -1.703125 12.234375 9.375 
Q 8.59375 20.453125 8.59375 31.390625 
Q 8.59375 42.28125 12.203125 53.3125 
Q 15.828125 64.359375 23.1875 75.875 
z
" id="DejaVuSans-28"/>
      <path d="M 8.015625 75.875 
L 15.828125 75.875 
Q 23.140625 64.359375 26.78125 53.3125 
Q 30.421875 42.28125 30.421875 31.390625 
Q 30.421875 20.453125 26.78125 9.375 
Q 23.140625 -1.703125 15.828125 -13.1875 
L 8.015625 -13.1875 
Q 14.5 -2 17.703125 9.0625 
Q 20.90625 20.125 20.90625 31.390625 
Q 20.90625 42.671875 17.703125 53.65625 
Q 14.5 64.65625 8.015625 75.875 
z
" id="DejaVuSans-29"/>
     </defs>
     <g transform="translate(22.396875 208.776875)rotate(-90)scale(0.2 -0.2)">
      <use transform="translate(0 0.015625)" xlink:href="#DejaVuSans-Oblique-66"/>
      <use transform="translate(35.205078 0.015625)" xlink:href="#DejaVuSans-28"/>
      <use transform="translate(74.21875 0.015625)" xlink:href="#DejaVuSans-Oblique-78"/>
      <use transform="translate(133.398438 0.015625)" xlink:href="#DejaVuSans-29"/>
     </g>
    </g>
   </g>
   <g id="line2d_13">
    <path clip-path="url(#pb7452df29a)" d="M 124.16733 191.479184 
L 135.638321 163.560689 
L 143.285648 145.442758 
L 150.932976 128.058153 
L 154.75664 119.727966 
L 158.580304 111.683801 
L 162.403967 103.957723 
L 166.227631 96.580532 
L 170.051295 89.581634 
L 173.874959 82.98893 
L 177.698622 76.8287 
L 181.522286 71.1255 
L 185.34595 65.902065 
L 189.169614 61.179218 
L 192.993277 56.975784 
L 196.816941 53.308521 
L 200.640605 50.192046 
L 204.464269 47.638783 
L 208.287933 45.658911 
L 212.111596 44.26032 
L 215.93526 43.448588 
L 219.758924 43.226948 
L 223.582588 43.596286 
L 227.406251 44.555128 
L 231.229915 46.099652 
L 235.053579 48.223702 
L 238.877243 50.918811 
L 242.700907 54.174234 
L 246.52457 57.976995 
L 250.348234 62.311935 
L 254.171898 67.161774 
L 257.995562 72.507178 
L 261.819225 78.326839 
L 265.642889 84.597559 
L 269.466553 91.294341 
L 273.290217 98.390488 
L 277.11388 105.857715 
L 280.937544 113.666253 
L 284.761208 121.784977 
L 292.408536 138.822419 
L 300.055863 156.698645 
L 311.526854 184.460262 
L 326.82151 221.692748 
L 334.468837 239.7346 
L 342.116165 257.007779 
L 345.939828 265.269531 
L 349.763492 273.237134 
L 353.587156 280.878825 
L 357.41082 288.164143 
L 361.234483 295.064047 
L 365.058147 301.55103 
L 368.881811 307.599236 
L 372.705475 313.184552 
L 376.529139 318.284716 
L 380.352802 322.879395 
L 384.176466 326.950274 
L 388.00013 330.481126 
L 391.823794 333.457876 
L 395.647457 335.868656 
L 399.471121 337.703858 
L 403.294785 338.956166 
L 407.118449 339.620587 
L 410.942113 339.694473 
L 414.765776 339.177529 
L 418.58944 338.071817 
L 422.413104 336.381743 
L 426.236768 334.114045 
L 430.060431 331.277762 
L 433.884095 327.884202 
L 437.707759 323.946891 
L 441.531423 319.481525 
L 445.355087 314.505904 
L 449.17875 309.039863 
L 453.002414 303.10519 
L 456.826078 296.725543 
L 460.649742 289.926353 
L 464.473405 282.734724 
L 468.297069 275.179324 
L 472.120733 267.29027 
L 475.944397 259.099011 
L 483.591724 241.941563 
L 491.239052 223.980286 
L 502.710043 196.159438 
L 518.004698 158.978083 
L 525.652026 141.016805 
L 533.299353 123.859358 
L 537.123017 115.668099 
L 540.946681 107.779045 
L 544.770345 100.223645 
L 548.594008 93.032016 
L 552.417672 86.232826 
L 556.241336 79.853179 
L 560.065 73.918506 
L 563.888663 68.452465 
L 567.712327 63.476844 
L 571.535991 59.011478 
L 575.359655 55.074167 
L 579.183319 51.680606 
L 583.006982 48.844324 
L 586.830646 46.576626 
L 590.65431 44.886552 
L 594.477974 43.780839 
L 598.301637 43.263896 
L 602.125301 43.337782 
L 605.948965 44.002203 
L 609.772629 45.25451 
L 613.596293 47.089712 
L 617.419956 49.500493 
L 621.24362 52.477242 
L 625.067284 56.008094 
L 628.890948 60.078974 
L 632.714611 64.673653 
L 636.538275 69.773816 
L 640.361939 75.359133 
L 644.185603 81.407338 
L 648.009267 87.894322 
L 651.83293 94.794226 
L 655.656594 102.079544 
L 659.480258 109.721235 
L 663.303922 117.688837 
L 670.951249 134.473559 
L 678.598577 152.166338 
L 686.245904 170.485344 
L 709.187887 226.259724 
L 716.835214 244.13595 
L 724.482542 261.173391 
L 728.306206 269.292115 
L 732.12987 277.100654 
L 735.953533 284.56788 
L 739.777197 291.664028 
L 743.600861 298.360809 
L 747.424525 304.631529 
L 751.248188 310.451191 
L 755.071852 315.796595 
L 758.895516 320.646434 
L 762.71918 324.981373 
L 766.542843 328.784135 
L 770.366507 332.039558 
L 774.190171 334.734666 
L 778.013835 336.858716 
L 781.837499 338.403241 
L 785.661162 339.362083 
L 789.484826 339.73142 
L 793.30849 339.509781 
L 797.132154 338.698048 
L 800.955817 337.299458 
L 804.779481 335.319585 
L 808.603145 332.766323 
L 812.426809 329.649848 
L 816.250473 325.982584 
L 820.074136 321.779151 
L 823.8978 317.056304 
L 827.721464 311.832869 
L 831.545128 306.129669 
L 835.368791 299.969439 
L 839.192455 293.376735 
L 843.016119 286.377837 
L 846.839783 279.000646 
L 850.663446 271.274568 
L 854.48711 263.230402 
L 862.134438 246.317213 
L 869.781765 228.530494 
L 877.429093 210.153574 
L 885.07642 191.479184 
L 885.07642 191.479184 
" style="fill:none;stroke:#1f77b4;stroke-linecap:square;stroke-width:1.5;"/>
   </g>
   <g id="line2d_14">
    <path clip-path="url(#pb7452df29a)" d="M 124.16733 43.22233 
L 127.990993 43.517827 
L 131.814657 44.403142 
L 135.638321 45.874746 
L 139.461985 47.926771 
L 143.285648 50.551038 
L 147.109312 53.737086 
L 150.932976 57.472215 
L 154.75664 61.741535 
L 158.580304 66.528027 
L 162.403967 71.812611 
L 166.227631 77.574221 
L 170.051295 83.78989 
L 173.874959 90.434839 
L 177.698622 97.482582 
L 181.522286 104.905022 
L 185.34595 112.672572 
L 189.169614 120.754269 
L 196.816941 137.730113 
L 204.464269 155.562141 
L 215.93526 183.291547 
L 231.229915 220.546119 
L 238.877243 238.626574 
L 246.52457 255.956006 
L 250.348234 264.252234 
L 254.171898 272.258367 
L 257.995562 279.942491 
L 261.819225 287.273974 
L 265.642889 294.223591 
L 269.466553 300.763639 
L 273.290217 306.868047 
L 277.11388 312.512481 
L 280.937544 317.674441 
L 284.761208 322.333349 
L 288.584872 326.470635 
L 292.408536 330.069805 
L 296.232199 333.116512 
L 300.055863 335.598611 
L 303.879527 337.506207 
L 307.703191 338.831698 
L 311.526854 339.569798 
L 315.350518 339.717565 
L 319.174182 339.27441 
L 322.997846 338.242101 
L 326.82151 336.624751 
L 330.645173 334.428809 
L 334.468837 331.663027 
L 338.292501 328.338432 
L 342.116165 324.468275 
L 345.939828 320.067985 
L 349.763492 315.155102 
L 353.587156 309.749211 
L 357.41082 303.871861 
L 361.234483 297.54648 
L 365.058147 290.798285 
L 368.881811 283.654174 
L 372.705475 276.142626 
L 376.529139 268.293586 
L 380.352802 260.13834 
L 388.00013 243.040363 
L 395.647457 225.121053 
L 407.118449 197.328955 
L 422.413104 160.120875 
L 430.060431 142.118749 
L 437.707759 124.9029 
L 441.531423 116.676138 
L 445.355087 108.747563 
L 449.17875 101.14878 
L 453.002414 93.910081 
L 456.826078 87.060321 
L 460.649742 80.626805 
L 464.473405 74.63518 
L 468.297069 69.109328 
L 472.120733 64.071279 
L 475.944397 59.541115 
L 479.76806 55.536896 
L 483.591724 52.074581 
L 487.415388 49.167975 
L 491.239052 46.828663 
L 495.062716 45.06597 
L 498.886379 43.886923 
L 502.710043 43.296222 
L 506.533707 43.296222 
L 510.357371 43.886923 
L 514.181034 45.06597 
L 518.004698 46.828663 
L 521.828362 49.167975 
L 525.652026 52.074581 
L 529.47569 55.536896 
L 533.299353 59.541115 
L 537.123017 64.071279 
L 540.946681 69.109328 
L 544.770345 74.63518 
L 548.594008 80.626805 
L 552.417672 87.060321 
L 556.241336 93.910081 
L 560.065 101.14878 
L 563.888663 108.747563 
L 567.712327 116.676138 
L 571.535991 124.9029 
L 579.183319 142.118749 
L 586.830646 160.120875 
L 598.301637 187.968739 
L 613.596293 225.121053 
L 621.24362 243.040363 
L 628.890948 260.13834 
L 632.714611 268.293586 
L 636.538275 276.142626 
L 640.361939 283.654174 
L 644.185603 290.798285 
L 648.009267 297.54648 
L 651.83293 303.871861 
L 655.656594 309.749211 
L 659.480258 315.155102 
L 663.303922 320.067985 
L 667.127585 324.468275 
L 670.951249 328.338432 
L 674.774913 331.663027 
L 678.598577 334.428809 
L 682.42224 336.624751 
L 686.245904 338.242101 
L 690.069568 339.27441 
L 693.893232 339.717565 
L 697.716896 339.569798 
L 701.540559 338.831698 
L 705.364223 337.506207 
L 709.187887 335.598611 
L 713.011551 333.116512 
L 716.835214 330.069805 
L 720.658878 326.470635 
L 724.482542 322.333349 
L 728.306206 317.674441 
L 732.12987 312.512481 
L 735.953533 306.868047 
L 739.777197 300.763639 
L 743.600861 294.223591 
L 747.424525 287.273974 
L 751.248188 279.942491 
L 755.071852 272.258367 
L 758.895516 264.252234 
L 766.542843 247.402754 
L 774.190171 229.662452 
L 781.837499 211.313917 
L 804.779481 155.562141 
L 812.426809 137.730113 
L 820.074136 120.754269 
L 823.8978 112.672572 
L 827.721464 104.905022 
L 831.545128 97.482582 
L 835.368791 90.434839 
L 839.192455 83.78989 
L 843.016119 77.574221 
L 846.839783 71.812611 
L 850.663446 66.528027 
L 854.48711 61.741535 
L 858.310774 57.472215 
L 862.134438 53.737086 
L 865.958102 50.551038 
L 869.781765 47.926771 
L 873.605429 45.874746 
L 877.429093 44.403142 
L 881.252757 43.517827 
L 885.07642 43.22233 
L 885.07642 43.22233 
" style="fill:none;stroke:#ff7f0e;stroke-linecap:square;stroke-width:1.5;"/>
   </g>
   <g id="patch_3">
    <path d="M 86.121875 354.556875 
L 86.121875 28.396875 
" style="fill:none;stroke:#000000;stroke-linecap:square;stroke-linejoin:miter;stroke-width:0.8;"/>
   </g>
   <g id="patch_4">
    <path d="M 923.121875 354.556875 
L 923.121875 28.396875 
" style="fill:none;stroke:#000000;stroke-linecap:square;stroke-linejoin:miter;stroke-width:0.8;"/>
   </g>
   <g id="patch_5">
    <path d="M 86.121875 354.556875 
L 923.121875 354.556875 
" style="fill:none;stroke:#000000;stroke-linecap:square;stroke-linejoin:miter;stroke-width:0.8;"/>
   </g>
   <g id="patch_6">
    <path d="M 86.121875 28.396875 
L 923.121875 28.396875 
" style="fill:none;stroke:#000000;stroke-linecap:square;stroke-linejoin:miter;stroke-width:0.8;"/>
   </g>
   <g id="text_15">
    <!-- $f(x) = sin(x)$ -->
    <defs>
     <path d="M 10.59375 45.40625 
L 73.1875 45.40625 
L 73.1875 37.203125 
L 10.59375 37.203125 
z
M 10.59375 25.484375 
L 73.1875 25.484375 
L 73.1875 17.1875 
L 10.59375 17.1875 
z
" id="DejaVuSans-3d"/>
     <path d="M 50 53.078125 
L 48.296875 44.578125 
Q 44.734375 46.53125 40.765625 47.5 
Q 36.8125 48.484375 32.625 48.484375 
Q 25.53125 48.484375 21.453125 46.0625 
Q 17.390625 43.65625 17.390625 39.5 
Q 17.390625 34.671875 26.859375 32.078125 
Q 27.59375 31.890625 27.9375 31.78125 
L 30.8125 30.90625 
Q 39.796875 28.421875 42.796875 25.6875 
Q 45.796875 22.953125 45.796875 18.21875 
Q 45.796875 9.515625 38.890625 4.046875 
Q 31.984375 -1.421875 20.796875 -1.421875 
Q 16.453125 -1.421875 11.671875 -0.578125 
Q 6.890625 0.25 1.125 2 
L 2.875 11.28125 
Q 7.8125 8.734375 12.59375 7.421875 
Q 17.390625 6.109375 21.78125 6.109375 
Q 28.375 6.109375 32.5 8.9375 
Q 36.625 11.765625 36.625 16.109375 
Q 36.625 20.796875 25.78125 23.6875 
L 24.859375 23.921875 
L 21.78125 24.703125 
Q 14.9375 26.515625 11.765625 29.46875 
Q 8.59375 32.421875 8.59375 37.015625 
Q 8.59375 45.75 15.15625 50.875 
Q 21.734375 56 33.015625 56 
Q 37.453125 56 41.671875 55.265625 
Q 45.90625 54.546875 50 53.078125 
z
" id="DejaVuSans-Oblique-73"/>
     <path d="M 18.3125 75.984375 
L 27.296875 75.984375 
L 25.09375 64.59375 
L 16.109375 64.59375 
z
M 14.203125 54.6875 
L 23.1875 54.6875 
L 12.5 0 
L 3.515625 0 
z
" id="DejaVuSans-Oblique-69"/>
     <path d="M 55.71875 33.015625 
L 49.3125 0 
L 40.28125 0 
L 46.6875 32.671875 
Q 47.125 34.96875 47.359375 36.71875 
Q 47.609375 38.484375 47.609375 39.5 
Q 47.609375 43.609375 45.015625 45.890625 
Q 42.4375 48.1875 37.796875 48.1875 
Q 30.5625 48.1875 25.34375 43.375 
Q 20.125 38.578125 18.5 30.328125 
L 12.5 0 
L 3.515625 0 
L 14.109375 54.6875 
L 23.09375 54.6875 
L 21.296875 46.09375 
Q 25.046875 50.828125 30.3125 53.40625 
Q 35.59375 56 41.40625 56 
Q 48.640625 56 52.609375 52.09375 
Q 56.59375 48.1875 56.59375 41.109375 
Q 56.59375 39.359375 56.375 37.359375 
Q 56.15625 35.359375 55.71875 33.015625 
z
" id="DejaVuSans-Oblique-6e"/>
    </defs>
    <g transform="translate(447.021875 22.396875)scale(0.2 -0.2)">
     <use transform="translate(0 0.015625)" xlink:href="#DejaVuSans-Oblique-66"/>
     <use transform="translate(35.205078 0.015625)" xlink:href="#DejaVuSans-28"/>
     <use transform="translate(74.21875 0.015625)" xlink:href="#DejaVuSans-Oblique-78"/>
     <use transform="translate(133.398438 0.015625)" xlink:href="#DejaVuSans-29"/>
     <use transform="translate(191.894531 0.015625)" xlink:href="#DejaVuSans-3d"/>
     <use transform="translate(295.166016 0.015625)" xlink:href="#DejaVuSans-Oblique-73"/>
     <use transform="translate(347.265625 0.015625)" xlink:href="#DejaVuSans-Oblique-69"/>
     <use transform="translate(375.048828 0.015625)" xlink:href="#DejaVuSans-Oblique-6e"/>
     <use transform="translate(438.427734 0.015625)" xlink:href="#DejaVuSans-28"/>
     <use transform="translate(477.441406 0.015625)" xlink:href="#DejaVuSans-Oblique-78"/>
     <use transform="translate(536.621094 0.015625)" xlink:href="#DejaVuSans-29"/>
    </g>
   </g>
   <g id="legend_1">
    <g id="patch_7">
     <path d="M 100.121875 344.556875 
L 225.21875 344.556875 
Q 229.21875 344.556875 229.21875 340.556875 
L 229.21875 283.844375 
Q 229.21875 279.844375 225.21875 279.844375 
L 100.121875 279.844375 
Q 96.121875 279.844375 96.121875 283.844375 
L 96.121875 340.556875 
Q 96.121875 344.556875 100.121875 344.556875 
z
" style="fill:#ffffff;opacity:0.8;stroke:#cccccc;stroke-linejoin:miter;"/>
    </g>
    <g id="line2d_15">
     <path d="M 104.121875 296.04125 
L 144.121875 296.04125 
" style="fill:none;stroke:#1f77b4;stroke-linecap:square;stroke-width:1.5;"/>
    </g>
    <g id="line2d_16"/>
    <g id="text_16">
     <!-- sin(x) -->
     <defs>
      <path d="M 44.28125 53.078125 
L 44.28125 44.578125 
Q 40.484375 46.53125 36.375 47.5 
Q 32.28125 48.484375 27.875 48.484375 
Q 21.1875 48.484375 17.84375 46.4375 
Q 14.5 44.390625 14.5 40.28125 
Q 14.5 37.15625 16.890625 35.375 
Q 19.28125 33.59375 26.515625 31.984375 
L 29.59375 31.296875 
Q 39.15625 29.25 43.1875 25.515625 
Q 47.21875 21.78125 47.21875 15.09375 
Q 47.21875 7.46875 41.1875 3.015625 
Q 35.15625 -1.421875 24.609375 -1.421875 
Q 20.21875 -1.421875 15.453125 -0.5625 
Q 10.6875 0.296875 5.421875 2 
L 5.421875 11.28125 
Q 10.40625 8.6875 15.234375 7.390625 
Q 20.0625 6.109375 24.8125 6.109375 
Q 31.15625 6.109375 34.5625 8.28125 
Q 37.984375 10.453125 37.984375 14.40625 
Q 37.984375 18.0625 35.515625 20.015625 
Q 33.0625 21.96875 24.703125 23.78125 
L 21.578125 24.515625 
Q 13.234375 26.265625 9.515625 29.90625 
Q 5.8125 33.546875 5.8125 39.890625 
Q 5.8125 47.609375 11.28125 51.796875 
Q 16.75 56 26.8125 56 
Q 31.78125 56 36.171875 55.265625 
Q 40.578125 54.546875 44.28125 53.078125 
z
" id="DejaVuSans-73"/>
      <path d="M 9.421875 54.6875 
L 18.40625 54.6875 
L 18.40625 0 
L 9.421875 0 
z
M 9.421875 75.984375 
L 18.40625 75.984375 
L 18.40625 64.59375 
L 9.421875 64.59375 
z
" id="DejaVuSans-69"/>
      <path d="M 54.890625 33.015625 
L 54.890625 0 
L 45.90625 0 
L 45.90625 32.71875 
Q 45.90625 40.484375 42.875 44.328125 
Q 39.84375 48.1875 33.796875 48.1875 
Q 26.515625 48.1875 22.3125 43.546875 
Q 18.109375 38.921875 18.109375 30.90625 
L 18.109375 0 
L 9.078125 0 
L 9.078125 54.6875 
L 18.109375 54.6875 
L 18.109375 46.1875 
Q 21.34375 51.125 25.703125 53.5625 
Q 30.078125 56 35.796875 56 
Q 45.21875 56 50.046875 50.171875 
Q 54.890625 44.34375 54.890625 33.015625 
z
" id="DejaVuSans-6e"/>
      <path d="M 54.890625 54.6875 
L 35.109375 28.078125 
L 55.90625 0 
L 45.3125 0 
L 29.390625 21.484375 
L 13.484375 0 
L 2.875 0 
L 24.125 28.609375 
L 4.6875 54.6875 
L 15.28125 54.6875 
L 29.78125 35.203125 
L 44.28125 54.6875 
z
" id="DejaVuSans-78"/>
     </defs>
     <g transform="translate(160.121875 303.04125)scale(0.2 -0.2)">
      <use xlink:href="#DejaVuSans-73"/>
      <use x="52.099609" xlink:href="#DejaVuSans-69"/>
      <use x="79.882812" xlink:href="#DejaVuSans-6e"/>
      <use x="143.261719" xlink:href="#DejaVuSans-28"/>
      <use x="182.275391" xlink:href="#DejaVuSans-78"/>
      <use x="241.455078" xlink:href="#DejaVuSans-29"/>
     </g>
    </g>
    <g id="line2d_17">
     <path d="M 104.121875 325.3975 
L 144.121875 325.3975 
" style="fill:none;stroke:#ff7f0e;stroke-linecap:square;stroke-width:1.5;"/>
    </g>
    <g id="line2d_18"/>
    <g id="text_17">
     <!-- cos(x) -->
     <defs>
      <path d="M 48.78125 52.59375 
L 48.78125 44.1875 
Q 44.96875 46.296875 41.140625 47.34375 
Q 37.3125 48.390625 33.40625 48.390625 
Q 24.65625 48.390625 19.8125 42.84375 
Q 14.984375 37.3125 14.984375 27.296875 
Q 14.984375 17.28125 19.8125 11.734375 
Q 24.65625 6.203125 33.40625 6.203125 
Q 37.3125 6.203125 41.140625 7.25 
Q 44.96875 8.296875 48.78125 10.40625 
L 48.78125 2.09375 
Q 45.015625 0.34375 40.984375 -0.53125 
Q 36.96875 -1.421875 32.421875 -1.421875 
Q 20.0625 -1.421875 12.78125 6.34375 
Q 5.515625 14.109375 5.515625 27.296875 
Q 5.515625 40.671875 12.859375 48.328125 
Q 20.21875 56 33.015625 56 
Q 37.15625 56 41.109375 55.140625 
Q 45.0625 54.296875 48.78125 52.59375 
z
" id="DejaVuSans-63"/>
      <path d="M 30.609375 48.390625 
Q 23.390625 48.390625 19.1875 42.75 
Q 14.984375 37.109375 14.984375 27.296875 
Q 14.984375 17.484375 19.15625 11.84375 
Q 23.34375 6.203125 30.609375 6.203125 
Q 37.796875 6.203125 41.984375 11.859375 
Q 46.1875 17.53125 46.1875 27.296875 
Q 46.1875 37.015625 41.984375 42.703125 
Q 37.796875 48.390625 30.609375 48.390625 
z
M 30.609375 56 
Q 42.328125 56 49.015625 48.375 
Q 55.71875 40.765625 55.71875 27.296875 
Q 55.71875 13.875 49.015625 6.21875 
Q 42.328125 -1.421875 30.609375 -1.421875 
Q 18.84375 -1.421875 12.171875 6.21875 
Q 5.515625 13.875 5.515625 27.296875 
Q 5.515625 40.765625 12.171875 48.375 
Q 18.84375 56 30.609375 56 
z
" id="DejaVuSans-6f"/>
     </defs>
     <g transform="translate(160.121875 332.3975)scale(0.2 -0.2)">
      <use xlink:href="#DejaVuSans-63"/>
      <use x="54.980469" xlink:href="#DejaVuSans-6f"/>
      <use x="116.162109" xlink:href="#DejaVuSans-73"/>
      <use x="168.261719" xlink:href="#DejaVuSans-28"/>
      <use x="207.275391" xlink:href="#DejaVuSans-78"/>
      <use x="266.455078" xlink:href="#DejaVuSans-29"/>
     </g>
    </g>
   </g>
  </g>
 </g>
 <defs>
  <clipPath id="pb7452df29a">
   <rect height="326.16" width="837" x="86.121875" y="28.396875"/>
  </clipPath>
 </defs>
</svg>
