<?xml version="1.0" encoding="utf-8" standalone="no"?>
<!DOCTYPE svg PUBLIC "-//W3C//DTD SVG 1.1//EN"
  "http://www.w3.org/Graphics/SVG/1.1/DTD/svg11.dtd">
<!-- Created with matplotlib (http://matplotlib.org/) -->
<svg height="252pt" version="1.1" viewBox="0 0 597 252" width="597pt" xmlns="http://www.w3.org/2000/svg" xmlns:xlink="http://www.w3.org/1999/xlink">
 <defs>
  <style type="text/css">
*{stroke-linecap:butt;stroke-linejoin:round;}
  </style>
 </defs>
 <g id="figure_1">
  <g id="patch_1">
   <path d="M 0 252.018125 
L 597.642187 252.018125 
L 597.642187 0 
L 0 0 
z
" style="fill:#ffffff;"/>
  </g>
  <g id="axes_1">
   <g id="patch_2">
    <path d="M 28.942188 109.536364 
L 282.578551 109.536364 
L 282.578551 10.7 
L 28.942188 10.7 
z
" style="fill:#ffffff;"/>
   </g>
   <g id="matplotlib.axis_1">
    <g id="xtick_1">
     <g id="line2d_1">
      <defs>
       <path d="M 0 0 
L 0 3.5 
" id="m35163c72ec" style="stroke:#000000;stroke-width:0.8;"/>
      </defs>
      <g>
       <use style="stroke:#000000;stroke-width:0.8;" x="45.667239" xlink:href="#m35163c72ec" y="109.536364"/>
      </g>
     </g>
     <g id="text_1">
      <!-- −6 -->
      <defs>
       <path d="M 10.59375 35.5 
L 73.1875 35.5 
L 73.1875 27.203125 
L 10.59375 27.203125 
z
" id="DejaVuSans-2212"/>
       <path d="M 33.015625 40.375 
Q 26.375 40.375 22.484375 35.828125 
Q 18.609375 31.296875 18.609375 23.390625 
Q 18.609375 15.53125 22.484375 10.953125 
Q 26.375 6.390625 33.015625 6.390625 
Q 39.65625 6.390625 43.53125 10.953125 
Q 47.40625 15.53125 47.40625 23.390625 
Q 47.40625 31.296875 43.53125 35.828125 
Q 39.65625 40.375 33.015625 40.375 
z
M 52.59375 71.296875 
L 52.59375 62.3125 
Q 48.875 64.0625 45.09375 64.984375 
Q 41.3125 65.921875 37.59375 65.921875 
Q 27.828125 65.921875 22.671875 59.328125 
Q 17.53125 52.734375 16.796875 39.40625 
Q 19.671875 43.65625 24.015625 45.921875 
Q 28.375 48.1875 33.59375 48.1875 
Q 44.578125 48.1875 50.953125 41.515625 
Q 57.328125 34.859375 57.328125 23.390625 
Q 57.328125 12.15625 50.6875 5.359375 
Q 44.046875 -1.421875 33.015625 -1.421875 
Q 20.359375 -1.421875 13.671875 8.265625 
Q 6.984375 17.96875 6.984375 36.375 
Q 6.984375 53.65625 15.1875 63.9375 
Q 23.390625 74.21875 37.203125 74.21875 
Q 40.921875 74.21875 44.703125 73.484375 
Q 48.484375 72.75 52.59375 71.296875 
z
" id="DejaVuSans-36"/>
      </defs>
      <g transform="translate(38.296146 124.134801)scale(0.1 -0.1)">
       <use xlink:href="#DejaVuSans-2212"/>
       <use x="83.789062" xlink:href="#DejaVuSans-36"/>
      </g>
     </g>
    </g>
    <g id="xtick_2">
     <g id="line2d_2">
      <g>
       <use style="stroke:#000000;stroke-width:0.8;" x="82.364949" xlink:href="#m35163c72ec" y="109.536364"/>
      </g>
     </g>
     <g id="text_2">
      <!-- −4 -->
      <defs>
       <path d="M 37.796875 64.3125 
L 12.890625 25.390625 
L 37.796875 25.390625 
z
M 35.203125 72.90625 
L 47.609375 72.90625 
L 47.609375 25.390625 
L 58.015625 25.390625 
L 58.015625 17.1875 
L 47.609375 17.1875 
L 47.609375 0 
L 37.796875 0 
L 37.796875 17.1875 
L 4.890625 17.1875 
L 4.890625 26.703125 
z
" id="DejaVuSans-34"/>
      </defs>
      <g transform="translate(74.993856 124.134801)scale(0.1 -0.1)">
       <use xlink:href="#DejaVuSans-2212"/>
       <use x="83.789062" xlink:href="#DejaVuSans-34"/>
      </g>
     </g>
    </g>
    <g id="xtick_3">
     <g id="line2d_3">
      <g>
       <use style="stroke:#000000;stroke-width:0.8;" x="119.062659" xlink:href="#m35163c72ec" y="109.536364"/>
      </g>
     </g>
     <g id="text_3">
      <!-- −2 -->
      <defs>
       <path d="M 19.1875 8.296875 
L 53.609375 8.296875 
L 53.609375 0 
L 7.328125 0 
L 7.328125 8.296875 
Q 12.9375 14.109375 22.625 23.890625 
Q 32.328125 33.6875 34.8125 36.53125 
Q 39.546875 41.84375 41.421875 45.53125 
Q 43.3125 49.21875 43.3125 52.78125 
Q 43.3125 58.59375 39.234375 62.25 
Q 35.15625 65.921875 28.609375 65.921875 
Q 23.96875 65.921875 18.8125 64.3125 
Q 13.671875 62.703125 7.8125 59.421875 
L 7.8125 69.390625 
Q 13.765625 71.78125 18.9375 73 
Q 24.125 74.21875 28.421875 74.21875 
Q 39.75 74.21875 46.484375 68.546875 
Q 53.21875 62.890625 53.21875 53.421875 
Q 53.21875 48.921875 51.53125 44.890625 
Q 49.859375 40.875 45.40625 35.40625 
Q 44.1875 33.984375 37.640625 27.21875 
Q 31.109375 20.453125 19.1875 8.296875 
z
" id="DejaVuSans-32"/>
      </defs>
      <g transform="translate(111.691566 124.134801)scale(0.1 -0.1)">
       <use xlink:href="#DejaVuSans-2212"/>
       <use x="83.789062" xlink:href="#DejaVuSans-32"/>
      </g>
     </g>
    </g>
    <g id="xtick_4">
     <g id="line2d_4">
      <g>
       <use style="stroke:#000000;stroke-width:0.8;" x="155.760369" xlink:href="#m35163c72ec" y="109.536364"/>
      </g>
     </g>
     <g id="text_4">
      <!-- 0 -->
      <defs>
       <path d="M 31.78125 66.40625 
Q 24.171875 66.40625 20.328125 58.90625 
Q 16.5 51.421875 16.5 36.375 
Q 16.5 21.390625 20.328125 13.890625 
Q 24.171875 6.390625 31.78125 6.390625 
Q 39.453125 6.390625 43.28125 13.890625 
Q 47.125 21.390625 47.125 36.375 
Q 47.125 51.421875 43.28125 58.90625 
Q 39.453125 66.40625 31.78125 66.40625 
z
M 31.78125 74.21875 
Q 44.046875 74.21875 50.515625 64.515625 
Q 56.984375 54.828125 56.984375 36.375 
Q 56.984375 17.96875 50.515625 8.265625 
Q 44.046875 -1.421875 31.78125 -1.421875 
Q 19.53125 -1.421875 13.0625 8.265625 
Q 6.59375 17.96875 6.59375 36.375 
Q 6.59375 54.828125 13.0625 64.515625 
Q 19.53125 74.21875 31.78125 74.21875 
z
" id="DejaVuSans-30"/>
      </defs>
      <g transform="translate(152.579119 124.134801)scale(0.1 -0.1)">
       <use xlink:href="#DejaVuSans-30"/>
      </g>
     </g>
    </g>
    <g id="xtick_5">
     <g id="line2d_5">
      <g>
       <use style="stroke:#000000;stroke-width:0.8;" x="192.458079" xlink:href="#m35163c72ec" y="109.536364"/>
      </g>
     </g>
     <g id="text_5">
      <!-- 2 -->
      <g transform="translate(189.276829 124.134801)scale(0.1 -0.1)">
       <use xlink:href="#DejaVuSans-32"/>
      </g>
     </g>
    </g>
    <g id="xtick_6">
     <g id="line2d_6">
      <g>
       <use style="stroke:#000000;stroke-width:0.8;" x="229.155789" xlink:href="#m35163c72ec" y="109.536364"/>
      </g>
     </g>
     <g id="text_6">
      <!-- 4 -->
      <g transform="translate(225.974539 124.134801)scale(0.1 -0.1)">
       <use xlink:href="#DejaVuSans-34"/>
      </g>
     </g>
    </g>
    <g id="xtick_7">
     <g id="line2d_7">
      <g>
       <use style="stroke:#000000;stroke-width:0.8;" x="265.853499" xlink:href="#m35163c72ec" y="109.536364"/>
      </g>
     </g>
     <g id="text_7">
      <!-- 6 -->
      <g transform="translate(262.672249 124.134801)scale(0.1 -0.1)">
       <use xlink:href="#DejaVuSans-36"/>
      </g>
     </g>
    </g>
   </g>
   <g id="matplotlib.axis_2">
    <g id="ytick_1">
     <g id="line2d_8">
      <defs>
       <path d="M 0 0 
L -3.5 0 
" id="m3308513f80" style="stroke:#000000;stroke-width:0.8;"/>
      </defs>
      <g>
       <use style="stroke:#000000;stroke-width:0.8;" x="28.942188" xlink:href="#m3308513f80" y="105.045201"/>
      </g>
     </g>
     <g id="text_8">
      <!-- −1 -->
      <defs>
       <path d="M 12.40625 8.296875 
L 28.515625 8.296875 
L 28.515625 63.921875 
L 10.984375 60.40625 
L 10.984375 69.390625 
L 28.421875 72.90625 
L 38.28125 72.90625 
L 38.28125 8.296875 
L 54.390625 8.296875 
L 54.390625 0 
L 12.40625 0 
z
" id="DejaVuSans-31"/>
      </defs>
      <g transform="translate(7.2 108.84442)scale(0.1 -0.1)">
       <use xlink:href="#DejaVuSans-2212"/>
       <use x="83.789062" xlink:href="#DejaVuSans-31"/>
      </g>
     </g>
    </g>
    <g id="ytick_2">
     <g id="line2d_9">
      <g>
       <use style="stroke:#000000;stroke-width:0.8;" x="28.942188" xlink:href="#m3308513f80" y="60.118182"/>
      </g>
     </g>
     <g id="text_9">
      <!-- 0 -->
      <g transform="translate(15.579688 63.917401)scale(0.1 -0.1)">
       <use xlink:href="#DejaVuSans-30"/>
      </g>
     </g>
    </g>
    <g id="ytick_3">
     <g id="line2d_10">
      <g>
       <use style="stroke:#000000;stroke-width:0.8;" x="28.942188" xlink:href="#m3308513f80" y="15.191162"/>
      </g>
     </g>
     <g id="text_10">
      <!-- 1 -->
      <g transform="translate(15.579688 18.990381)scale(0.1 -0.1)">
       <use xlink:href="#DejaVuSans-31"/>
      </g>
     </g>
    </g>
   </g>
   <g id="line2d_11">
    <path clip-path="url(#p7d0688100b)" d="M 40.471113 60.118182 
L 46.264543 46.167532 
L 49.740601 38.37505 
L 52.057973 33.596114 
L 54.375345 29.239655 
L 56.692717 25.375069 
L 59.010089 22.063917 
L 61.327461 19.358941 
L 62.486147 18.247632 
L 63.644833 17.303231 
L 64.803519 16.529503 
L 65.962205 15.929532 
L 67.120891 15.50571 
L 68.279577 15.259726 
L 69.438263 15.192562 
L 70.596949 15.304484 
L 71.755635 15.595047 
L 72.914321 16.063092 
L 74.073007 16.706754 
L 75.231693 17.523466 
L 76.390379 18.509973 
L 77.549065 19.662343 
L 79.866437 22.445652 
L 82.183809 25.829058 
L 84.501181 29.758665 
L 86.818553 34.171878 
L 89.135925 38.998396 
L 92.611983 46.84344 
L 97.246727 57.991202 
L 104.198843 74.741263 
L 107.674901 82.479241 
L 109.992273 87.209404 
L 112.309645 91.508023 
L 114.627017 95.306624 
L 116.944389 98.544699 
L 119.261761 101.170667 
L 120.420447 102.240639 
L 121.579133 103.142698 
L 122.737819 103.873249 
L 123.896505 104.429379 
L 125.055191 104.808872 
L 126.213877 105.010215 
L 127.372563 105.032605 
L 128.531249 104.875953 
L 129.689934 104.540884 
L 130.84862 104.028732 
L 132.007306 103.34154 
L 133.165992 102.482047 
L 134.324678 101.45368 
L 135.483364 100.260536 
L 137.800736 97.399587 
L 140.118108 93.944771 
L 142.43548 89.951122 
L 144.752852 85.482256 
L 147.070224 80.609358 
L 150.546282 72.713707 
L 156.339712 58.699901 
L 162.133142 44.826314 
L 165.6092 37.144768 
L 167.926572 32.464557 
L 170.243944 28.224849 
L 172.561316 24.493179 
L 174.878688 21.32899 
L 177.19606 18.782684 
L 178.354746 17.754316 
L 179.513432 16.894824 
L 180.672118 16.207632 
L 181.830804 15.69548 
L 182.98949 15.36041 
L 184.148176 15.203758 
L 185.306862 15.226148 
L 186.465548 15.427491 
L 187.624234 15.806984 
L 188.78292 16.363115 
L 189.941606 17.093666 
L 191.100292 17.995725 
L 192.258978 19.065697 
L 194.57635 21.691665 
L 196.893722 24.929739 
L 199.211094 28.728341 
L 201.528466 33.02696 
L 203.845838 37.757122 
L 207.321896 45.495101 
L 211.95664 56.575572 
L 218.908756 73.392923 
L 222.384814 81.237967 
L 224.702186 86.064486 
L 227.019558 90.477698 
L 229.33693 94.407305 
L 231.654302 97.790711 
L 233.971674 100.574021 
L 235.13036 101.726391 
L 236.289046 102.712898 
L 237.447732 103.52961 
L 238.606418 104.173272 
L 239.765104 104.641317 
L 240.92379 104.931879 
L 242.082476 105.043802 
L 243.241162 104.976637 
L 244.399848 104.730654 
L 245.558534 104.306832 
L 246.71722 103.706861 
L 247.875906 102.933133 
L 249.034592 101.988732 
L 250.193278 100.877423 
L 252.51065 98.172447 
L 254.828022 94.861294 
L 257.145394 90.996708 
L 259.462766 86.64025 
L 261.780138 81.861314 
L 265.256196 74.068831 
L 269.89094 62.95333 
L 271.049626 60.118182 
L 271.049626 60.118182 
" style="fill:none;stroke:#1f77b4;stroke-linecap:square;stroke-width:1.5;"/>
   </g>
   <g id="patch_3">
    <path d="M 28.942188 109.536364 
L 28.942188 10.7 
" style="fill:none;stroke:#000000;stroke-linecap:square;stroke-linejoin:miter;stroke-width:0.8;"/>
   </g>
   <g id="patch_4">
    <path d="M 282.578551 109.536364 
L 282.578551 10.7 
" style="fill:none;stroke:#000000;stroke-linecap:square;stroke-linejoin:miter;stroke-width:0.8;"/>
   </g>
   <g id="patch_5">
    <path d="M 28.942187 109.536364 
L 282.578551 109.536364 
" style="fill:none;stroke:#000000;stroke-linecap:square;stroke-linejoin:miter;stroke-width:0.8;"/>
   </g>
   <g id="patch_6">
    <path d="M 28.942187 10.7 
L 282.578551 10.7 
" style="fill:none;stroke:#000000;stroke-linecap:square;stroke-linejoin:miter;stroke-width:0.8;"/>
   </g>
  </g>
  <g id="axes_2">
   <g id="patch_7">
    <path d="M 333.305824 109.536364 
L 586.942187 109.536364 
L 586.942187 10.7 
L 333.305824 10.7 
z
" style="fill:#ffffff;"/>
   </g>
   <g id="matplotlib.axis_3">
    <g id="xtick_8">
     <g id="line2d_12">
      <g>
       <use style="stroke:#000000;stroke-width:0.8;" x="350.030876" xlink:href="#m35163c72ec" y="109.536364"/>
      </g>
     </g>
     <g id="text_11">
      <!-- −6 -->
      <g transform="translate(342.659782 124.134801)scale(0.1 -0.1)">
       <use xlink:href="#DejaVuSans-2212"/>
       <use x="83.789062" xlink:href="#DejaVuSans-36"/>
      </g>
     </g>
    </g>
    <g id="xtick_9">
     <g id="line2d_13">
      <g>
       <use style="stroke:#000000;stroke-width:0.8;" x="386.728586" xlink:href="#m35163c72ec" y="109.536364"/>
      </g>
     </g>
     <g id="text_12">
      <!-- −4 -->
      <g transform="translate(379.357492 124.134801)scale(0.1 -0.1)">
       <use xlink:href="#DejaVuSans-2212"/>
       <use x="83.789062" xlink:href="#DejaVuSans-34"/>
      </g>
     </g>
    </g>
    <g id="xtick_10">
     <g id="line2d_14">
      <g>
       <use style="stroke:#000000;stroke-width:0.8;" x="423.426296" xlink:href="#m35163c72ec" y="109.536364"/>
      </g>
     </g>
     <g id="text_13">
      <!-- −2 -->
      <g transform="translate(416.055202 124.134801)scale(0.1 -0.1)">
       <use xlink:href="#DejaVuSans-2212"/>
       <use x="83.789062" xlink:href="#DejaVuSans-32"/>
      </g>
     </g>
    </g>
    <g id="xtick_11">
     <g id="line2d_15">
      <g>
       <use style="stroke:#000000;stroke-width:0.8;" x="460.124006" xlink:href="#m35163c72ec" y="109.536364"/>
      </g>
     </g>
     <g id="text_14">
      <!-- 0 -->
      <g transform="translate(456.942756 124.134801)scale(0.1 -0.1)">
       <use xlink:href="#DejaVuSans-30"/>
      </g>
     </g>
    </g>
    <g id="xtick_12">
     <g id="line2d_16">
      <g>
       <use style="stroke:#000000;stroke-width:0.8;" x="496.821716" xlink:href="#m35163c72ec" y="109.536364"/>
      </g>
     </g>
     <g id="text_15">
      <!-- 2 -->
      <g transform="translate(493.640466 124.134801)scale(0.1 -0.1)">
       <use xlink:href="#DejaVuSans-32"/>
      </g>
     </g>
    </g>
    <g id="xtick_13">
     <g id="line2d_17">
      <g>
       <use style="stroke:#000000;stroke-width:0.8;" x="533.519426" xlink:href="#m35163c72ec" y="109.536364"/>
      </g>
     </g>
     <g id="text_16">
      <!-- 4 -->
      <g transform="translate(530.338176 124.134801)scale(0.1 -0.1)">
       <use xlink:href="#DejaVuSans-34"/>
      </g>
     </g>
    </g>
    <g id="xtick_14">
     <g id="line2d_18">
      <g>
       <use style="stroke:#000000;stroke-width:0.8;" x="570.217136" xlink:href="#m35163c72ec" y="109.536364"/>
      </g>
     </g>
     <g id="text_17">
      <!-- 6 -->
      <g transform="translate(567.035886 124.134801)scale(0.1 -0.1)">
       <use xlink:href="#DejaVuSans-36"/>
      </g>
     </g>
    </g>
   </g>
   <g id="matplotlib.axis_4">
    <g id="ytick_4">
     <g id="line2d_19">
      <g>
       <use style="stroke:#000000;stroke-width:0.8;" x="333.305824" xlink:href="#m3308513f80" y="105.0494"/>
      </g>
     </g>
     <g id="text_18">
      <!-- −1 -->
      <g transform="translate(311.563636 108.848619)scale(0.1 -0.1)">
       <use xlink:href="#DejaVuSans-2212"/>
       <use x="83.789062" xlink:href="#DejaVuSans-31"/>
      </g>
     </g>
    </g>
    <g id="ytick_5">
     <g id="line2d_20">
      <g>
       <use style="stroke:#000000;stroke-width:0.8;" x="333.305824" xlink:href="#m3308513f80" y="60.120981"/>
      </g>
     </g>
     <g id="text_19">
      <!-- 0 -->
      <g transform="translate(319.943324 63.9202)scale(0.1 -0.1)">
       <use xlink:href="#DejaVuSans-30"/>
      </g>
     </g>
    </g>
    <g id="ytick_6">
     <g id="line2d_21">
      <g>
       <use style="stroke:#000000;stroke-width:0.8;" x="333.305824" xlink:href="#m3308513f80" y="15.192562"/>
      </g>
     </g>
     <g id="text_20">
      <!-- 1 -->
      <g transform="translate(319.943324 18.991781)scale(0.1 -0.1)">
       <use xlink:href="#DejaVuSans-31"/>
      </g>
     </g>
    </g>
   </g>
   <g id="line2d_22">
    <path clip-path="url(#pa39f6d9380)" d="M 344.834749 15.192562 
L 345.993435 15.282111 
L 347.152121 15.550401 
L 348.310807 15.996362 
L 349.469493 16.618217 
L 350.628179 17.413487 
L 351.786865 18.379001 
L 352.945551 19.510911 
L 355.262923 22.255225 
L 357.580295 25.602712 
L 359.897667 29.500052 
L 362.215039 33.88516 
L 364.532411 38.688187 
L 368.008469 46.507437 
L 372.643213 57.639763 
L 379.595329 74.408737 
L 383.071387 82.174451 
L 385.388759 86.929297 
L 387.706131 91.257105 
L 390.023503 95.088937 
L 392.340875 98.363755 
L 394.658247 101.029393 
L 395.816933 102.120101 
L 396.975619 103.043389 
L 398.134305 103.795575 
L 399.292991 104.373662 
L 400.451677 104.775345 
L 401.610363 104.999022 
L 402.769049 105.043802 
L 403.927735 104.909506 
L 405.086421 104.59667 
L 406.245107 104.106542 
L 407.403793 103.441073 
L 408.562479 102.602919 
L 409.721165 101.595418 
L 410.879851 100.422589 
L 413.197223 97.600283 
L 415.514595 94.18096 
L 417.831967 90.219085 
L 420.149339 85.777769 
L 422.466711 80.927758 
L 425.942769 73.05692 
L 430.577513 61.893722 
L 437.529629 45.162574 
L 441.005687 37.452332 
L 443.323059 32.746852 
L 445.640431 28.477423 
L 447.957803 24.712052 
L 450.275175 21.510721 
L 452.592547 18.924423 
L 453.751233 17.875188 
L 454.909919 16.994357 
L 456.068605 16.285441 
L 457.227291 15.751267 
L 458.385977 15.393963 
L 459.544663 15.214955 
L 460.703349 15.214955 
L 461.862035 15.393963 
L 463.020721 15.751267 
L 464.179407 16.285441 
L 465.338093 16.994357 
L 466.496779 17.875188 
L 467.655465 18.924423 
L 469.972837 21.510721 
L 472.290209 24.712052 
L 474.607581 28.477423 
L 476.924953 32.746852 
L 479.242325 37.452332 
L 482.718383 45.162574 
L 487.353126 56.224839 
L 494.305242 73.05692 
L 497.7813 80.927758 
L 500.098672 85.777769 
L 502.416044 90.219085 
L 504.733416 94.18096 
L 507.050788 97.600283 
L 509.36816 100.422589 
L 510.526846 101.595418 
L 511.685532 102.602919 
L 512.844218 103.441073 
L 514.002904 104.106542 
L 515.16159 104.59667 
L 516.320276 104.909506 
L 517.478962 105.043802 
L 518.637648 104.999022 
L 519.796334 104.775345 
L 520.95502 104.373662 
L 522.113706 103.795575 
L 523.272392 103.043389 
L 524.431078 102.120101 
L 525.589764 101.029393 
L 527.907136 98.363755 
L 530.224508 95.088937 
L 532.54188 91.257105 
L 534.859252 86.929297 
L 537.176624 82.174451 
L 540.652682 74.408737 
L 545.287426 63.310059 
L 552.239542 46.507437 
L 555.7156 38.688187 
L 558.032972 33.88516 
L 560.350344 29.500052 
L 562.667716 25.602712 
L 564.985088 22.255225 
L 567.30246 19.510911 
L 568.461146 18.379001 
L 569.619832 17.413487 
L 570.778518 16.618217 
L 571.937204 15.996362 
L 573.09589 15.550401 
L 574.254576 15.282111 
L 575.413262 15.192562 
L 575.413262 15.192562 
" style="fill:none;stroke:#1f77b4;stroke-linecap:square;stroke-width:1.5;"/>
   </g>
   <g id="patch_8">
    <path d="M 333.305824 109.536364 
L 333.305824 10.7 
" style="fill:none;stroke:#000000;stroke-linecap:square;stroke-linejoin:miter;stroke-width:0.8;"/>
   </g>
   <g id="patch_9">
    <path d="M 586.942187 109.536364 
L 586.942187 10.7 
" style="fill:none;stroke:#000000;stroke-linecap:square;stroke-linejoin:miter;stroke-width:0.8;"/>
   </g>
   <g id="patch_10">
    <path d="M 333.305824 109.536364 
L 586.942187 109.536364 
" style="fill:none;stroke:#000000;stroke-linecap:square;stroke-linejoin:miter;stroke-width:0.8;"/>
   </g>
   <g id="patch_11">
    <path d="M 333.305824 10.7 
L 586.942187 10.7 
" style="fill:none;stroke:#000000;stroke-linecap:square;stroke-linejoin:miter;stroke-width:0.8;"/>
   </g>
  </g>
  <g id="axes_3">
   <g id="patch_12">
    <path d="M 28.942188 228.14 
L 282.578551 228.14 
L 282.578551 129.303636 
L 28.942188 129.303636 
z
" style="fill:#ffffff;"/>
   </g>
   <g id="matplotlib.axis_5">
    <g id="xtick_15">
     <g id="line2d_23">
      <g>
       <use style="stroke:#000000;stroke-width:0.8;" x="45.667239" xlink:href="#m35163c72ec" y="228.14"/>
      </g>
     </g>
     <g id="text_21">
      <!-- −6 -->
      <g transform="translate(38.296146 242.738437)scale(0.1 -0.1)">
       <use xlink:href="#DejaVuSans-2212"/>
       <use x="83.789062" xlink:href="#DejaVuSans-36"/>
      </g>
     </g>
    </g>
    <g id="xtick_16">
     <g id="line2d_24">
      <g>
       <use style="stroke:#000000;stroke-width:0.8;" x="82.364949" xlink:href="#m35163c72ec" y="228.14"/>
      </g>
     </g>
     <g id="text_22">
      <!-- −4 -->
      <g transform="translate(74.993856 242.738437)scale(0.1 -0.1)">
       <use xlink:href="#DejaVuSans-2212"/>
       <use x="83.789062" xlink:href="#DejaVuSans-34"/>
      </g>
     </g>
    </g>
    <g id="xtick_17">
     <g id="line2d_25">
      <g>
       <use style="stroke:#000000;stroke-width:0.8;" x="119.062659" xlink:href="#m35163c72ec" y="228.14"/>
      </g>
     </g>
     <g id="text_23">
      <!-- −2 -->
      <g transform="translate(111.691566 242.738437)scale(0.1 -0.1)">
       <use xlink:href="#DejaVuSans-2212"/>
       <use x="83.789062" xlink:href="#DejaVuSans-32"/>
      </g>
     </g>
    </g>
    <g id="xtick_18">
     <g id="line2d_26">
      <g>
       <use style="stroke:#000000;stroke-width:0.8;" x="155.760369" xlink:href="#m35163c72ec" y="228.14"/>
      </g>
     </g>
     <g id="text_24">
      <!-- 0 -->
      <g transform="translate(152.579119 242.738437)scale(0.1 -0.1)">
       <use xlink:href="#DejaVuSans-30"/>
      </g>
     </g>
    </g>
    <g id="xtick_19">
     <g id="line2d_27">
      <g>
       <use style="stroke:#000000;stroke-width:0.8;" x="192.458079" xlink:href="#m35163c72ec" y="228.14"/>
      </g>
     </g>
     <g id="text_25">
      <!-- 2 -->
      <g transform="translate(189.276829 242.738437)scale(0.1 -0.1)">
       <use xlink:href="#DejaVuSans-32"/>
      </g>
     </g>
    </g>
    <g id="xtick_20">
     <g id="line2d_28">
      <g>
       <use style="stroke:#000000;stroke-width:0.8;" x="229.155789" xlink:href="#m35163c72ec" y="228.14"/>
      </g>
     </g>
     <g id="text_26">
      <!-- 4 -->
      <g transform="translate(225.974539 242.738437)scale(0.1 -0.1)">
       <use xlink:href="#DejaVuSans-34"/>
      </g>
     </g>
    </g>
    <g id="xtick_21">
     <g id="line2d_29">
      <g>
       <use style="stroke:#000000;stroke-width:0.8;" x="265.853499" xlink:href="#m35163c72ec" y="228.14"/>
      </g>
     </g>
     <g id="text_27">
      <!-- 6 -->
      <g transform="translate(262.672249 242.738437)scale(0.1 -0.1)">
       <use xlink:href="#DejaVuSans-36"/>
      </g>
     </g>
    </g>
   </g>
   <g id="matplotlib.axis_6">
    <g id="ytick_7">
     <g id="line2d_30">
      <g>
       <use style="stroke:#000000;stroke-width:0.8;" x="28.942188" xlink:href="#m3308513f80" y="223.648838"/>
      </g>
     </g>
     <g id="text_28">
      <!-- −1 -->
      <g transform="translate(7.2 227.448056)scale(0.1 -0.1)">
       <use xlink:href="#DejaVuSans-2212"/>
       <use x="83.789062" xlink:href="#DejaVuSans-31"/>
      </g>
     </g>
    </g>
    <g id="ytick_8">
     <g id="line2d_31">
      <g>
       <use style="stroke:#000000;stroke-width:0.8;" x="28.942188" xlink:href="#m3308513f80" y="178.721818"/>
      </g>
     </g>
     <g id="text_29">
      <!-- 0 -->
      <g transform="translate(15.579688 182.521037)scale(0.1 -0.1)">
       <use xlink:href="#DejaVuSans-30"/>
      </g>
     </g>
    </g>
    <g id="ytick_9">
     <g id="line2d_32">
      <g>
       <use style="stroke:#000000;stroke-width:0.8;" x="28.942188" xlink:href="#m3308513f80" y="133.794799"/>
      </g>
     </g>
     <g id="text_30">
      <!-- 1 -->
      <g transform="translate(15.579688 137.594017)scale(0.1 -0.1)">
       <use xlink:href="#DejaVuSans-31"/>
      </g>
     </g>
    </g>
   </g>
   <g id="line2d_33">
    <path clip-path="url(#paaf147afea)" d="M 40.471113 178.721818 
L 46.264543 164.771169 
L 49.740601 156.978686 
L 52.057973 152.19975 
L 54.375345 147.843292 
L 56.692717 143.978706 
L 59.010089 140.667553 
L 61.327461 137.962577 
L 62.486147 136.851268 
L 63.644833 135.906867 
L 64.803519 135.133139 
L 65.962205 134.533168 
L 67.120891 134.109346 
L 68.279577 133.863363 
L 69.438263 133.796198 
L 70.596949 133.908121 
L 71.755635 134.198683 
L 72.914321 134.666728 
L 74.073007 135.31039 
L 75.231693 136.127102 
L 76.390379 137.113609 
L 77.549065 138.265979 
L 79.866437 141.049289 
L 82.183809 144.432695 
L 84.501181 148.362302 
L 86.818553 152.775514 
L 89.135925 157.602033 
L 92.611983 165.447077 
L 97.246727 176.594839 
L 104.198843 193.344899 
L 107.674901 201.082878 
L 109.992273 205.81304 
L 112.309645 210.111659 
L 114.627017 213.910261 
L 116.944389 217.148335 
L 119.261761 219.774303 
L 120.420447 220.844275 
L 121.579133 221.746334 
L 122.737819 222.476885 
L 123.896505 223.033016 
L 125.055191 223.412509 
L 126.213877 223.613852 
L 127.372563 223.636242 
L 128.531249 223.47959 
L 129.689934 223.14452 
L 130.84862 222.632368 
L 132.007306 221.945176 
L 133.165992 221.085684 
L 134.324678 220.057316 
L 135.483364 218.864173 
L 137.800736 216.003223 
L 140.118108 212.548407 
L 142.43548 208.554758 
L 144.752852 204.085892 
L 147.070224 199.212994 
L 150.546282 191.317343 
L 156.339712 177.303537 
L 162.133142 163.42995 
L 165.6092 155.748404 
L 167.926572 151.068194 
L 170.243944 146.828485 
L 172.561316 143.096815 
L 174.878688 139.932626 
L 177.19606 137.38632 
L 178.354746 136.357953 
L 179.513432 135.49846 
L 180.672118 134.811268 
L 181.830804 134.299116 
L 182.98949 133.964047 
L 184.148176 133.807395 
L 185.306862 133.829785 
L 186.465548 134.031128 
L 187.624234 134.410621 
L 188.78292 134.966751 
L 189.941606 135.697302 
L 191.100292 136.599361 
L 192.258978 137.669333 
L 194.57635 140.295301 
L 196.893722 143.533376 
L 199.211094 147.331977 
L 201.528466 151.630596 
L 203.845838 156.360759 
L 207.321896 164.098737 
L 211.95664 175.179208 
L 218.908756 191.99656 
L 222.384814 199.841604 
L 224.702186 204.668122 
L 227.019558 209.081335 
L 229.33693 213.010942 
L 231.654302 216.394348 
L 233.971674 219.177657 
L 235.13036 220.330027 
L 236.289046 221.316534 
L 237.447732 222.133246 
L 238.606418 222.776908 
L 239.765104 223.244953 
L 240.92379 223.535516 
L 242.082476 223.647438 
L 243.241162 223.580274 
L 244.399848 223.33429 
L 245.558534 222.910468 
L 246.71722 222.310497 
L 247.875906 221.536769 
L 249.034592 220.592368 
L 250.193278 219.481059 
L 252.51065 216.776083 
L 254.828022 213.464931 
L 257.145394 209.600345 
L 259.462766 205.243886 
L 261.780138 200.46495 
L 265.256196 192.672468 
L 269.89094 181.556966 
L 271.049626 178.721818 
L 271.049626 178.721818 
" style="fill:none;stroke:#1f77b4;stroke-linecap:square;stroke-width:1.5;"/>
   </g>
   <g id="patch_13">
    <path d="M 28.942188 228.14 
L 28.942188 129.303636 
" style="fill:none;stroke:#000000;stroke-linecap:square;stroke-linejoin:miter;stroke-width:0.8;"/>
   </g>
   <g id="patch_14">
    <path d="M 282.578551 228.14 
L 282.578551 129.303636 
" style="fill:none;stroke:#000000;stroke-linecap:square;stroke-linejoin:miter;stroke-width:0.8;"/>
   </g>
   <g id="patch_15">
    <path d="M 28.942187 228.14 
L 282.578551 228.14 
" style="fill:none;stroke:#000000;stroke-linecap:square;stroke-linejoin:miter;stroke-width:0.8;"/>
   </g>
   <g id="patch_16">
    <path d="M 28.942187 129.303636 
L 282.578551 129.303636 
" style="fill:none;stroke:#000000;stroke-linecap:square;stroke-linejoin:miter;stroke-width:0.8;"/>
   </g>
  </g>
  <g id="axes_4">
   <g id="patch_17">
    <path d="M 333.305824 228.14 
L 586.942187 228.14 
L 586.942187 129.303636 
L 333.305824 129.303636 
z
" style="fill:#ffffff;"/>
   </g>
   <g id="matplotlib.axis_7">
    <g id="xtick_22">
     <g id="line2d_34">
      <g>
       <use style="stroke:#000000;stroke-width:0.8;" x="350.030876" xlink:href="#m35163c72ec" y="228.14"/>
      </g>
     </g>
     <g id="text_31">
      <!-- −6 -->
      <g transform="translate(342.659782 242.738437)scale(0.1 -0.1)">
       <use xlink:href="#DejaVuSans-2212"/>
       <use x="83.789062" xlink:href="#DejaVuSans-36"/>
      </g>
     </g>
    </g>
    <g id="xtick_23">
     <g id="line2d_35">
      <g>
       <use style="stroke:#000000;stroke-width:0.8;" x="386.728586" xlink:href="#m35163c72ec" y="228.14"/>
      </g>
     </g>
     <g id="text_32">
      <!-- −4 -->
      <g transform="translate(379.357492 242.738437)scale(0.1 -0.1)">
       <use xlink:href="#DejaVuSans-2212"/>
       <use x="83.789062" xlink:href="#DejaVuSans-34"/>
      </g>
     </g>
    </g>
    <g id="xtick_24">
     <g id="line2d_36">
      <g>
       <use style="stroke:#000000;stroke-width:0.8;" x="423.426296" xlink:href="#m35163c72ec" y="228.14"/>
      </g>
     </g>
     <g id="text_33">
      <!-- −2 -->
      <g transform="translate(416.055202 242.738437)scale(0.1 -0.1)">
       <use xlink:href="#DejaVuSans-2212"/>
       <use x="83.789062" xlink:href="#DejaVuSans-32"/>
      </g>
     </g>
    </g>
    <g id="xtick_25">
     <g id="line2d_37">
      <g>
       <use style="stroke:#000000;stroke-width:0.8;" x="460.124006" xlink:href="#m35163c72ec" y="228.14"/>
      </g>
     </g>
     <g id="text_34">
      <!-- 0 -->
      <g transform="translate(456.942756 242.738437)scale(0.1 -0.1)">
       <use xlink:href="#DejaVuSans-30"/>
      </g>
     </g>
    </g>
    <g id="xtick_26">
     <g id="line2d_38">
      <g>
       <use style="stroke:#000000;stroke-width:0.8;" x="496.821716" xlink:href="#m35163c72ec" y="228.14"/>
      </g>
     </g>
     <g id="text_35">
      <!-- 2 -->
      <g transform="translate(493.640466 242.738437)scale(0.1 -0.1)">
       <use xlink:href="#DejaVuSans-32"/>
      </g>
     </g>
    </g>
    <g id="xtick_27">
     <g id="line2d_39">
      <g>
       <use style="stroke:#000000;stroke-width:0.8;" x="533.519426" xlink:href="#m35163c72ec" y="228.14"/>
      </g>
     </g>
     <g id="text_36">
      <!-- 4 -->
      <g transform="translate(530.338176 242.738437)scale(0.1 -0.1)">
       <use xlink:href="#DejaVuSans-34"/>
      </g>
     </g>
    </g>
    <g id="xtick_28">
     <g id="line2d_40">
      <g>
       <use style="stroke:#000000;stroke-width:0.8;" x="570.217136" xlink:href="#m35163c72ec" y="228.14"/>
      </g>
     </g>
     <g id="text_37">
      <!-- 6 -->
      <g transform="translate(567.035886 242.738437)scale(0.1 -0.1)">
       <use xlink:href="#DejaVuSans-36"/>
      </g>
     </g>
    </g>
   </g>
   <g id="matplotlib.axis_8">
    <g id="ytick_10">
     <g id="line2d_41">
      <g>
       <use style="stroke:#000000;stroke-width:0.8;" x="333.305824" xlink:href="#m3308513f80" y="223.653037"/>
      </g>
     </g>
     <g id="text_38">
      <!-- −1 -->
      <g transform="translate(311.563636 227.452255)scale(0.1 -0.1)">
       <use xlink:href="#DejaVuSans-2212"/>
       <use x="83.789062" xlink:href="#DejaVuSans-31"/>
      </g>
     </g>
    </g>
    <g id="ytick_11">
     <g id="line2d_42">
      <g>
       <use style="stroke:#000000;stroke-width:0.8;" x="333.305824" xlink:href="#m3308513f80" y="178.724617"/>
      </g>
     </g>
     <g id="text_39">
      <!-- 0 -->
      <g transform="translate(319.943324 182.523836)scale(0.1 -0.1)">
       <use xlink:href="#DejaVuSans-30"/>
      </g>
     </g>
    </g>
    <g id="ytick_12">
     <g id="line2d_43">
      <g>
       <use style="stroke:#000000;stroke-width:0.8;" x="333.305824" xlink:href="#m3308513f80" y="133.796198"/>
      </g>
     </g>
     <g id="text_40">
      <!-- 1 -->
      <g transform="translate(319.943324 137.595417)scale(0.1 -0.1)">
       <use xlink:href="#DejaVuSans-31"/>
      </g>
     </g>
    </g>
   </g>
   <g id="line2d_44">
    <path clip-path="url(#pb6fe23d330)" d="M 344.834749 133.796198 
L 345.993435 133.885747 
L 347.152121 134.154037 
L 348.310807 134.599998 
L 349.469493 135.221853 
L 350.628179 136.017123 
L 351.786865 136.982637 
L 352.945551 138.114547 
L 355.262923 140.858861 
L 357.580295 144.206349 
L 359.897667 148.103688 
L 362.215039 152.488797 
L 364.532411 157.291823 
L 368.008469 165.111074 
L 372.643213 176.243399 
L 379.595329 193.012373 
L 383.071387 200.778087 
L 385.388759 205.532933 
L 387.706131 209.860741 
L 390.023503 213.692574 
L 392.340875 216.967391 
L 394.658247 219.633029 
L 395.816933 220.723738 
L 396.975619 221.647025 
L 398.134305 222.399212 
L 399.292991 222.977298 
L 400.451677 223.378981 
L 401.610363 223.602658 
L 402.769049 223.647438 
L 403.927735 223.513143 
L 405.086421 223.200307 
L 406.245107 222.710178 
L 407.403793 222.04471 
L 408.562479 221.206555 
L 409.721165 220.199055 
L 410.879851 219.026225 
L 413.197223 216.20392 
L 415.514595 212.784596 
L 417.831967 208.822721 
L 420.149339 204.381405 
L 422.466711 199.531395 
L 425.942769 191.660557 
L 430.577513 180.497358 
L 437.529629 163.766211 
L 441.005687 156.055968 
L 443.323059 151.350489 
L 445.640431 147.081059 
L 447.957803 143.315689 
L 450.275175 140.114357 
L 452.592547 137.528059 
L 453.751233 136.478824 
L 454.909919 135.597993 
L 456.068605 134.889078 
L 457.227291 134.354903 
L 458.385977 133.9976 
L 459.544663 133.818591 
L 460.703349 133.818591 
L 461.862035 133.9976 
L 463.020721 134.354903 
L 464.179407 134.889078 
L 465.338093 135.597993 
L 466.496779 136.478824 
L 467.655465 137.528059 
L 469.972837 140.114357 
L 472.290209 143.315689 
L 474.607581 147.081059 
L 476.924953 151.350489 
L 479.242325 156.055968 
L 482.718383 163.766211 
L 487.353126 174.828475 
L 494.305242 191.660557 
L 497.7813 199.531395 
L 500.098672 204.381405 
L 502.416044 208.822721 
L 504.733416 212.784596 
L 507.050788 216.20392 
L 509.36816 219.026225 
L 510.526846 220.199055 
L 511.685532 221.206555 
L 512.844218 222.04471 
L 514.002904 222.710178 
L 515.16159 223.200307 
L 516.320276 223.513143 
L 517.478962 223.647438 
L 518.637648 223.602658 
L 519.796334 223.378981 
L 520.95502 222.977298 
L 522.113706 222.399212 
L 523.272392 221.647025 
L 524.431078 220.723738 
L 525.589764 219.633029 
L 527.907136 216.967391 
L 530.224508 213.692574 
L 532.54188 209.860741 
L 534.859252 205.532933 
L 537.176624 200.778087 
L 540.652682 193.012373 
L 545.287426 181.913695 
L 552.239542 165.111074 
L 555.7156 157.291823 
L 558.032972 152.488797 
L 560.350344 148.103688 
L 562.667716 144.206349 
L 564.985088 140.858861 
L 567.30246 138.114547 
L 568.461146 136.982637 
L 569.619832 136.017123 
L 570.778518 135.221853 
L 571.937204 134.599998 
L 573.09589 134.154037 
L 574.254576 133.885747 
L 575.413262 133.796198 
L 575.413262 133.796198 
" style="fill:none;stroke:#1f77b4;stroke-linecap:square;stroke-width:1.5;"/>
   </g>
   <g id="patch_18">
    <path d="M 333.305824 228.14 
L 333.305824 129.303636 
" style="fill:none;stroke:#000000;stroke-linecap:square;stroke-linejoin:miter;stroke-width:0.8;"/>
   </g>
   <g id="patch_19">
    <path d="M 586.942187 228.14 
L 586.942187 129.303636 
" style="fill:none;stroke:#000000;stroke-linecap:square;stroke-linejoin:miter;stroke-width:0.8;"/>
   </g>
   <g id="patch_20">
    <path d="M 333.305824 228.14 
L 586.942187 228.14 
" style="fill:none;stroke:#000000;stroke-linecap:square;stroke-linejoin:miter;stroke-width:0.8;"/>
   </g>
   <g id="patch_21">
    <path d="M 333.305824 129.303636 
L 586.942187 129.303636 
" style="fill:none;stroke:#000000;stroke-linecap:square;stroke-linejoin:miter;stroke-width:0.8;"/>
   </g>
  </g>
 </g>
 <defs>
  <clipPath id="p7d0688100b">
   <rect height="98.836364" width="253.636364" x="28.942188" y="10.7"/>
  </clipPath>
  <clipPath id="pa39f6d9380">
   <rect height="98.836364" width="253.636364" x="333.305824" y="10.7"/>
  </clipPath>
  <clipPath id="paaf147afea">
   <rect height="98.836364" width="253.636364" x="28.942188" y="129.303636"/>
  </clipPath>
  <clipPath id="pb6fe23d330">
   <rect height="98.836364" width="253.636364" x="333.305824" y="129.303636"/>
  </clipPath>
 </defs>
</svg>
