<?xml version="1.0" encoding="utf-8" standalone="no"?>
<!DOCTYPE svg PUBLIC "-//W3C//DTD SVG 1.1//EN"
  "http://www.w3.org/Graphics/SVG/1.1/DTD/svg11.dtd">
<!-- Created with matplotlib (http://matplotlib.org/) -->
<svg height="360pt" version="1.1" viewBox="0 0 597 360" width="597pt" xmlns="http://www.w3.org/2000/svg" xmlns:xlink="http://www.w3.org/1999/xlink">
 <defs>
  <style type="text/css">
*{stroke-linecap:butt;stroke-linejoin:round;}
  </style>
 </defs>
 <g id="figure_1">
  <g id="patch_1">
   <path d="M 0 360.738125 
L 597.642187 360.738125 
L 597.642187 0 
L 0 0 
z
" style="fill:#ffffff;"/>
  </g>
  <g id="axes_1">
   <g id="patch_2">
    <path d="M 28.942188 336.86 
L 586.942188 336.86 
L 586.942188 10.7 
L 28.942188 10.7 
z
" style="fill:#ffffff;"/>
   </g>
   <g id="PathCollection_1">
    <path clip-path="url(#pe7988fb593)" d="M 333.165477 344.508408 
C 340.522031 344.508408 347.578271 341.585618 352.78014 336.383749 
C 357.982009 331.18188 360.904799 324.12564 360.904799 316.769086 
C 360.904799 309.412532 357.982009 302.356293 352.78014 297.154424 
C 347.578271 291.952554 340.522031 289.029764 333.165477 289.029764 
C 325.808923 289.029764 318.752684 291.952554 313.550815 297.154424 
C 308.348945 302.356293 305.426155 309.412532 305.426155 316.769086 
C 305.426155 324.12564 308.348945 331.18188 313.550815 336.383749 
C 318.752684 341.585618 325.808923 344.508408 333.165477 344.508408 
z
" style="fill:#f67f4b;stroke:#f67f4b;"/>
    <path clip-path="url(#pe7988fb593)" d="M 370.2895 78.729233 
C 374.230662 78.729233 378.010936 77.163392 380.797759 74.376569 
C 383.584582 71.589746 385.150423 67.809473 385.150423 63.86831 
C 385.150423 59.927147 383.584582 56.146874 380.797759 53.360051 
C 378.010936 50.573228 374.230662 49.007387 370.2895 49.007387 
C 366.348337 49.007387 362.568063 50.573228 359.78124 53.360051 
C 356.994417 56.146874 355.428577 59.927147 355.428577 63.86831 
C 355.428577 67.809473 356.994417 71.589746 359.78124 74.376569 
C 362.568063 77.163392 366.348337 78.729233 370.2895 78.729233 
z
" style="fill:#e4f4f1;stroke:#e4f4f1;"/>
    <path clip-path="url(#pe7988fb593)" d="M 491.697576 225.970848 
C 492.974853 225.970848 494.199988 225.463381 495.103159 224.56021 
C 496.00633 223.657038 496.513798 222.431903 496.513798 221.154626 
C 496.513798 219.877349 496.00633 218.652214 495.103159 217.749043 
C 494.199988 216.845872 492.974853 216.338404 491.697576 216.338404 
C 490.420299 216.338404 489.195164 216.845872 488.291993 217.749043 
C 487.388821 218.652214 486.881354 219.877349 486.881354 221.154626 
C 486.881354 222.431903 487.388821 223.657038 488.291993 224.56021 
C 489.195164 225.463381 490.420299 225.970848 491.697576 225.970848 
z
" style="fill:#ecf8e2;stroke:#ecf8e2;"/>
    <path clip-path="url(#pe7988fb593)" d="M 338.502241 48.099554 
C 343.533863 48.099554 348.36008 46.10047 351.917974 42.542575 
C 355.475869 38.984681 357.474953 34.158464 357.474953 29.126842 
C 357.474953 24.09522 355.475869 19.269002 351.917974 15.711108 
C 348.36008 12.153214 343.533863 10.15413 338.502241 10.15413 
C 333.470619 10.15413 328.644401 12.153214 325.086507 15.711108 
C 321.528613 19.269002 319.529529 24.09522 319.529529 29.126842 
C 319.529529 34.158464 321.528613 38.984681 325.086507 42.542575 
C 328.644401 46.10047 333.470619 48.099554 338.502241 48.099554 
z
" style="fill:#aad8e9;stroke:#aad8e9;"/>
    <path clip-path="url(#pe7988fb593)" d="M 469.986165 171.70118 
C 470.665313 171.70118 471.316736 171.431351 471.796966 170.951121 
C 472.277196 170.470891 472.547024 169.819468 472.547024 169.14032 
C 472.547024 168.461172 472.277196 167.809749 471.796966 167.329519 
C 471.316736 166.849289 470.665313 166.57946 469.986165 166.57946 
C 469.307017 166.57946 468.655593 166.849289 468.175363 167.329519 
C 467.695133 167.809749 467.425305 168.461172 467.425305 169.14032 
C 467.425305 169.819468 467.695133 170.470891 468.175363 170.951121 
C 468.655593 171.431351 469.307017 171.70118 469.986165 171.70118 
z
" style="fill:#5588be;stroke:#5588be;"/>
    <path clip-path="url(#pe7988fb593)" d="M 447.18332 132.762288 
C 449.511492 132.762288 451.744622 131.837296 453.390888 130.191029 
C 455.037154 128.544763 455.962147 126.311633 455.962147 123.983461 
C 455.962147 121.655289 455.037154 119.422159 453.390888 117.775893 
C 451.744622 116.129627 449.511492 115.204634 447.18332 115.204634 
C 444.855148 115.204634 442.622018 116.129627 440.975752 117.775893 
C 439.329485 119.422159 438.404493 121.655289 438.404493 123.983461 
C 438.404493 126.311633 439.329485 128.544763 440.975752 130.191029 
C 442.622018 131.837296 444.855148 132.762288 447.18332 132.762288 
z
" style="fill:#fafdc9;stroke:#fafdc9;"/>
    <path clip-path="url(#pe7988fb593)" d="M 277.967782 213.364269 
C 281.08245 213.364269 284.069968 212.126798 286.272371 209.924395 
C 288.474774 207.721992 289.712245 204.734474 289.712245 201.619806 
C 289.712245 198.505138 288.474774 195.51762 286.272371 193.315217 
C 284.069968 191.112814 281.08245 189.875343 277.967782 189.875343 
C 274.853114 189.875343 271.865596 191.112814 269.663193 193.315217 
C 267.46079 195.51762 266.223319 198.505138 266.223319 201.619806 
C 266.223319 204.734474 267.46079 207.721992 269.663193 209.924395 
C 271.865596 212.126798 274.853114 213.364269 277.967782 213.364269 
z
" style="fill:#4f81ba;stroke:#4f81ba;"/>
    <path clip-path="url(#pe7988fb593)" d="M 462.418089 107.250165 
C 466.27695 107.250165 469.978282 105.717024 472.706909 102.988397 
C 475.435536 100.25977 476.968678 96.558438 476.968678 92.699576 
C 476.968678 88.840715 475.435536 85.139383 472.706909 82.410756 
C 469.978282 79.682129 466.27695 78.148987 462.418089 78.148987 
C 458.559227 78.148987 454.857896 79.682129 452.129268 82.410756 
C 449.400641 85.139383 447.8675 88.840715 447.8675 92.699576 
C 447.8675 96.558438 449.400641 100.25977 452.129268 102.988397 
C 454.857896 105.717024 458.559227 107.250165 462.418089 107.250165 
z
" style="fill:#4471b2;stroke:#4471b2;"/>
    <path clip-path="url(#pe7988fb593)" d="M 217.77268 235.952775 
C 222.368817 235.952775 226.777327 234.126711 230.027287 230.876751 
C 233.277247 227.626791 235.103311 223.218281 235.103311 218.622144 
C 235.103311 214.026006 233.277247 209.617496 230.027287 206.367536 
C 226.777327 203.117577 222.368817 201.291512 217.77268 201.291512 
C 213.176542 201.291512 208.768032 203.117577 205.518072 206.367536 
C 202.268113 209.617496 200.442048 214.026006 200.442048 218.622144 
C 200.442048 223.218281 202.268113 227.626791 205.518072 230.876751 
C 208.768032 234.126711 213.176542 235.952775 217.77268 235.952775 
z
" style="fill:#3a51a2;stroke:#3a51a2;"/>
    <path clip-path="url(#pe7988fb593)" d="M 303.662344 148.780887 
C 304.118451 148.780887 304.555938 148.599674 304.878455 148.277157 
C 305.200971 147.954641 305.382184 147.517154 305.382184 147.061047 
C 305.382184 146.60494 305.200971 146.167453 304.878455 145.844937 
C 304.555938 145.52242 304.118451 145.341207 303.662344 145.341207 
C 303.206237 145.341207 302.76875 145.52242 302.446234 145.844937 
C 302.123718 146.167453 301.942504 146.60494 301.942504 147.061047 
C 301.942504 147.517154 302.123718 147.954641 302.446234 148.277157 
C 302.76875 148.599674 303.206237 148.780887 303.662344 148.780887 
z
" style="fill:#fdfec2;stroke:#fdfec2;"/>
    <path clip-path="url(#pe7988fb593)" d="M 521.102965 100.725978 
C 526.17084 100.725978 531.03183 98.71249 534.615359 95.128961 
C 538.198888 91.545432 540.212376 86.684441 540.212376 81.616566 
C 540.212376 76.548691 538.198888 71.6877 534.615359 68.104171 
C 531.03183 64.520642 526.17084 62.507154 521.102965 62.507154 
C 516.035089 62.507154 511.174099 64.520642 507.59057 68.104171 
C 504.007041 71.6877 501.993553 76.548691 501.993553 81.616566 
C 501.993553 86.684441 504.007041 91.545432 507.59057 95.128961 
C 511.174099 98.71249 516.035089 100.725978 521.102965 100.725978 
z
" style="fill:#fffdbc;stroke:#fffdbc;"/>
    <path clip-path="url(#pe7988fb593)" d="M 205.917489 143.09382 
C 207.216776 143.09382 208.463022 142.577608 209.381756 141.658874 
C 210.30049 140.74014 210.816702 139.493894 210.816702 138.194607 
C 210.816702 136.895321 210.30049 135.649075 209.381756 134.730341 
C 208.463022 133.811607 207.216776 133.295395 205.917489 133.295395 
C 204.618203 133.295395 203.371957 133.811607 202.453223 134.730341 
C 201.534488 135.649075 201.018276 136.895321 201.018276 138.194607 
C 201.018276 139.493894 201.534488 140.74014 202.453223 141.658874 
C 203.371957 142.577608 204.618203 143.09382 205.917489 143.09382 
z
" style="fill:#90c3dd;stroke:#90c3dd;"/>
    <path clip-path="url(#pe7988fb593)" d="M 454.03086 144.94225 
C 455.838968 144.94225 457.573264 144.223881 458.851789 142.945355 
C 460.130315 141.66683 460.848684 139.932534 460.848684 138.124426 
C 460.848684 136.316318 460.130315 134.582021 458.851789 133.303496 
C 457.573264 132.024971 455.838968 131.306602 454.03086 131.306602 
C 452.222752 131.306602 450.488456 132.024971 449.20993 133.303496 
C 447.931405 134.582021 447.213036 136.316318 447.213036 138.124426 
C 447.213036 139.932534 447.931405 141.66683 449.20993 142.945355 
C 450.488456 144.223881 452.222752 144.94225 454.03086 144.94225 
z
" style="fill:#e5f5ef;stroke:#e5f5ef;"/>
    <path clip-path="url(#pe7988fb593)" d="M 340.541326 87.61204 
C 343.584779 87.61204 346.50399 86.402863 348.656036 84.250817 
C 350.808082 82.098771 352.017258 79.17956 352.017258 76.136108 
C 352.017258 73.092655 350.808082 70.173444 348.656036 68.021398 
C 346.50399 65.869352 343.584779 64.660175 340.541326 64.660175 
C 337.497873 64.660175 334.578663 65.869352 332.426617 68.021398 
C 330.274571 70.173444 329.065394 73.092655 329.065394 76.136108 
C 329.065394 79.17956 330.274571 82.098771 332.426617 84.250817 
C 334.578663 86.402863 337.497873 87.61204 340.541326 87.61204 
z
" style="fill:#cfebf3;stroke:#cfebf3;"/>
    <path clip-path="url(#pe7988fb593)" d="M 227.068405 182.935753 
C 229.609188 182.935753 232.046249 181.92629 233.842853 180.129685 
C 235.639458 178.333081 236.648921 175.89602 236.648921 173.355237 
C 236.648921 170.814455 235.639458 168.377394 233.842853 166.58079 
C 232.046249 164.784185 229.609188 163.774721 227.068405 163.774721 
C 224.527623 163.774721 222.090562 164.784185 220.293958 166.58079 
C 218.497353 168.377394 217.487889 170.814455 217.487889 173.355237 
C 217.487889 175.89602 218.497353 178.333081 220.293958 180.129685 
C 222.090562 181.92629 224.527623 182.935753 227.068405 182.935753 
z
" style="fill:#8abeda;stroke:#8abeda;"/>
    <path clip-path="url(#pe7988fb593)" d="M 431.393805 124.20195 
C 433.923689 124.20195 436.350296 123.196816 438.139195 121.407918 
C 439.928093 119.61902 440.933227 117.192412 440.933227 114.662528 
C 440.933227 112.132643 439.928093 109.706036 438.139195 107.917138 
C 436.350296 106.128239 433.923689 105.123106 431.393805 105.123106 
C 428.86392 105.123106 426.437313 106.128239 424.648415 107.917138 
C 422.859516 109.706036 421.854382 112.132643 421.854382 114.662528 
C 421.854382 117.192412 422.859516 119.61902 424.648415 121.407918 
C 426.437313 123.196816 428.86392 124.20195 431.393805 124.20195 
z
" style="fill:#fff1aa;stroke:#fff1aa;"/>
    <path clip-path="url(#pe7988fb593)" d="M 560.606079 184.88444 
C 561.963977 184.88444 563.266442 184.344941 564.226621 183.384762 
C 565.1868 182.424583 565.726299 181.122118 565.726299 179.76422 
C 565.726299 178.406322 565.1868 177.103857 564.226621 176.143678 
C 563.266442 175.183499 561.963977 174.644 560.606079 174.644 
C 559.248181 174.644 557.945716 175.183499 556.985537 176.143678 
C 556.025358 177.103857 555.485859 178.406322 555.485859 179.76422 
C 555.485859 181.122118 556.025358 182.424583 556.985537 183.384762 
C 557.945716 184.344941 559.248181 184.88444 560.606079 184.88444 
z
" style="fill:#e9f6e8;stroke:#e9f6e8;"/>
    <path clip-path="url(#pe7988fb593)" d="M 529.2678 207.153933 
C 529.446417 207.153933 529.617743 207.082968 529.744044 206.956666 
C 529.870345 206.830365 529.941311 206.659039 529.941311 206.480422 
C 529.941311 206.301805 529.870345 206.13048 529.744044 206.004178 
C 529.617743 205.877877 529.446417 205.806912 529.2678 205.806912 
C 529.089183 205.806912 528.917857 205.877877 528.791556 206.004178 
C 528.665255 206.13048 528.594289 206.301805 528.594289 206.480422 
C 528.594289 206.659039 528.665255 206.830365 528.791556 206.956666 
C 528.917857 207.082968 529.089183 207.153933 529.2678 207.153933 
z
" style="fill:#f57245;stroke:#f57245;"/>
    <path clip-path="url(#pe7988fb593)" d="M 546.30705 173.75555 
C 548.020122 173.75555 549.663263 173.074939 550.874588 171.863614 
C 552.085913 170.652288 552.766524 169.009148 552.766524 167.296075 
C 552.766524 165.583003 552.085913 163.939862 550.874588 162.728537 
C 549.663263 161.517212 548.020122 160.836601 546.30705 160.836601 
C 544.593977 160.836601 542.950836 161.517212 541.739511 162.728537 
C 540.528186 163.939862 539.847575 165.583003 539.847575 167.296075 
C 539.847575 169.009148 540.528186 170.652288 541.739511 171.863614 
C 542.950836 173.074939 544.593977 173.75555 546.30705 173.75555 
z
" style="fill:#a1d1e5;stroke:#a1d1e5;"/>
    <path clip-path="url(#pe7988fb593)" d="M 443.692632 177.318677 
C 443.692772 177.318677 443.692907 177.318622 443.693006 177.318522 
C 443.693105 177.318423 443.693161 177.318289 443.693161 177.318148 
C 443.693161 177.318008 443.693105 177.317873 443.693006 177.317774 
C 443.692907 177.317675 443.692772 177.317619 443.692632 177.317619 
C 443.692491 177.317619 443.692357 177.317675 443.692257 177.317774 
C 443.692158 177.317873 443.692102 177.318008 443.692102 177.318148 
C 443.692102 177.318289 443.692158 177.318423 443.692257 177.318522 
C 443.692357 177.318622 443.692491 177.318677 443.692632 177.318677 
z
" style="fill:#a3d3e6;stroke:#a3d3e6;"/>
    <path clip-path="url(#pe7988fb593)" d="M 480.924179 111.039062 
C 484.865627 111.039062 488.646174 109.473109 491.433198 106.686084 
C 494.220223 103.89906 495.786177 100.118513 495.786177 96.177065 
C 495.786177 92.235617 494.220223 88.45507 491.433198 85.668045 
C 488.646174 82.881021 484.865627 81.315067 480.924179 81.315067 
C 476.982731 81.315067 473.202184 82.881021 470.41516 85.668045 
C 467.628135 88.45507 466.062181 92.235617 466.062181 96.177065 
C 466.062181 100.118513 467.628135 103.89906 470.41516 106.686084 
C 473.202184 109.473109 476.982731 111.039062 480.924179 111.039062 
z
" style="fill:#578abf;stroke:#578abf;"/>
    <path clip-path="url(#pe7988fb593)" d="M 214.484007 194.643911 
C 217.592136 194.643911 220.573382 193.409038 222.771161 191.211259 
C 224.96894 189.01348 226.203813 186.032234 226.203813 182.924105 
C 226.203813 179.815976 224.96894 176.834729 222.771161 174.63695 
C 220.573382 172.439171 217.592136 171.204299 214.484007 171.204299 
C 211.375878 171.204299 208.394631 172.439171 206.196852 174.63695 
C 203.999073 176.834729 202.764201 179.815976 202.764201 182.924105 
C 202.764201 186.032234 203.999073 189.01348 206.196852 191.211259 
C 208.394631 193.409038 211.375878 194.643911 214.484007 194.643911 
z
" style="fill:#eff9dd;stroke:#eff9dd;"/>
    <path clip-path="url(#pe7988fb593)" d="M 236.631917 118.895133 
C 236.707919 118.895133 236.780819 118.864937 236.834561 118.811195 
C 236.888303 118.757453 236.9185 118.684553 236.9185 118.60855 
C 236.9185 118.532547 236.888303 118.459647 236.834561 118.405905 
C 236.780819 118.352163 236.707919 118.321967 236.631917 118.321967 
C 236.555914 118.321967 236.483014 118.352163 236.429272 118.405905 
C 236.37553 118.459647 236.345334 118.532547 236.345334 118.60855 
C 236.345334 118.684553 236.37553 118.757453 236.429272 118.811195 
C 236.483014 118.864937 236.555914 118.895133 236.631917 118.895133 
z
" style="fill:#b6dfec;stroke:#b6dfec;"/>
    <path clip-path="url(#pe7988fb593)" d="M 347.92516 96.125799 
C 350.643849 96.125799 353.251553 95.045653 355.173956 93.12325 
C 357.096359 91.200846 358.176506 88.593142 358.176506 85.874453 
C 358.176506 83.155765 357.096359 80.54806 355.173956 78.625657 
C 353.251553 76.703254 350.643849 75.623108 347.92516 75.623108 
C 345.206471 75.623108 342.598767 76.703254 340.676364 78.625657 
C 338.753961 80.54806 337.673814 83.155765 337.673814 85.874453 
C 337.673814 88.593142 338.753961 91.200846 340.676364 93.12325 
C 342.598767 95.045653 345.206471 96.125799 347.92516 96.125799 
z
" style="fill:#e1f3f6;stroke:#e1f3f6;"/>
    <path clip-path="url(#pe7988fb593)" d="M 380.029348 230.978279 
C 382.694192 230.978279 385.250249 229.919526 387.134578 228.035197 
C 389.018907 226.150868 390.077661 223.594811 390.077661 220.929967 
C 390.077661 218.265124 389.018907 215.709066 387.134578 213.824737 
C 385.250249 211.940408 382.694192 210.881655 380.029348 210.881655 
C 377.364505 210.881655 374.808448 211.940408 372.924119 213.824737 
C 371.03979 215.709066 369.981036 218.265124 369.981036 220.929967 
C 369.981036 223.594811 371.03979 226.150868 372.924119 228.035197 
C 374.808448 229.919526 377.364505 230.978279 380.029348 230.978279 
z
" style="fill:#5c90c2;stroke:#5c90c2;"/>
    <path clip-path="url(#pe7988fb593)" d="M 413.580635 109.032199 
C 416.619693 109.032199 419.534688 107.824768 421.683627 105.67583 
C 423.832565 103.526891 425.039996 100.611896 425.039996 97.572838 
C 425.039996 94.53378 423.832565 91.618785 421.683627 89.469846 
C 419.534688 87.320908 416.619693 86.113477 413.580635 86.113477 
C 410.541577 86.113477 407.626582 87.320908 405.477643 89.469846 
C 403.328705 91.618785 402.121274 94.53378 402.121274 97.572838 
C 402.121274 100.611896 403.328705 103.526891 405.477643 105.67583 
C 407.626582 107.824768 410.541577 109.032199 413.580635 109.032199 
z
" style="fill:#87bdd9;stroke:#87bdd9;"/>
    <path clip-path="url(#pe7988fb593)" d="M 435.38201 73.103859 
C 440.581885 73.103859 445.569486 71.037927 449.246353 67.36106 
C 452.923219 63.684193 454.989152 58.696592 454.989152 53.496717 
C 454.989152 48.296843 452.923219 43.309241 449.246353 39.632374 
C 445.569486 35.955508 440.581885 33.889576 435.38201 33.889576 
C 430.182135 33.889576 425.194534 35.955508 421.517667 39.632374 
C 417.8408 43.309241 415.774868 48.296843 415.774868 53.496717 
C 415.774868 58.696592 417.8408 63.684193 421.517667 67.36106 
C 425.194534 71.037927 430.182135 73.103859 435.38201 73.103859 
z
" style="fill:#e9f6e8;stroke:#e9f6e8;"/>
    <path clip-path="url(#pe7988fb593)" d="M 306.03202 247.13718 
C 310.089893 247.13718 313.982112 245.52497 316.851462 242.65562 
C 319.720812 239.786271 321.333022 235.894051 321.333022 231.836178 
C 321.333022 227.778305 319.720812 223.886085 316.851462 221.016736 
C 313.982112 218.147386 310.089893 216.535176 306.03202 216.535176 
C 301.974147 216.535176 298.081927 218.147386 295.212577 221.016736 
C 292.343228 223.886085 290.731018 227.778305 290.731018 231.836178 
C 290.731018 235.894051 292.343228 239.786271 295.212577 242.65562 
C 298.081927 245.52497 301.974147 247.13718 306.03202 247.13718 
z
" style="fill:#fca55d;stroke:#fca55d;"/>
    <path clip-path="url(#pe7988fb593)" d="M 456.46355 234.266531 
C 458.426307 234.266531 460.30894 233.48672 461.696819 232.098841 
C 463.084698 230.710961 463.86451 228.828329 463.86451 226.865572 
C 463.86451 224.902814 463.084698 223.020182 461.696819 221.632303 
C 460.30894 220.244424 458.426307 219.464612 456.46355 219.464612 
C 454.500792 219.464612 452.61816 220.244424 451.230281 221.632303 
C 449.842402 223.020182 449.06259 224.902814 449.06259 226.865572 
C 449.06259 228.828329 449.842402 230.710961 451.230281 232.098841 
C 452.61816 233.48672 454.500792 234.266531 456.46355 234.266531 
z
" style="fill:#fdc374;stroke:#fdc374;"/>
    <path clip-path="url(#pe7988fb593)" d="M 263.809163 109.785187 
C 264.574829 109.785187 265.309238 109.480985 265.850645 108.939577 
C 266.392053 108.39817 266.696255 107.663761 266.696255 106.898095 
C 266.696255 106.132429 266.392053 105.39802 265.850645 104.856613 
C 265.309238 104.315205 264.574829 104.011003 263.809163 104.011003 
C 263.043497 104.011003 262.309088 104.315205 261.767681 104.856613 
C 261.226273 105.39802 260.922071 106.132429 260.922071 106.898095 
C 260.922071 107.663761 261.226273 108.39817 261.767681 108.939577 
C 262.309088 109.480985 263.043497 109.785187 263.809163 109.785187 
z
" style="fill:#eaf7e6;stroke:#eaf7e6;"/>
    <path clip-path="url(#pe7988fb593)" d="M 386.252682 195.045727 
C 387.525326 195.045727 388.746018 194.5401 389.645914 193.640204 
C 390.54581 192.740308 391.051437 191.519616 391.051437 190.246971 
C 391.051437 188.974326 390.54581 187.753634 389.645914 186.853739 
C 388.746018 185.953843 387.525326 185.448216 386.252682 185.448216 
C 384.980037 185.448216 383.759345 185.953843 382.859449 186.853739 
C 381.959553 187.753634 381.453926 188.974326 381.453926 190.246971 
C 381.453926 191.519616 381.959553 192.740308 382.859449 193.640204 
C 383.759345 194.5401 384.980037 195.045727 386.252682 195.045727 
z
" style="fill:#eaf7e6;stroke:#eaf7e6;"/>
    <path clip-path="url(#pe7988fb593)" d="M 386.031789 179.523231 
C 386.734357 179.523231 387.408245 179.244097 387.905036 178.747306 
C 388.401827 178.250516 388.68096 177.576628 388.68096 176.874059 
C 388.68096 176.171491 388.401827 175.497603 387.905036 175.000812 
C 387.408245 174.504021 386.734357 174.224888 386.031789 174.224888 
C 385.32922 174.224888 384.655332 174.504021 384.158541 175.000812 
C 383.66175 175.497603 383.382617 176.171491 383.382617 176.874059 
C 383.382617 177.576628 383.66175 178.250516 384.158541 178.747306 
C 384.655332 179.244097 385.32922 179.523231 386.031789 179.523231 
z
" style="fill:#81b7d7;stroke:#81b7d7;"/>
    <path clip-path="url(#pe7988fb593)" d="M 348.828082 236.971767 
C 352.050062 236.971767 355.140512 235.691661 357.418796 233.413377 
C 359.69708 231.135093 360.977186 228.044643 360.977186 224.822663 
C 360.977186 221.600683 359.69708 218.510234 357.418796 216.23195 
C 355.140512 213.953666 352.050062 212.67356 348.828082 212.67356 
C 345.606102 212.67356 342.515652 213.953666 340.237369 216.23195 
C 337.959085 218.510234 336.678978 221.600683 336.678978 224.822663 
C 336.678978 228.044643 337.959085 231.135093 340.237369 233.413377 
C 342.515652 235.691661 345.606102 236.971767 348.828082 236.971767 
z
" style="fill:#bfe3ef;stroke:#bfe3ef;"/>
    <path clip-path="url(#pe7988fb593)" d="M 264.250945 190.213651 
C 266.659597 190.213651 268.969922 189.256683 270.673096 187.553509 
C 272.376271 185.850335 273.333238 183.54001 273.333238 181.131358 
C 273.333238 178.722705 272.376271 176.412381 270.673096 174.709207 
C 268.969922 173.006032 266.659597 172.049064 264.250945 172.049064 
C 261.842293 172.049064 259.531968 173.006032 257.828794 174.709207 
C 256.12562 176.412381 255.168652 178.722705 255.168652 181.131358 
C 255.168652 183.54001 256.12562 185.850335 257.828794 187.553509 
C 259.531968 189.256683 261.842293 190.213651 264.250945 190.213651 
z
" style="fill:#a50026;stroke:#a50026;"/>
    <path clip-path="url(#pe7988fb593)" d="M 406.570817 190.981751 
C 407.474718 190.981751 408.341719 190.622627 408.980874 189.983473 
C 409.620028 189.344318 409.979152 188.477317 409.979152 187.573416 
C 409.979152 186.669516 409.620028 185.802515 408.980874 185.16336 
C 408.341719 184.524206 407.474718 184.165082 406.570817 184.165082 
C 405.666916 184.165082 404.799915 184.524206 404.160761 185.16336 
C 403.521607 185.802515 403.162483 186.669516 403.162483 187.573416 
C 403.162483 188.477317 403.521607 189.344318 404.160761 189.983473 
C 404.799915 190.622627 405.666916 190.981751 406.570817 190.981751 
z
" style="fill:#9dcee3;stroke:#9dcee3;"/>
    <path clip-path="url(#pe7988fb593)" d="M 205.248357 128.024585 
C 205.999111 128.024585 206.719218 127.726307 207.250081 127.195443 
C 207.780945 126.66458 208.079222 125.944473 208.079222 125.193719 
C 208.079222 124.442964 207.780945 123.722858 207.250081 123.191994 
C 206.719218 122.661131 205.999111 122.362853 205.248357 122.362853 
C 204.497602 122.362853 203.777496 122.661131 203.246632 123.191994 
C 202.715769 123.722858 202.417491 124.442964 202.417491 125.193719 
C 202.417491 125.944473 202.715769 126.66458 203.246632 127.195443 
C 203.777496 127.726307 204.497602 128.024585 205.248357 128.024585 
z
" style="fill:#78b0d3;stroke:#78b0d3;"/>
    <path clip-path="url(#pe7988fb593)" d="M 411.088031 123.675198 
C 413.341818 123.675198 415.5036 122.779758 417.097268 121.18609 
C 418.690937 119.592421 419.586376 117.43064 419.586376 115.176852 
C 419.586376 112.923065 418.690937 110.761283 417.097268 109.167615 
C 415.5036 107.573946 413.341818 106.678507 411.088031 106.678507 
C 408.834243 106.678507 406.672461 107.573946 405.078793 109.167615 
C 403.485125 110.761283 402.589685 112.923065 402.589685 115.176852 
C 402.589685 117.43064 403.485125 119.592421 405.078793 121.18609 
C 406.672461 122.779758 408.834243 123.675198 411.088031 123.675198 
z
" style="fill:#83b9d8;stroke:#83b9d8;"/>
    <path clip-path="url(#pe7988fb593)" d="M 474.954574 131.645077 
C 477.75423 131.645077 480.439597 130.532762 482.419254 128.553105 
C 484.39891 126.573449 485.511225 123.888082 485.511225 121.088425 
C 485.511225 118.288769 484.39891 115.603402 482.419254 113.623745 
C 480.439597 111.644089 477.75423 110.531774 474.954574 110.531774 
C 472.154917 110.531774 469.46955 111.644089 467.489894 113.623745 
C 465.510237 115.603402 464.397922 118.288769 464.397922 121.088425 
C 464.397922 123.888082 465.510237 126.573449 467.489894 128.553105 
C 469.46955 130.532762 472.154917 131.645077 474.954574 131.645077 
z
" style="fill:#fdc374;stroke:#fdc374;"/>
    <path clip-path="url(#pe7988fb593)" d="M 487.643781 91.137373 
C 492.70223 91.137373 497.554178 89.12763 501.131041 85.550767 
C 504.707904 81.973904 506.717647 77.121955 506.717647 72.063507 
C 506.717647 67.005059 504.707904 62.15311 501.131041 58.576247 
C 497.554178 54.999384 492.70223 52.989641 487.643781 52.989641 
C 482.585333 52.989641 477.733384 54.999384 474.156521 58.576247 
C 470.579658 62.15311 468.569915 67.005059 468.569915 72.063507 
C 468.569915 77.121955 470.579658 81.973904 474.156521 85.550767 
C 477.733384 89.12763 482.585333 91.137373 487.643781 91.137373 
z
" style="fill:#7db4d5;stroke:#7db4d5;"/>
    <path clip-path="url(#pe7988fb593)" d="M 403.791984 84.629306 
C 407.931658 84.629306 411.90234 82.984596 414.829531 80.057404 
C 417.756723 77.130213 419.401433 73.159532 419.401433 69.019858 
C 419.401433 64.880183 417.756723 60.909502 414.829531 57.982311 
C 411.90234 55.055119 407.931658 53.410409 403.791984 53.410409 
C 399.65231 53.410409 395.681629 55.055119 392.754438 57.982311 
C 389.827246 60.909502 388.182536 64.880183 388.182536 69.019858 
C 388.182536 73.159532 389.827246 77.130213 392.754438 80.057404 
C 395.681629 82.984596 399.65231 84.629306 403.791984 84.629306 
z
" style="fill:#6297c6;stroke:#6297c6;"/>
    <path clip-path="url(#pe7988fb593)" d="M 452.094786 109.664438 
C 455.676261 109.664438 459.111531 108.241502 461.644016 105.709017 
C 464.176502 103.176531 465.599437 99.741262 465.599437 96.159786 
C 465.599437 92.578311 464.176502 89.143041 461.644016 86.610556 
C 459.111531 84.07807 455.676261 82.655135 452.094786 82.655135 
C 448.51331 82.655135 445.078041 84.07807 442.545555 86.610556 
C 440.01307 89.143041 438.590134 92.578311 438.590134 96.159786 
C 438.590134 99.741262 440.01307 103.176531 442.545555 105.709017 
C 445.078041 108.241502 448.51331 109.664438 452.094786 109.664438 
z
" style="fill:#fcaa5f;stroke:#fcaa5f;"/>
    <path clip-path="url(#pe7988fb593)" d="M 239.530335 104.045848 
C 240.226916 104.045848 240.89506 103.769094 241.387617 103.276537 
C 241.880174 102.78398 242.156928 102.115836 242.156928 101.419256 
C 242.156928 100.722675 241.880174 100.054531 241.387617 99.561974 
C 240.89506 99.069417 240.226916 98.792663 239.530335 98.792663 
C 238.833755 98.792663 238.165611 99.069417 237.673054 99.561974 
C 237.180497 100.054531 236.903743 100.722675 236.903743 101.419256 
C 236.903743 102.115836 237.180497 102.78398 237.673054 103.276537 
C 238.165611 103.769094 238.833755 104.045848 239.530335 104.045848 
z
" style="fill:#fff0a8;stroke:#fff0a8;"/>
    <path clip-path="url(#pe7988fb593)" d="M 257.066386 123.573153 
C 257.094789 123.573153 257.122032 123.561868 257.142115 123.541785 
C 257.162199 123.521701 257.173483 123.494458 257.173483 123.466056 
C 257.173483 123.437653 257.162199 123.41041 257.142115 123.390326 
C 257.122032 123.370243 257.094789 123.358958 257.066386 123.358958 
C 257.037984 123.358958 257.01074 123.370243 256.990657 123.390326 
C 256.970573 123.41041 256.959289 123.437653 256.959289 123.466056 
C 256.959289 123.494458 256.970573 123.521701 256.990657 123.541785 
C 257.01074 123.561868 257.037984 123.573153 257.066386 123.573153 
z
" style="fill:#b9e0ed;stroke:#b9e0ed;"/>
    <path clip-path="url(#pe7988fb593)" d="M 378.515476 73.843371 
C 382.828996 73.843371 386.966425 72.129592 390.016544 69.079473 
C 393.066663 66.029354 394.780443 61.891924 394.780443 57.578405 
C 394.780443 53.264885 393.066663 49.127456 390.016544 46.077337 
C 386.966425 43.027218 382.828996 41.313438 378.515476 41.313438 
C 374.201957 41.313438 370.064527 43.027218 367.014408 46.077337 
C 363.964289 49.127456 362.25051 53.264885 362.25051 57.578405 
C 362.25051 61.891924 363.964289 66.029354 367.014408 69.079473 
C 370.064527 72.129592 374.201957 73.843371 378.515476 73.843371 
z
" style="fill:#bfe3ef;stroke:#bfe3ef;"/>
    <path clip-path="url(#pe7988fb593)" d="M 345.00355 235.913175 
C 348.227688 235.913175 351.320208 234.632212 353.600018 232.352402 
C 355.879828 230.072592 357.160792 226.980072 357.160792 223.755934 
C 357.160792 220.531796 355.879828 217.439276 353.600018 215.159466 
C 351.320208 212.879656 348.227688 211.598692 345.00355 211.598692 
C 341.779412 211.598692 338.686892 212.879656 336.407082 215.159466 
C 334.127272 217.439276 332.846308 220.531796 332.846308 223.755934 
C 332.846308 226.980072 334.127272 230.072592 336.407082 232.352402 
C 338.686892 234.632212 341.779412 235.913175 345.00355 235.913175 
z
" style="fill:#a1d1e5;stroke:#a1d1e5;"/>
    <path clip-path="url(#pe7988fb593)" d="M 337.867449 320.931546 
C 344.30386 320.931546 350.477518 318.374333 355.028748 313.823103 
C 359.579977 309.271874 362.13719 303.098215 362.13719 296.661805 
C 362.13719 290.225394 359.579977 284.051736 355.028748 279.500506 
C 350.477518 274.949277 344.30386 272.392064 337.867449 272.392064 
C 331.431039 272.392064 325.25738 274.949277 320.706151 279.500506 
C 316.154921 284.051736 313.597708 290.225394 313.597708 296.661805 
C 313.597708 303.098215 316.154921 309.271874 320.706151 313.823103 
C 325.25738 318.374333 331.431039 320.931546 337.867449 320.931546 
z
" style="fill:#feffc0;stroke:#feffc0;"/>
    <path clip-path="url(#pe7988fb593)" d="M 362.467661 243.240372 
C 365.773895 243.240372 368.94516 241.926791 371.28302 239.58893 
C 373.620881 237.25107 374.934462 234.079805 374.934462 230.773571 
C 374.934462 227.467337 373.620881 224.296072 371.28302 221.958212 
C 368.94516 219.620351 365.773895 218.306771 362.467661 218.306771 
C 359.161427 218.306771 355.990162 219.620351 353.652302 221.958212 
C 351.314441 224.296072 350.00086 227.467337 350.00086 230.773571 
C 350.00086 234.079805 351.314441 237.25107 353.652302 239.58893 
C 355.990162 241.926791 359.161427 243.240372 362.467661 243.240372 
z
" style="fill:#7ab2d4;stroke:#7ab2d4;"/>
    <path clip-path="url(#pe7988fb593)" d="M 450.449041 122.375063 
C 453.356603 122.375063 456.145471 121.219876 458.201428 119.163919 
C 460.257385 117.107962 461.412571 114.319095 461.412571 111.411532 
C 461.412571 108.50397 460.257385 105.715103 458.201428 103.659146 
C 456.145471 101.603189 453.356603 100.448002 450.449041 100.448002 
C 447.541479 100.448002 444.752612 101.603189 442.696655 103.659146 
C 440.640698 105.715103 439.485511 108.50397 439.485511 111.411532 
C 439.485511 114.319095 440.640698 117.107962 442.696655 119.163919 
C 444.752612 121.219876 447.541479 122.375063 450.449041 122.375063 
z
" style="fill:#fffebe;stroke:#fffebe;"/>
    <path clip-path="url(#pe7988fb593)" d="M 363.98679 118.160561 
C 365.819451 118.160561 367.577298 117.432437 368.873186 116.13655 
C 370.169073 114.840662 370.897197 113.082815 370.897197 111.250154 
C 370.897197 109.417492 370.169073 107.659645 368.873186 106.363758 
C 367.577298 105.06787 365.819451 104.339746 363.98679 104.339746 
C 362.154128 104.339746 360.396281 105.06787 359.100394 106.363758 
C 357.804506 107.659645 357.076382 109.417492 357.076382 111.250154 
C 357.076382 113.082815 357.804506 114.840662 359.100394 116.13655 
C 360.396281 117.432437 362.154128 118.160561 363.98679 118.160561 
z
" style="fill:#f16640;stroke:#f16640;"/>
    <path clip-path="url(#pe7988fb593)" d="M 521.487975 67.742269 
C 528.246653 67.742269 534.729423 65.057018 539.50853 60.277911 
C 544.287637 55.498803 546.972889 49.016033 546.972889 42.257355 
C 546.972889 35.498677 544.287637 29.015907 539.50853 24.2368 
C 534.729423 19.457693 528.246653 16.772441 521.487975 16.772441 
C 514.729297 16.772441 508.246527 19.457693 503.467419 24.2368 
C 498.688312 29.015907 496.003061 35.498677 496.003061 42.257355 
C 496.003061 49.016033 498.688312 55.498803 503.467419 60.277911 
C 508.246527 65.057018 514.729297 67.742269 521.487975 67.742269 
z
" style="fill:#6ba2cb;stroke:#6ba2cb;"/>
    <path clip-path="url(#pe7988fb593)" d="M 247.043963 139.181666 
C 247.755955 139.181666 248.438883 138.898788 248.942338 138.395333 
C 249.445792 137.891878 249.72867 137.208951 249.72867 136.496958 
C 249.72867 135.784965 249.445792 135.102038 248.942338 134.598583 
C 248.438883 134.095128 247.755955 133.81225 247.043963 133.81225 
C 246.33197 133.81225 245.649043 134.095128 245.145588 134.598583 
C 244.642133 135.102038 244.359255 135.784965 244.359255 136.496958 
C 244.359255 137.208951 244.642133 137.891878 245.145588 138.395333 
C 245.649043 138.898788 246.33197 139.181666 247.043963 139.181666 
z
" style="fill:#578abf;stroke:#578abf;"/>
    <path clip-path="url(#pe7988fb593)" d="M 375.73834 117.577117 
C 377.776167 117.577117 379.730805 116.767479 381.171767 115.326518 
C 382.612728 113.885556 383.422366 111.930918 383.422366 109.893091 
C 383.422366 107.855263 382.612728 105.900625 381.171767 104.459664 
C 379.730805 103.018702 377.776167 102.209064 375.73834 102.209064 
C 373.700512 102.209064 371.745874 103.018702 370.304913 104.459664 
C 368.863951 105.900625 368.054313 107.855263 368.054313 109.893091 
C 368.054313 111.930918 368.863951 113.885556 370.304913 115.326518 
C 371.745874 116.767479 373.700512 117.577117 375.73834 117.577117 
z
" style="fill:#36459c;stroke:#36459c;"/>
    <path clip-path="url(#pe7988fb593)" d="M 442.407956 154.629486 
C 443.547727 154.629486 444.64097 154.17665 445.44691 153.37071 
C 446.25285 152.564771 446.705685 151.471528 446.705685 150.331757 
C 446.705685 149.191986 446.25285 148.098744 445.44691 147.292804 
C 444.64097 146.486864 443.547727 146.034028 442.407956 146.034028 
C 441.268185 146.034028 440.174943 146.486864 439.369003 147.292804 
C 438.563063 148.098744 438.110227 149.191986 438.110227 150.331757 
C 438.110227 151.471528 438.563063 152.564771 439.369003 153.37071 
C 440.174943 154.17665 441.268185 154.629486 442.407956 154.629486 
z
" style="fill:#578abf;stroke:#578abf;"/>
    <path clip-path="url(#pe7988fb593)" d="M 361.721199 126.308889 
C 363.103774 126.308889 364.429909 125.759586 365.407538 124.781958 
C 366.385166 123.804329 366.934469 122.478194 366.934469 121.095619 
C 366.934469 119.713043 366.385166 118.386909 365.407538 117.40928 
C 364.429909 116.431652 363.103774 115.882348 361.721199 115.882348 
C 360.338623 115.882348 359.012488 116.431652 358.03486 117.40928 
C 357.057231 118.386909 356.507928 119.713043 356.507928 121.095619 
C 356.507928 122.478194 357.057231 123.804329 358.03486 124.781958 
C 359.012488 125.759586 360.338623 126.308889 361.721199 126.308889 
z
" style="fill:#def2f7;stroke:#def2f7;"/>
    <path clip-path="url(#pe7988fb593)" d="M 484.917797 215.185271 
C 485.870344 215.185271 486.784005 214.80682 487.457557 214.133268 
C 488.13111 213.459716 488.50956 212.546055 488.50956 211.593508 
C 488.50956 210.640961 488.13111 209.7273 487.457557 209.053748 
C 486.784005 208.380196 485.870344 208.001745 484.917797 208.001745 
C 483.965251 208.001745 483.05159 208.380196 482.378037 209.053748 
C 481.704485 209.7273 481.326034 210.640961 481.326034 211.593508 
C 481.326034 212.546055 481.704485 213.459716 482.378037 214.133268 
C 483.05159 214.80682 483.965251 215.185271 484.917797 215.185271 
z
" style="fill:#e0f3f8;stroke:#e0f3f8;"/>
    <path clip-path="url(#pe7988fb593)" d="M 249.121886 133.767317 
C 249.611819 133.767317 250.081751 133.572664 250.428186 133.226229 
C 250.774621 132.879795 250.969273 132.409862 250.969273 131.919929 
C 250.969273 131.429996 250.774621 130.960064 250.428186 130.613629 
C 250.081751 130.267194 249.611819 130.072542 249.121886 130.072542 
C 248.631953 130.072542 248.162021 130.267194 247.815586 130.613629 
C 247.469151 130.960064 247.274499 131.429996 247.274499 131.919929 
C 247.274499 132.409862 247.469151 132.879795 247.815586 133.226229 
C 248.162021 133.572664 248.631953 133.767317 249.121886 133.767317 
z
" style="fill:#b4deec;stroke:#b4deec;"/>
    <path clip-path="url(#pe7988fb593)" d="M 272.074881 129.488259 
C 272.159755 129.488259 272.241165 129.454539 272.30118 129.394524 
C 272.361195 129.334509 272.394915 129.253099 272.394915 129.168225 
C 272.394915 129.083351 272.361195 129.001942 272.30118 128.941927 
C 272.241165 128.881912 272.159755 128.848191 272.074881 128.848191 
C 271.990007 128.848191 271.908598 128.881912 271.848583 128.941927 
C 271.788568 129.001942 271.754847 129.083351 271.754847 129.168225 
C 271.754847 129.253099 271.788568 129.334509 271.848583 129.394524 
C 271.908598 129.454539 271.990007 129.488259 272.074881 129.488259 
z
" style="fill:#fdb96b;stroke:#fdb96b;"/>
    <path clip-path="url(#pe7988fb593)" d="M 519.144378 196.457256 
C 519.292348 196.457256 519.434278 196.398467 519.538908 196.293836 
C 519.643539 196.189206 519.702328 196.047276 519.702328 195.899306 
C 519.702328 195.751336 519.643539 195.609406 519.538908 195.504776 
C 519.434278 195.400145 519.292348 195.341356 519.144378 195.341356 
C 518.996408 195.341356 518.854478 195.400145 518.749848 195.504776 
C 518.645217 195.609406 518.586428 195.751336 518.586428 195.899306 
C 518.586428 196.047276 518.645217 196.189206 518.749848 196.293836 
C 518.854478 196.398467 518.996408 196.457256 519.144378 196.457256 
z
" style="fill:#b0dcea;stroke:#b0dcea;"/>
    <path clip-path="url(#pe7988fb593)" d="M 350.712485 163.898208 
C 351.219278 163.898208 351.705382 163.696857 352.063739 163.3385 
C 352.422096 162.980143 352.623447 162.494039 352.623447 161.987245 
C 352.623447 161.480452 352.422096 160.994348 352.063739 160.635991 
C 351.705382 160.277634 351.219278 160.076283 350.712485 160.076283 
C 350.205691 160.076283 349.719587 160.277634 349.36123 160.635991 
C 349.002873 160.994348 348.801522 161.480452 348.801522 161.987245 
C 348.801522 162.494039 349.002873 162.980143 349.36123 163.3385 
C 349.719587 163.696857 350.205691 163.898208 350.712485 163.898208 
z
" style="fill:#fee79b;stroke:#fee79b;"/>
    <path clip-path="url(#pe7988fb593)" d="M 420.295317 189.903373 
C 421.011607 189.903373 421.698656 189.618788 422.205149 189.112294 
C 422.711643 188.605801 422.996228 187.918752 422.996228 187.202462 
C 422.996228 186.486171 422.711643 185.799122 422.205149 185.292629 
C 421.698656 184.786135 421.011607 184.50155 420.295317 184.50155 
C 419.579027 184.50155 418.891978 184.786135 418.385484 185.292629 
C 417.87899 185.799122 417.594405 186.486171 417.594405 187.202462 
C 417.594405 187.918752 417.87899 188.605801 418.385484 189.112294 
C 418.891978 189.618788 419.579027 189.903373 420.295317 189.903373 
z
" style="fill:#fffdbc;stroke:#fffdbc;"/>
    <path clip-path="url(#pe7988fb593)" d="M 383.677918 295.684857 
C 388.68978 295.684857 393.497044 293.693623 397.040966 290.149701 
C 400.584887 286.60578 402.576121 281.798516 402.576121 276.786654 
C 402.576121 271.774792 400.584887 266.967528 397.040966 263.423607 
C 393.497044 259.879685 388.68978 257.888451 383.677918 257.888451 
C 378.666057 257.888451 373.858793 259.879685 370.314871 263.423607 
C 366.77095 266.967528 364.779716 271.774792 364.779716 276.786654 
C 364.779716 281.798516 366.77095 286.60578 370.314871 290.149701 
C 373.858793 293.693623 378.666057 295.684857 383.677918 295.684857 
z
" style="fill:#def2f7;stroke:#def2f7;"/>
    <path clip-path="url(#pe7988fb593)" d="M 263.158194 124.557056 
C 263.159487 124.557056 263.160727 124.556542 263.161641 124.555628 
C 263.162555 124.554714 263.163069 124.553474 263.163069 124.552181 
C 263.163069 124.550888 263.162555 124.549648 263.161641 124.548733 
C 263.160727 124.547819 263.159487 124.547306 263.158194 124.547306 
C 263.156901 124.547306 263.155661 124.547819 263.154747 124.548733 
C 263.153832 124.549648 263.153319 124.550888 263.153319 124.552181 
C 263.153319 124.553474 263.153832 124.554714 263.154747 124.555628 
C 263.155661 124.556542 263.156901 124.557056 263.158194 124.557056 
z
" style="fill:#fec87a;stroke:#fec87a;"/>
    <path clip-path="url(#pe7988fb593)" d="M 307.285574 100.089938 
C 309.195311 100.089938 311.027087 99.331191 312.377476 97.980803 
C 313.727864 96.630414 314.486611 94.798638 314.486611 92.8889 
C 314.486611 90.979163 313.727864 89.147386 312.377476 87.796998 
C 311.027087 86.44661 309.195311 85.687863 307.285574 85.687863 
C 305.375836 85.687863 303.54406 86.44661 302.193671 87.796998 
C 300.843283 89.147386 300.084536 90.979163 300.084536 92.8889 
C 300.084536 94.798638 300.843283 96.630414 302.193671 97.980803 
C 303.54406 99.331191 305.375836 100.089938 307.285574 100.089938 
z
" style="fill:#e9f6e8;stroke:#e9f6e8;"/>
    <path clip-path="url(#pe7988fb593)" d="M 403.93805 227.044154 
C 406.20026 227.044154 408.370121 226.145368 409.969745 224.545743 
C 411.56937 222.946119 412.468156 220.776258 412.468156 218.514048 
C 412.468156 216.251837 411.56937 214.081977 409.969745 212.482352 
C 408.370121 210.882728 406.20026 209.983942 403.93805 209.983942 
C 401.675839 209.983942 399.505979 210.882728 397.906354 212.482352 
C 396.30673 214.081977 395.407944 216.251837 395.407944 218.514048 
C 395.407944 220.776258 396.30673 222.946119 397.906354 224.545743 
C 399.505979 226.145368 401.675839 227.044154 403.93805 227.044154 
z
" style="fill:#9fd0e4;stroke:#9fd0e4;"/>
    <path clip-path="url(#pe7988fb593)" d="M 463.009435 326.475199 
C 468.302253 326.475199 473.379004 324.37234 477.121592 320.629752 
C 480.86418 316.887165 482.967039 311.810414 482.967039 306.517595 
C 482.967039 301.224777 480.86418 296.148026 477.121592 292.405438 
C 473.379004 288.66285 468.302253 286.559991 463.009435 286.559991 
C 457.716617 286.559991 452.639866 288.66285 448.897278 292.405438 
C 445.15469 296.148026 443.051831 301.224777 443.051831 306.517595 
C 443.051831 311.810414 445.15469 316.887165 448.897278 320.629752 
C 452.639866 324.37234 457.716617 326.475199 463.009435 326.475199 
z
" style="fill:#5c90c2;stroke:#5c90c2;"/>
    <path clip-path="url(#pe7988fb593)" d="M 168.239208 192.344098 
C 171.760673 192.344098 175.138383 190.945005 177.628435 188.454953 
C 180.118487 185.964901 181.51758 182.587191 181.51758 179.065726 
C 181.51758 175.54426 180.118487 172.16655 177.628435 169.676498 
C 175.138383 167.186446 171.760673 165.787353 168.239208 165.787353 
C 164.717742 165.787353 161.340032 167.186446 158.84998 169.676498 
C 156.359928 172.16655 154.960835 175.54426 154.960835 179.065726 
C 154.960835 182.587191 156.359928 185.964901 158.84998 188.454953 
C 161.340032 190.945005 164.717742 192.344098 168.239208 192.344098 
z
" style="fill:#f6fbd0;stroke:#f6fbd0;"/>
    <path clip-path="url(#pe7988fb593)" d="M 358.032627 132.141135 
C 359.062205 132.141135 360.049754 131.732079 360.777776 131.004057 
C 361.505798 130.276035 361.914853 129.288486 361.914853 128.258908 
C 361.914853 127.229329 361.505798 126.241781 360.777776 125.513759 
C 360.049754 124.785737 359.062205 124.376681 358.032627 124.376681 
C 357.003048 124.376681 356.0155 124.785737 355.287478 125.513759 
C 354.559456 126.241781 354.1504 127.229329 354.1504 128.258908 
C 354.1504 129.288486 354.559456 130.276035 355.287478 131.004057 
C 356.0155 131.732079 357.003048 132.141135 358.032627 132.141135 
z
" style="fill:#d1ecf4;stroke:#d1ecf4;"/>
    <path clip-path="url(#pe7988fb593)" d="M 446.309982 154.672553 
C 447.50578 154.672553 448.652762 154.197458 449.498318 153.351901 
C 450.343875 152.506344 450.81897 151.359362 450.81897 150.163565 
C 450.81897 148.967767 450.343875 147.820785 449.498318 146.975228 
C 448.652762 146.129672 447.50578 145.654576 446.309982 145.654576 
C 445.114184 145.654576 443.967202 146.129672 443.121645 146.975228 
C 442.276089 147.820785 441.800993 148.967767 441.800993 150.163565 
C 441.800993 151.359362 442.276089 152.506344 443.121645 153.351901 
C 443.967202 154.197458 445.114184 154.672553 446.309982 154.672553 
z
" style="fill:#feefa6;stroke:#feefa6;"/>
    <path clip-path="url(#pe7988fb593)" d="M 342.210704 96.980938 
C 344.800433 96.980938 347.284443 95.952027 349.115658 94.120812 
C 350.946873 92.289597 351.975783 89.805587 351.975783 87.215858 
C 351.975783 84.626129 350.946873 82.142119 349.115658 80.310904 
C 347.284443 78.479689 344.800433 77.450778 342.210704 77.450778 
C 339.620975 77.450778 337.136965 78.479689 335.30575 80.310904 
C 333.474535 82.142119 332.445624 84.626129 332.445624 87.215858 
C 332.445624 89.805587 333.474535 92.289597 335.30575 94.120812 
C 337.136965 95.952027 339.620975 96.980938 342.210704 96.980938 
z
" style="fill:#94c7df;stroke:#94c7df;"/>
    <path clip-path="url(#pe7988fb593)" d="M 344.55735 59.385581 
C 349.102752 59.385581 353.462598 57.579673 356.676683 54.365589 
C 359.890767 51.151504 361.696675 46.791658 361.696675 42.246256 
C 361.696675 37.700854 359.890767 33.341008 356.676683 30.126923 
C 353.462598 26.912838 349.102752 25.106931 344.55735 25.106931 
C 340.011948 25.106931 335.652102 26.912838 332.438017 30.126923 
C 329.223932 33.341008 327.418025 37.700854 327.418025 42.246256 
C 327.418025 46.791658 329.223932 51.151504 332.438017 54.365589 
C 335.652102 57.579673 340.011948 59.385581 344.55735 59.385581 
z
" style="fill:#aedbea;stroke:#aedbea;"/>
    <path clip-path="url(#pe7988fb593)" d="M 491.729873 161.061723 
C 493.27703 161.061723 494.761027 160.447031 495.855032 159.353026 
C 496.949037 158.259022 497.563728 156.775024 497.563728 155.227868 
C 497.563728 153.680711 496.949037 152.196714 495.855032 151.102709 
C 494.761027 150.008704 493.27703 149.394012 491.729873 149.394012 
C 490.182717 149.394012 488.698719 150.008704 487.604714 151.102709 
C 486.51071 152.196714 485.896018 153.680711 485.896018 155.227868 
C 485.896018 156.775024 486.51071 158.259022 487.604714 159.353026 
C 488.698719 160.447031 490.182717 161.061723 491.729873 161.061723 
z
" style="fill:#fba35c;stroke:#fba35c;"/>
    <path clip-path="url(#pe7988fb593)" d="M 541.369684 244.895403 
C 542.809811 244.895403 544.191148 244.323235 545.209471 243.304911 
C 546.227795 242.286588 546.799963 240.905251 546.799963 239.465125 
C 546.799963 238.024998 546.227795 236.643661 545.209471 235.625338 
C 544.191148 234.607014 542.809811 234.034846 541.369684 234.034846 
C 539.929558 234.034846 538.548221 234.607014 537.529897 235.625338 
C 536.511574 236.643661 535.939406 238.024998 535.939406 239.465125 
C 535.939406 240.905251 536.511574 242.286588 537.529897 243.304911 
C 538.548221 244.323235 539.929558 244.895403 541.369684 244.895403 
z
" style="fill:#e2f4f4;stroke:#e2f4f4;"/>
    <path clip-path="url(#pe7988fb593)" d="M 59.394133 257.72094 
C 66.499124 257.72094 73.31407 254.898097 78.338057 249.874109 
C 83.362045 244.850122 86.184888 238.035176 86.184888 230.930185 
C 86.184888 223.825194 83.362045 217.010248 78.338057 211.986261 
C 73.31407 206.962273 66.499124 204.13943 59.394133 204.13943 
C 52.289142 204.13943 45.474196 206.962273 40.450209 211.986261 
C 35.426221 217.010248 32.603378 223.825194 32.603378 230.930185 
C 32.603378 238.035176 35.426221 244.850122 40.450209 249.874109 
C 45.474196 254.898097 52.289142 257.72094 59.394133 257.72094 
z
" style="fill:#f8fccb;stroke:#f8fccb;"/>
    <path clip-path="url(#pe7988fb593)" d="M 526.862677 149.828111 
C 529.507991 149.828111 532.045316 148.777116 533.915836 146.906597 
C 535.786355 145.036077 536.83735 142.498752 536.83735 139.853438 
C 536.83735 137.208123 535.786355 134.670798 533.915836 132.800279 
C 532.045316 130.929759 529.507991 129.878765 526.862677 129.878765 
C 524.217363 129.878765 521.680038 130.929759 519.809518 132.800279 
C 517.938998 134.670798 516.888004 137.208123 516.888004 139.853438 
C 516.888004 142.498752 517.938998 145.036077 519.809518 146.906597 
C 521.680038 148.777116 524.217363 149.828111 526.862677 149.828111 
z
" style="fill:#eff9dd;stroke:#eff9dd;"/>
    <path clip-path="url(#pe7988fb593)" d="M 320.048097 194.295405 
C 322.006231 194.295405 323.884428 193.51743 325.269037 192.132821 
C 326.653647 190.748211 327.431621 188.870014 327.431621 186.911881 
C 327.431621 184.953747 326.653647 183.07555 325.269037 181.690941 
C 323.884428 180.306331 322.006231 179.528357 320.048097 179.528357 
C 318.089964 179.528357 316.211767 180.306331 314.827158 181.690941 
C 313.442548 183.07555 312.664573 184.953747 312.664573 186.911881 
C 312.664573 188.870014 313.442548 190.748211 314.827158 192.132821 
C 316.211767 193.51743 318.089964 194.295405 320.048097 194.295405 
z
" style="fill:#fff0a8;stroke:#fff0a8;"/>
    <path clip-path="url(#pe7988fb593)" d="M 378.807667 238.873846 
C 381.776852 238.873846 384.624826 237.694177 386.724357 235.594646 
C 388.823888 233.495115 390.003558 230.64714 390.003558 227.677955 
C 390.003558 224.70877 388.823888 221.860795 386.724357 219.761265 
C 384.624826 217.661734 381.776852 216.482064 378.807667 216.482064 
C 375.838482 216.482064 372.990507 217.661734 370.890976 219.761265 
C 368.791445 221.860795 367.611775 224.70877 367.611775 227.677955 
C 367.611775 230.64714 368.791445 233.495115 370.890976 235.594646 
C 372.990507 237.694177 375.838482 238.873846 378.807667 238.873846 
z
" style="fill:#f57748;stroke:#f57748;"/>
    <path clip-path="url(#pe7988fb593)" d="M 182.833358 241.646625 
C 188.015848 241.646625 192.986774 239.5876 196.651348 235.923026 
C 200.315921 232.258452 202.374946 227.287526 202.374946 222.105036 
C 202.374946 216.922546 200.315921 211.95162 196.651348 208.287046 
C 192.986774 204.622473 188.015848 202.563448 182.833358 202.563448 
C 177.650868 202.563448 172.679942 204.622473 169.015368 208.287046 
C 165.350794 211.95162 163.291769 216.922546 163.291769 222.105036 
C 163.291769 227.287526 165.350794 232.258452 169.015368 235.923026 
C 172.679942 239.5876 177.650868 241.646625 182.833358 241.646625 
z
" style="fill:#e2f4f4;stroke:#e2f4f4;"/>
    <path clip-path="url(#pe7988fb593)" d="M 369.384269 80.973703 
C 373.197259 80.973703 376.854593 79.458786 379.550784 76.762594 
C 382.246975 74.066403 383.761892 70.40907 383.761892 66.596079 
C 383.761892 62.783089 382.246975 59.125756 379.550784 56.429564 
C 376.854593 53.733373 373.197259 52.218456 369.384269 52.218456 
C 365.571279 52.218456 361.913945 53.733373 359.217754 56.429564 
C 356.521563 59.125756 355.006646 62.783089 355.006646 66.596079 
C 355.006646 70.40907 356.521563 74.066403 359.217754 76.762594 
C 361.913945 79.458786 365.571279 80.973703 369.384269 80.973703 
z
" style="fill:#cc2627;stroke:#cc2627;"/>
    <path clip-path="url(#pe7988fb593)" d="M 491.200694 228.889039 
C 492.590943 228.889039 493.924439 228.336687 494.907494 227.353632 
C 495.890549 226.370577 496.442901 225.037081 496.442901 223.646831 
C 496.442901 222.256581 495.890549 220.923086 494.907494 219.940031 
C 493.924439 218.956976 492.590943 218.404624 491.200694 218.404624 
C 489.810444 218.404624 488.476948 218.956976 487.493893 219.940031 
C 486.510838 220.923086 485.958486 222.256581 485.958486 223.646831 
C 485.958486 225.037081 486.510838 226.370577 487.493893 227.353632 
C 488.476948 228.336687 489.810444 228.889039 491.200694 228.889039 
z
" style="fill:#7ab2d4;stroke:#7ab2d4;"/>
    <path clip-path="url(#pe7988fb593)" d="M 389.108296 213.617123 
C 391.035077 213.617123 392.883201 212.851605 394.245641 211.489165 
C 395.60808 210.126726 396.373598 208.278602 396.373598 206.351821 
C 396.373598 204.425041 395.60808 202.576917 394.245641 201.214477 
C 392.883201 199.852037 391.035077 199.086519 389.108296 199.086519 
C 387.181516 199.086519 385.333392 199.852037 383.970952 201.214477 
C 382.608513 202.576917 381.842995 204.425041 381.842995 206.351821 
C 381.842995 208.278602 382.608513 210.126726 383.970952 211.489165 
C 385.333392 212.851605 387.181516 213.617123 389.108296 213.617123 
z
" style="fill:#f98e52;stroke:#f98e52;"/>
    <path clip-path="url(#pe7988fb593)" d="M 388.762808 166.786615 
C 388.966243 166.786615 389.161373 166.705789 389.305223 166.561939 
C 389.449073 166.418089 389.529898 166.222959 389.529898 166.019525 
C 389.529898 165.81609 389.449073 165.62096 389.305223 165.47711 
C 389.161373 165.33326 388.966243 165.252434 388.762808 165.252434 
C 388.559373 165.252434 388.364243 165.33326 388.220393 165.47711 
C 388.076543 165.62096 387.995718 165.81609 387.995718 166.019525 
C 387.995718 166.222959 388.076543 166.418089 388.220393 166.561939 
C 388.364243 166.705789 388.559373 166.786615 388.762808 166.786615 
z
" style="fill:#fffdbc;stroke:#fffdbc;"/>
    <path clip-path="url(#pe7988fb593)" d="M 315.223531 137.761507 
C 315.327172 137.761507 315.426581 137.720331 315.499866 137.647046 
C 315.57315 137.573761 315.614327 137.474352 315.614327 137.370712 
C 315.614327 137.267071 315.57315 137.167662 315.499866 137.094377 
C 315.426581 137.021092 315.327172 136.979916 315.223531 136.979916 
C 315.119891 136.979916 315.020482 137.021092 314.947197 137.094377 
C 314.873912 137.167662 314.832736 137.267071 314.832736 137.370712 
C 314.832736 137.474352 314.873912 137.573761 314.947197 137.647046 
C 315.020482 137.720331 315.119891 137.761507 315.223531 137.761507 
z
" style="fill:#cbe9f2;stroke:#cbe9f2;"/>
    <path clip-path="url(#pe7988fb593)" d="M 313.731509 182.595349 
C 315.326198 182.595349 316.855787 181.961772 317.983402 180.834157 
C 319.111017 179.706542 319.744593 178.176953 319.744593 176.582265 
C 319.744593 174.987576 319.111017 173.457987 317.983402 172.330372 
C 316.855787 171.202757 315.326198 170.569181 313.731509 170.569181 
C 312.136821 170.569181 310.607232 171.202757 309.479617 172.330372 
C 308.352002 173.457987 307.718426 174.987576 307.718426 176.582265 
C 307.718426 178.176953 308.352002 179.706542 309.479617 180.834157 
C 310.607232 181.961772 312.136821 182.595349 313.731509 182.595349 
z
" style="fill:#f5fbd2;stroke:#f5fbd2;"/>
    <path clip-path="url(#pe7988fb593)" d="M 439.950211 188.860275 
C 440.416309 188.860275 440.86338 188.675093 441.19296 188.345512 
C 441.522541 188.015931 441.707724 187.56886 441.707724 187.102763 
C 441.707724 186.636665 441.522541 186.189594 441.19296 185.860013 
C 440.86338 185.530433 440.416309 185.34525 439.950211 185.34525 
C 439.484113 185.34525 439.037043 185.530433 438.707462 185.860013 
C 438.377881 186.189594 438.192698 186.636665 438.192698 187.102763 
C 438.192698 187.56886 438.377881 188.015931 438.707462 188.345512 
C 439.037043 188.675093 439.484113 188.860275 439.950211 188.860275 
z
" style="fill:#d1ecf4;stroke:#d1ecf4;"/>
    <path clip-path="url(#pe7988fb593)" d="M 330.525114 153.547892 
C 330.867657 153.547892 331.196215 153.411799 331.438429 153.169585 
C 331.680643 152.927371 331.816737 152.598812 331.816737 152.256269 
C 331.816737 151.913727 331.680643 151.585168 331.438429 151.342954 
C 331.196215 151.10074 330.867657 150.964647 330.525114 150.964647 
C 330.182572 150.964647 329.854013 151.10074 329.611799 151.342954 
C 329.369585 151.585168 329.233491 151.913727 329.233491 152.256269 
C 329.233491 152.598812 329.369585 152.927371 329.611799 153.169585 
C 329.854013 153.411799 330.182572 153.547892 330.525114 153.547892 
z
" style="fill:#313695;stroke:#313695;"/>
    <path clip-path="url(#pe7988fb593)" d="M 236.122283 231.547046 
C 240.358278 231.547046 244.421348 229.864067 247.416648 226.868766 
C 250.411949 223.873466 252.094927 219.810396 252.094927 215.574401 
C 252.094927 211.338406 250.411949 207.275337 247.416648 204.280036 
C 244.421348 201.284735 240.358278 199.601757 236.122283 199.601757 
C 231.886288 199.601757 227.823218 201.284735 224.827918 204.280036 
C 221.832617 207.275337 220.149639 211.338406 220.149639 215.574401 
C 220.149639 219.810396 221.832617 223.873466 224.827918 226.868766 
C 227.823218 229.864067 231.886288 231.547046 236.122283 231.547046 
z
" style="fill:#e9f6e8;stroke:#e9f6e8;"/>
    <path clip-path="url(#pe7988fb593)" d="M 393.426819 204.716966 
C 394.978851 204.716966 396.467524 204.100338 397.564976 203.002886 
C 398.662427 201.905434 399.279056 200.416761 399.279056 198.86473 
C 399.279056 197.312698 398.662427 195.824025 397.564976 194.726573 
C 396.467524 193.629122 394.978851 193.012493 393.426819 193.012493 
C 391.874788 193.012493 390.386115 193.629122 389.288663 194.726573 
C 388.191211 195.824025 387.574583 197.312698 387.574583 198.86473 
C 387.574583 200.416761 388.191211 201.905434 389.288663 203.002886 
C 390.386115 204.100338 391.874788 204.716966 393.426819 204.716966 
z
" style="fill:#a8d6e8;stroke:#a8d6e8;"/>
    <path clip-path="url(#pe7988fb593)" d="M 329.449801 119.343355 
C 330.706668 119.343355 331.912226 118.843997 332.800965 117.955258 
C 333.689703 117.066519 334.189062 115.860961 334.189062 114.604095 
C 334.189062 113.347228 333.689703 112.14167 332.800965 111.252931 
C 331.912226 110.364192 330.706668 109.864834 329.449801 109.864834 
C 328.192935 109.864834 326.987377 110.364192 326.098638 111.252931 
C 325.209899 112.14167 324.710541 113.347228 324.710541 114.604095 
C 324.710541 115.860961 325.209899 117.066519 326.098638 117.955258 
C 326.987377 118.843997 328.192935 119.343355 329.449801 119.343355 
z
" style="fill:#b6dfec;stroke:#b6dfec;"/>
    <path clip-path="url(#pe7988fb593)" d="M 423.435737 116.731566 
C 426.228513 116.731566 428.90728 115.621984 430.882071 113.647194 
C 432.856862 111.672403 433.966444 108.993635 433.966444 106.200859 
C 433.966444 103.408083 432.856862 100.729316 430.882071 98.754525 
C 428.90728 96.779734 426.228513 95.670153 423.435737 95.670153 
C 420.642961 95.670153 417.964194 96.779734 415.989403 98.754525 
C 414.014612 100.729316 412.90503 103.408083 412.90503 106.200859 
C 412.90503 108.993635 414.014612 111.672403 415.989403 113.647194 
C 417.964194 115.621984 420.642961 116.731566 423.435737 116.731566 
z
" style="fill:#cbe9f2;stroke:#cbe9f2;"/>
    <path clip-path="url(#pe7988fb593)" d="M 459.008269 131.995114 
C 461.552089 131.995114 463.992063 130.984444 465.790815 129.185692 
C 467.589568 127.386939 468.600238 124.946965 468.600238 122.403145 
C 468.600238 119.859326 467.589568 117.419352 465.790815 115.620599 
C 463.992063 113.821847 461.552089 112.811177 459.008269 112.811177 
C 456.464449 112.811177 454.024475 113.821847 452.225723 115.620599 
C 450.426971 117.419352 449.416301 119.859326 449.416301 122.403145 
C 449.416301 124.946965 450.426971 127.386939 452.225723 129.185692 
C 454.024475 130.984444 456.464449 131.995114 459.008269 131.995114 
z
" style="fill:#f67a49;stroke:#f67a49;"/>
    <path clip-path="url(#pe7988fb593)" d="M 322.288461 129.605424 
C 322.9142 129.605424 323.514395 129.356816 323.95686 128.914351 
C 324.399324 128.471887 324.647933 127.871692 324.647933 127.245953 
C 324.647933 126.620213 324.399324 126.020019 323.95686 125.577554 
C 323.514395 125.13509 322.9142 124.886481 322.288461 124.886481 
C 321.662722 124.886481 321.062527 125.13509 320.620063 125.577554 
C 320.177598 126.020019 319.928989 126.620213 319.928989 127.245953 
C 319.928989 127.871692 320.177598 128.471887 320.620063 128.914351 
C 321.062527 129.356816 321.662722 129.605424 322.288461 129.605424 
z
" style="fill:#578abf;stroke:#578abf;"/>
    <path clip-path="url(#pe7988fb593)" d="M 382.520382 130.257194 
C 384.011619 130.257194 385.441979 129.66472 386.496442 128.610256 
C 387.550905 127.555793 388.14338 126.125433 388.14338 124.634197 
C 388.14338 123.14296 387.550905 121.7126 386.496442 120.658137 
C 385.441979 119.603674 384.011619 119.011199 382.520382 119.011199 
C 381.029146 119.011199 379.598786 119.603674 378.544323 120.658137 
C 377.48986 121.7126 376.897385 123.14296 376.897385 124.634197 
C 376.897385 126.125433 377.48986 127.555793 378.544323 128.610256 
C 379.598786 129.66472 381.029146 130.257194 382.520382 130.257194 
z
" style="fill:#87bdd9;stroke:#87bdd9;"/>
    <path clip-path="url(#pe7988fb593)" d="M 451.020299 117.45302 
C 454.187841 117.45302 457.226075 116.194543 459.465866 113.954752 
C 461.705656 111.714962 462.964134 108.676728 462.964134 105.509186 
C 462.964134 102.341645 461.705656 99.303411 459.465866 97.06362 
C 457.226075 94.82383 454.187841 93.565352 451.020299 93.565352 
C 447.852758 93.565352 444.814524 94.82383 442.574733 97.06362 
C 440.334943 99.303411 439.076465 102.341645 439.076465 105.509186 
C 439.076465 108.676728 440.334943 111.714962 442.574733 113.954752 
C 444.814524 116.194543 447.852758 117.45302 451.020299 117.45302 
z
" style="fill:#fbfdc7;stroke:#fbfdc7;"/>
    <path clip-path="url(#pe7988fb593)" d="M 248.043769 198.031477 
C 250.915321 198.031477 253.669648 196.890598 255.700141 194.860104 
C 257.730635 192.829611 258.871514 190.075284 258.871514 187.203732 
C 258.871514 184.332181 257.730635 181.577854 255.700141 179.547361 
C 253.669648 177.516867 250.915321 176.375988 248.043769 176.375988 
C 245.172218 176.375988 242.417891 177.516867 240.387398 179.547361 
C 238.356904 181.577854 237.216025 184.332181 237.216025 187.203732 
C 237.216025 190.075284 238.356904 192.829611 240.387398 194.860104 
C 242.417891 196.890598 245.172218 198.031477 248.043769 198.031477 
z
" style="fill:#c3e5f0;stroke:#c3e5f0;"/>
    <path clip-path="url(#pe7988fb593)" d="M 376.886257 217.886821 
C 379.102157 217.886821 381.227597 217.006435 382.794475 215.439557 
C 384.361353 213.872679 385.241739 211.747239 385.241739 209.531339 
C 385.241739 207.315439 384.361353 205.189999 382.794475 203.623121 
C 381.227597 202.056243 379.102157 201.175857 376.886257 201.175857 
C 374.670357 201.175857 372.544917 202.056243 370.978039 203.623121 
C 369.411161 205.189999 368.530775 207.315439 368.530775 209.531339 
C 368.530775 211.747239 369.411161 213.872679 370.978039 215.439557 
C 372.544917 217.006435 374.670357 217.886821 376.886257 217.886821 
z
" style="fill:#fff3ad;stroke:#fff3ad;"/>
    <path clip-path="url(#pe7988fb593)" d="M 403.395845 172.057242 
C 403.636028 172.057242 403.866405 171.961816 404.03624 171.791981 
C 404.206075 171.622146 404.301501 171.391769 404.301501 171.151586 
C 404.301501 170.911403 404.206075 170.681025 404.03624 170.51119 
C 403.866405 170.341355 403.636028 170.24593 403.395845 170.24593 
C 403.155662 170.24593 402.925284 170.341355 402.755449 170.51119 
C 402.585614 170.681025 402.490189 170.911403 402.490189 171.151586 
C 402.490189 171.391769 402.585614 171.622146 402.755449 171.791981 
C 402.925284 171.961816 403.155662 172.057242 403.395845 172.057242 
z
" style="fill:#bde2ee;stroke:#bde2ee;"/>
    <path clip-path="url(#pe7988fb593)" d="M 323.187548 179.196543 
C 324.555031 179.196543 325.866689 178.653236 326.833645 177.68628 
C 327.800601 176.719324 328.343908 175.407666 328.343908 174.040183 
C 328.343908 172.672701 327.800601 171.361043 326.833645 170.394087 
C 325.866689 169.427131 324.555031 168.883824 323.187548 168.883824 
C 321.820066 168.883824 320.508408 169.427131 319.541452 170.394087 
C 318.574496 171.361043 318.031189 172.672701 318.031189 174.040183 
C 318.031189 175.407666 318.574496 176.719324 319.541452 177.68628 
C 320.508408 178.653236 321.820066 179.196543 323.187548 179.196543 
z
" style="fill:#fcfec5;stroke:#fcfec5;"/>
    <path clip-path="url(#pe7988fb593)" d="M 395.519099 124.943078 
C 397.475791 124.943078 399.352605 124.165676 400.736194 122.782086 
C 402.119784 121.398496 402.897186 119.521683 402.897186 117.564991 
C 402.897186 115.6083 402.119784 113.731486 400.736194 112.347896 
C 399.352605 110.964306 397.475791 110.186905 395.519099 110.186905 
C 393.562408 110.186905 391.685594 110.964306 390.302004 112.347896 
C 388.918414 113.731486 388.141013 115.6083 388.141013 117.564991 
C 388.141013 119.521683 388.918414 121.398496 390.302004 122.782086 
C 391.685594 124.165676 393.562408 124.943078 395.519099 124.943078 
z
" style="fill:#c1e4ef;stroke:#c1e4ef;"/>
    <path clip-path="url(#pe7988fb593)" d="M 364.525154 102.48163 
C 367.166848 102.48163 369.7007 101.432074 371.56866 99.564114 
C 373.436619 97.696155 374.486175 95.162302 374.486175 92.520608 
C 374.486175 89.878915 373.436619 87.345062 371.56866 85.477103 
C 369.7007 83.609143 367.166848 82.559587 364.525154 82.559587 
C 361.883461 82.559587 359.349608 83.609143 357.481649 85.477103 
C 355.613689 87.345062 354.564133 89.878915 354.564133 92.520608 
C 354.564133 95.162302 355.613689 97.696155 357.481649 99.564114 
C 359.349608 101.432074 361.883461 102.48163 364.525154 102.48163 
z
" style="fill:#cbe9f2;stroke:#cbe9f2;"/>
    <path clip-path="url(#pe7988fb593)" d="M 543.471365 193.781771 
C 544.119032 193.781771 544.740259 193.52445 545.198229 193.066481 
C 545.656199 192.608511 545.91352 191.987284 545.91352 191.339617 
C 545.91352 190.69195 545.656199 190.070722 545.198229 189.612753 
C 544.740259 189.154783 544.119032 188.897462 543.471365 188.897462 
C 542.823698 188.897462 542.202471 189.154783 541.744501 189.612753 
C 541.286531 190.070722 541.029211 190.69195 541.029211 191.339617 
C 541.029211 191.987284 541.286531 192.608511 541.744501 193.066481 
C 542.202471 193.52445 542.823698 193.781771 543.471365 193.781771 
z
" style="fill:#fffcba;stroke:#fffcba;"/>
   </g>
   <g id="matplotlib.axis_1">
    <g id="xtick_1">
     <g id="line2d_1">
      <defs>
       <path d="M 0 0 
L 0 3.5 
" id="m31abc9d634" style="stroke:#000000;stroke-width:0.8;"/>
      </defs>
      <g>
       <use style="stroke:#000000;stroke-width:0.8;" x="61.162639" xlink:href="#m31abc9d634" y="336.86"/>
      </g>
     </g>
     <g id="text_1">
      <!-- 3 -->
      <defs>
       <path d="M 10.59375 35.5 
L 73.1875 35.5 
L 73.1875 27.203125 
L 10.59375 27.203125 
z
" id="DejaVuSans-2212"/>
       <path d="M 40.578125 39.3125 
Q 47.65625 37.796875 51.625 33 
Q 55.609375 28.21875 55.609375 21.1875 
Q 55.609375 10.40625 48.1875 4.484375 
Q 40.765625 -1.421875 27.09375 -1.421875 
Q 22.515625 -1.421875 17.65625 -0.515625 
Q 12.796875 0.390625 7.625 2.203125 
L 7.625 11.71875 
Q 11.71875 9.328125 16.59375 8.109375 
Q 21.484375 6.890625 26.8125 6.890625 
Q 36.078125 6.890625 40.9375 10.546875 
Q 45.796875 14.203125 45.796875 21.1875 
Q 45.796875 27.640625 41.28125 31.265625 
Q 36.765625 34.90625 28.71875 34.90625 
L 20.21875 34.90625 
L 20.21875 43.015625 
L 29.109375 43.015625 
Q 36.375 43.015625 40.234375 45.921875 
Q 44.09375 48.828125 44.09375 54.296875 
Q 44.09375 59.90625 40.109375 62.90625 
Q 36.140625 65.921875 28.71875 65.921875 
Q 24.65625 65.921875 20.015625 65.03125 
Q 15.375 64.15625 9.8125 62.3125 
L 9.8125 71.09375 
Q 15.4375 72.65625 20.34375 73.4375 
Q 25.25 74.21875 29.59375 74.21875 
Q 40.828125 74.21875 47.359375 69.109375 
Q 53.90625 64.015625 53.90625 55.328125 
Q 53.90625 49.265625 50.4375 45.09375 
Q 46.96875 40.921875 40.578125 39.3125 
z
" id="DejaVuSans-33"/>
      </defs>
      <g transform="translate(53.791545 351.458437)scale(0.1 -0.1)">
       <use xlink:href="#DejaVuSans-2212"/>
       <use x="83.789062" xlink:href="#DejaVuSans-33"/>
      </g>
     </g>
    </g>
    <g id="xtick_2">
     <g id="line2d_2">
      <g>
       <use style="stroke:#000000;stroke-width:0.8;" x="167.142353" xlink:href="#m31abc9d634" y="336.86"/>
      </g>
     </g>
     <g id="text_2">
      <!-- 2 -->
      <defs>
       <path d="M 19.1875 8.296875 
L 53.609375 8.296875 
L 53.609375 0 
L 7.328125 0 
L 7.328125 8.296875 
Q 12.9375 14.109375 22.625 23.890625 
Q 32.328125 33.6875 34.8125 36.53125 
Q 39.546875 41.84375 41.421875 45.53125 
Q 43.3125 49.21875 43.3125 52.78125 
Q 43.3125 58.59375 39.234375 62.25 
Q 35.15625 65.921875 28.609375 65.921875 
Q 23.96875 65.921875 18.8125 64.3125 
Q 13.671875 62.703125 7.8125 59.421875 
L 7.8125 69.390625 
Q 13.765625 71.78125 18.9375 73 
Q 24.125 74.21875 28.421875 74.21875 
Q 39.75 74.21875 46.484375 68.546875 
Q 53.21875 62.890625 53.21875 53.421875 
Q 53.21875 48.921875 51.53125 44.890625 
Q 49.859375 40.875 45.40625 35.40625 
Q 44.1875 33.984375 37.640625 27.21875 
Q 31.109375 20.453125 19.1875 8.296875 
z
" id="DejaVuSans-32"/>
      </defs>
      <g transform="translate(159.771259 351.458437)scale(0.1 -0.1)">
       <use xlink:href="#DejaVuSans-2212"/>
       <use x="83.789062" xlink:href="#DejaVuSans-32"/>
      </g>
     </g>
    </g>
    <g id="xtick_3">
     <g id="line2d_3">
      <g>
       <use style="stroke:#000000;stroke-width:0.8;" x="273.122068" xlink:href="#m31abc9d634" y="336.86"/>
      </g>
     </g>
     <g id="text_3">
      <!-- 1 -->
      <defs>
       <path d="M 12.40625 8.296875 
L 28.515625 8.296875 
L 28.515625 63.921875 
L 10.984375 60.40625 
L 10.984375 69.390625 
L 28.421875 72.90625 
L 38.28125 72.90625 
L 38.28125 8.296875 
L 54.390625 8.296875 
L 54.390625 0 
L 12.40625 0 
z
" id="DejaVuSans-31"/>
      </defs>
      <g transform="translate(265.750974 351.458437)scale(0.1 -0.1)">
       <use xlink:href="#DejaVuSans-2212"/>
       <use x="83.789062" xlink:href="#DejaVuSans-31"/>
      </g>
     </g>
    </g>
    <g id="xtick_4">
     <g id="line2d_4">
      <g>
       <use style="stroke:#000000;stroke-width:0.8;" x="379.101782" xlink:href="#m31abc9d634" y="336.86"/>
      </g>
     </g>
     <g id="text_4">
      <!-- 0 -->
      <defs>
       <path d="M 31.78125 66.40625 
Q 24.171875 66.40625 20.328125 58.90625 
Q 16.5 51.421875 16.5 36.375 
Q 16.5 21.390625 20.328125 13.890625 
Q 24.171875 6.390625 31.78125 6.390625 
Q 39.453125 6.390625 43.28125 13.890625 
Q 47.125 21.390625 47.125 36.375 
Q 47.125 51.421875 43.28125 58.90625 
Q 39.453125 66.40625 31.78125 66.40625 
z
M 31.78125 74.21875 
Q 44.046875 74.21875 50.515625 64.515625 
Q 56.984375 54.828125 56.984375 36.375 
Q 56.984375 17.96875 50.515625 8.265625 
Q 44.046875 -1.421875 31.78125 -1.421875 
Q 19.53125 -1.421875 13.0625 8.265625 
Q 6.59375 17.96875 6.59375 36.375 
Q 6.59375 54.828125 13.0625 64.515625 
Q 19.53125 74.21875 31.78125 74.21875 
z
" id="DejaVuSans-30"/>
      </defs>
      <g transform="translate(375.920532 351.458437)scale(0.1 -0.1)">
       <use xlink:href="#DejaVuSans-30"/>
      </g>
     </g>
    </g>
    <g id="xtick_5">
     <g id="line2d_5">
      <g>
       <use style="stroke:#000000;stroke-width:0.8;" x="485.081496" xlink:href="#m31abc9d634" y="336.86"/>
      </g>
     </g>
     <g id="text_5">
      <!-- 1 -->
      <g transform="translate(481.900246 351.458437)scale(0.1 -0.1)">
       <use xlink:href="#DejaVuSans-31"/>
      </g>
     </g>
    </g>
   </g>
   <g id="matplotlib.axis_2">
    <g id="ytick_1">
     <g id="line2d_6">
      <defs>
       <path d="M 0 0 
L -3.5 0 
" id="md500275c0f" style="stroke:#000000;stroke-width:0.8;"/>
      </defs>
      <g>
       <use style="stroke:#000000;stroke-width:0.8;" x="28.942188" xlink:href="#md500275c0f" y="282.271394"/>
      </g>
     </g>
     <g id="text_6">
      <!-- 2 -->
      <g transform="translate(7.2 286.070613)scale(0.1 -0.1)">
       <use xlink:href="#DejaVuSans-2212"/>
       <use x="83.789062" xlink:href="#DejaVuSans-32"/>
      </g>
     </g>
    </g>
    <g id="ytick_2">
     <g id="line2d_7">
      <g>
       <use style="stroke:#000000;stroke-width:0.8;" x="28.942188" xlink:href="#md500275c0f" y="220.359925"/>
      </g>
     </g>
     <g id="text_7">
      <!-- 1 -->
      <g transform="translate(7.2 224.159144)scale(0.1 -0.1)">
       <use xlink:href="#DejaVuSans-2212"/>
       <use x="83.789062" xlink:href="#DejaVuSans-31"/>
      </g>
     </g>
    </g>
    <g id="ytick_3">
     <g id="line2d_8">
      <g>
       <use style="stroke:#000000;stroke-width:0.8;" x="28.942188" xlink:href="#md500275c0f" y="158.448456"/>
      </g>
     </g>
     <g id="text_8">
      <!-- 0 -->
      <g transform="translate(15.579688 162.247675)scale(0.1 -0.1)">
       <use xlink:href="#DejaVuSans-30"/>
      </g>
     </g>
    </g>
    <g id="ytick_4">
     <g id="line2d_9">
      <g>
       <use style="stroke:#000000;stroke-width:0.8;" x="28.942188" xlink:href="#md500275c0f" y="96.536988"/>
      </g>
     </g>
     <g id="text_9">
      <!-- 1 -->
      <g transform="translate(15.579688 100.336206)scale(0.1 -0.1)">
       <use xlink:href="#DejaVuSans-31"/>
      </g>
     </g>
    </g>
    <g id="ytick_5">
     <g id="line2d_10">
      <g>
       <use style="stroke:#000000;stroke-width:0.8;" x="28.942188" xlink:href="#md500275c0f" y="34.625519"/>
      </g>
     </g>
     <g id="text_10">
      <!-- 2 -->
      <g transform="translate(15.579688 38.424737)scale(0.1 -0.1)">
       <use xlink:href="#DejaVuSans-32"/>
      </g>
     </g>
    </g>
   </g>
   <g id="patch_3">
    <path d="M 28.942188 336.86 
L 28.942188 10.7 
" style="fill:none;stroke:#000000;stroke-linecap:square;stroke-linejoin:miter;stroke-width:0.8;"/>
   </g>
   <g id="patch_4">
    <path d="M 586.942188 336.86 
L 586.942188 10.7 
" style="fill:none;stroke:#000000;stroke-linecap:square;stroke-linejoin:miter;stroke-width:0.8;"/>
   </g>
   <g id="patch_5">
    <path d="M 28.942188 336.86 
L 586.942188 336.86 
" style="fill:none;stroke:#000000;stroke-linecap:square;stroke-linejoin:miter;stroke-width:0.8;"/>
   </g>
   <g id="patch_6">
    <path d="M 28.942188 10.7 
L 586.942188 10.7 
" style="fill:none;stroke:#000000;stroke-linecap:square;stroke-linejoin:miter;stroke-width:0.8;"/>
   </g>
  </g>
 </g>
 <defs>
  <clipPath id="pe7988fb593">
   <rect height="326.16" width="558" x="28.942188" y="10.7"/>
  </clipPath>
 </defs>
</svg>
