<?xml version="1.0" encoding="utf-8" standalone="no"?>
<!DOCTYPE svg PUBLIC "-//W3C//DTD SVG 1.1//EN"
  "http://www.w3.org/Graphics/SVG/1.1/DTD/svg11.dtd">
<!-- Created with matplotlib (http://matplotlib.org/) -->
<svg height="277pt" version="1.1" viewBox="0 0 433 277" width="433pt" xmlns="http://www.w3.org/2000/svg" xmlns:xlink="http://www.w3.org/1999/xlink">
 <defs>
  <style type="text/css">
*{stroke-linecap:butt;stroke-linejoin:round;}
  </style>
 </defs>
 <g id="figure_1">
  <g id="patch_1">
   <path d="M 0 277.5925 
L 433.805937 277.5925 
L 433.805937 0 
L 0 0 
z
" style="fill:#ffffff;"/>
  </g>
  <g id="axes_1">
   <g id="patch_2">
    <path d="M 42.898438 239.758125 
L 377.698438 239.758125 
L 377.698438 22.318125 
L 42.898438 22.318125 
z
" style="fill:#ffffff;"/>
   </g>
   <g id="PathCollection_1">
    <defs>
     <path d="M 0 3 
C 0.795609 3 1.55874 2.683901 2.12132 2.12132 
C 2.683901 1.55874 3 0.795609 3 0 
C 3 -0.795609 2.683901 -1.55874 2.12132 -2.12132 
C 1.55874 -2.683901 0.795609 -3 0 -3 
C -0.795609 -3 -1.55874 -2.683901 -2.12132 -2.12132 
C -2.683901 -1.55874 -3 -0.795609 -3 0 
C -3 0.795609 -2.683901 1.55874 -2.12132 2.12132 
C -1.55874 2.683901 -0.795609 3 0 3 
z
" id="m97550d2b5e" style="stroke:#404040;"/>
    </defs>
    <g clip-path="url(#p6af07ed2ac)">
     <use style="fill:#404040;stroke:#404040;" x="84.748437" xlink:href="#m97550d2b5e" y="204.77554"/>
     <use style="fill:#404040;stroke:#404040;" x="87.284801" xlink:href="#m97550d2b5e" y="74.211344"/>
     <use style="fill:#404040;stroke:#404040;" x="89.821165" xlink:href="#m97550d2b5e" y="182.582944"/>
     <use style="fill:#404040;stroke:#404040;" x="92.357528" xlink:href="#m97550d2b5e" y="174.756343"/>
     <use style="fill:#404040;stroke:#404040;" x="94.893892" xlink:href="#m97550d2b5e" y="97.340385"/>
     <use style="fill:#404040;stroke:#404040;" x="97.430256" xlink:href="#m97550d2b5e" y="188.910531"/>
     <use style="fill:#404040;stroke:#404040;" x="99.966619" xlink:href="#m97550d2b5e" y="167.445353"/>
     <use style="fill:#404040;stroke:#404040;" x="102.502983" xlink:href="#m97550d2b5e" y="115.101442"/>
     <use style="fill:#404040;stroke:#404040;" x="105.039347" xlink:href="#m97550d2b5e" y="147.456404"/>
     <use style="fill:#404040;stroke:#404040;" x="107.57571" xlink:href="#m97550d2b5e" y="73.781024"/>
     <use style="fill:#404040;stroke:#404040;" x="110.112074" xlink:href="#m97550d2b5e" y="70.606316"/>
     <use style="fill:#404040;stroke:#404040;" x="112.648438" xlink:href="#m97550d2b5e" y="204.953974"/>
     <use style="fill:#404040;stroke:#404040;" x="115.184801" xlink:href="#m97550d2b5e" y="135.628885"/>
     <use style="fill:#404040;stroke:#404040;" x="117.721165" xlink:href="#m97550d2b5e" y="150.083699"/>
     <use style="fill:#404040;stroke:#404040;" x="120.257528" xlink:href="#m97550d2b5e" y="135.05982"/>
     <use style="fill:#404040;stroke:#404040;" x="122.793892" xlink:href="#m97550d2b5e" y="119.975829"/>
     <use style="fill:#404040;stroke:#404040;" x="125.330256" xlink:href="#m97550d2b5e" y="208.883937"/>
     <use style="fill:#404040;stroke:#404040;" x="127.866619" xlink:href="#m97550d2b5e" y="110.222135"/>
     <use style="fill:#404040;stroke:#404040;" x="130.402983" xlink:href="#m97550d2b5e" y="91.364367"/>
     <use style="fill:#404040;stroke:#404040;" x="132.939347" xlink:href="#m97550d2b5e" y="69.027764"/>
     <use style="fill:#404040;stroke:#404040;" x="135.47571" xlink:href="#m97550d2b5e" y="181.614198"/>
     <use style="fill:#404040;stroke:#404040;" x="138.012074" xlink:href="#m97550d2b5e" y="159.098984"/>
     <use style="fill:#404040;stroke:#404040;" x="140.548438" xlink:href="#m97550d2b5e" y="101.214621"/>
     <use style="fill:#404040;stroke:#404040;" x="143.084801" xlink:href="#m97550d2b5e" y="136.219131"/>
     <use style="fill:#404040;stroke:#404040;" x="145.621165" xlink:href="#m97550d2b5e" y="180.291589"/>
     <use style="fill:#404040;stroke:#404040;" x="148.157528" xlink:href="#m97550d2b5e" y="131.374001"/>
     <use style="fill:#404040;stroke:#404040;" x="150.693892" xlink:href="#m97550d2b5e" y="51.93718"/>
     <use style="fill:#404040;stroke:#404040;" x="153.230256" xlink:href="#m97550d2b5e" y="114.269912"/>
     <use style="fill:#404040;stroke:#404040;" x="155.766619" xlink:href="#m97550d2b5e" y="127.076736"/>
     <use style="fill:#404040;stroke:#404040;" x="158.302983" xlink:href="#m97550d2b5e" y="100.161329"/>
     <use style="fill:#404040;stroke:#404040;" x="160.839347" xlink:href="#m97550d2b5e" y="199.540223"/>
     <use style="fill:#404040;stroke:#404040;" x="163.37571" xlink:href="#m97550d2b5e" y="171.70814"/>
     <use style="fill:#404040;stroke:#404040;" x="165.912074" xlink:href="#m97550d2b5e" y="127.511417"/>
     <use style="fill:#404040;stroke:#404040;" x="168.448438" xlink:href="#m97550d2b5e" y="124.537332"/>
     <use style="fill:#404040;stroke:#404040;" x="170.984801" xlink:href="#m97550d2b5e" y="110.383779"/>
     <use style="fill:#404040;stroke:#404040;" x="173.521165" xlink:href="#m97550d2b5e" y="144.54588"/>
     <use style="fill:#404040;stroke:#404040;" x="176.057528" xlink:href="#m97550d2b5e" y="77.468332"/>
     <use style="fill:#404040;stroke:#404040;" x="178.593892" xlink:href="#m97550d2b5e" y="119.918327"/>
     <use style="fill:#404040;stroke:#404040;" x="181.130256" xlink:href="#m97550d2b5e" y="93.791555"/>
     <use style="fill:#404040;stroke:#404040;" x="183.666619" xlink:href="#m97550d2b5e" y="126.6447"/>
     <use style="fill:#404040;stroke:#404040;" x="186.202983" xlink:href="#m97550d2b5e" y="134.589947"/>
     <use style="fill:#404040;stroke:#404040;" x="188.739347" xlink:href="#m97550d2b5e" y="142.473734"/>
     <use style="fill:#404040;stroke:#404040;" x="191.27571" xlink:href="#m97550d2b5e" y="71.769732"/>
     <use style="fill:#404040;stroke:#404040;" x="193.812074" xlink:href="#m97550d2b5e" y="95.155404"/>
     <use style="fill:#404040;stroke:#404040;" x="196.348438" xlink:href="#m97550d2b5e" y="71.797962"/>
     <use style="fill:#404040;stroke:#404040;" x="198.884801" xlink:href="#m97550d2b5e" y="141.669103"/>
     <use style="fill:#404040;stroke:#404040;" x="201.421165" xlink:href="#m97550d2b5e" y="136.348229"/>
     <use style="fill:#404040;stroke:#404040;" x="203.957528" xlink:href="#m97550d2b5e" y="83.511815"/>
     <use style="fill:#404040;stroke:#404040;" x="206.493892" xlink:href="#m97550d2b5e" y="171.262291"/>
     <use style="fill:#404040;stroke:#404040;" x="209.030256" xlink:href="#m97550d2b5e" y="76.609333"/>
     <use style="fill:#404040;stroke:#404040;" x="211.566619" xlink:href="#m97550d2b5e" y="160.570592"/>
     <use style="fill:#404040;stroke:#404040;" x="214.102983" xlink:href="#m97550d2b5e" y="132.971812"/>
     <use style="fill:#404040;stroke:#404040;" x="216.639347" xlink:href="#m97550d2b5e" y="172.597964"/>
     <use style="fill:#404040;stroke:#404040;" x="219.17571" xlink:href="#m97550d2b5e" y="182.707517"/>
     <use style="fill:#404040;stroke:#404040;" x="221.712074" xlink:href="#m97550d2b5e" y="26.983951"/>
     <use style="fill:#404040;stroke:#404040;" x="224.248438" xlink:href="#m97550d2b5e" y="122.600984"/>
     <use style="fill:#404040;stroke:#404040;" x="226.784801" xlink:href="#m97550d2b5e" y="61.084886"/>
     <use style="fill:#404040;stroke:#404040;" x="229.321165" xlink:href="#m97550d2b5e" y="156.642742"/>
     <use style="fill:#404040;stroke:#404040;" x="231.857528" xlink:href="#m97550d2b5e" y="189.984825"/>
     <use style="fill:#404040;stroke:#404040;" x="234.393892" xlink:href="#m97550d2b5e" y="95.596539"/>
     <use style="fill:#404040;stroke:#404040;" x="236.930256" xlink:href="#m97550d2b5e" y="112.714227"/>
     <use style="fill:#404040;stroke:#404040;" x="239.466619" xlink:href="#m97550d2b5e" y="146.093115"/>
     <use style="fill:#404040;stroke:#404040;" x="242.002983" xlink:href="#m97550d2b5e" y="160.413558"/>
     <use style="fill:#404040;stroke:#404040;" x="244.539347" xlink:href="#m97550d2b5e" y="221.02445"/>
     <use style="fill:#404040;stroke:#404040;" x="247.07571" xlink:href="#m97550d2b5e" y="126.409388"/>
     <use style="fill:#404040;stroke:#404040;" x="249.612074" xlink:href="#m97550d2b5e" y="204.021082"/>
     <use style="fill:#404040;stroke:#404040;" x="252.148438" xlink:href="#m97550d2b5e" y="171.673759"/>
     <use style="fill:#404040;stroke:#404040;" x="254.684801" xlink:href="#m97550d2b5e" y="79.010678"/>
     <use style="fill:#404040;stroke:#404040;" x="257.221165" xlink:href="#m97550d2b5e" y="175.305631"/>
     <use style="fill:#404040;stroke:#404040;" x="259.757528" xlink:href="#m97550d2b5e" y="121.188651"/>
     <use style="fill:#404040;stroke:#404040;" x="262.293892" xlink:href="#m97550d2b5e" y="120.533811"/>
     <use style="fill:#404040;stroke:#404040;" x="264.830256" xlink:href="#m97550d2b5e" y="171.823541"/>
     <use style="fill:#404040;stroke:#404040;" x="267.366619" xlink:href="#m97550d2b5e" y="111.802013"/>
     <use style="fill:#404040;stroke:#404040;" x="269.902983" xlink:href="#m97550d2b5e" y="162.387733"/>
     <use style="fill:#404040;stroke:#404040;" x="272.439347" xlink:href="#m97550d2b5e" y="93.356718"/>
     <use style="fill:#404040;stroke:#404040;" x="274.97571" xlink:href="#m97550d2b5e" y="174.571281"/>
     <use style="fill:#404040;stroke:#404040;" x="277.512074" xlink:href="#m97550d2b5e" y="136.803215"/>
     <use style="fill:#404040;stroke:#404040;" x="280.048438" xlink:href="#m97550d2b5e" y="155.093469"/>
     <use style="fill:#404040;stroke:#404040;" x="282.584801" xlink:href="#m97550d2b5e" y="119.713743"/>
     <use style="fill:#404040;stroke:#404040;" x="285.121165" xlink:href="#m97550d2b5e" y="168.267548"/>
     <use style="fill:#404040;stroke:#404040;" x="287.657528" xlink:href="#m97550d2b5e" y="155.913765"/>
     <use style="fill:#404040;stroke:#404040;" x="290.193892" xlink:href="#m97550d2b5e" y="122.062956"/>
     <use style="fill:#404040;stroke:#404040;" x="292.730256" xlink:href="#m97550d2b5e" y="86.878805"/>
     <use style="fill:#404040;stroke:#404040;" x="295.266619" xlink:href="#m97550d2b5e" y="120.935517"/>
     <use style="fill:#404040;stroke:#404040;" x="297.802983" xlink:href="#m97550d2b5e" y="134.724802"/>
     <use style="fill:#404040;stroke:#404040;" x="300.339347" xlink:href="#m97550d2b5e" y="154.639915"/>
     <use style="fill:#404040;stroke:#404040;" x="302.87571" xlink:href="#m97550d2b5e" y="188.721249"/>
     <use style="fill:#404040;stroke:#404040;" x="305.412074" xlink:href="#m97550d2b5e" y="97.276437"/>
     <use style="fill:#404040;stroke:#404040;" x="307.948438" xlink:href="#m97550d2b5e" y="133.282494"/>
     <use style="fill:#404040;stroke:#404040;" x="310.484801" xlink:href="#m97550d2b5e" y="120.408223"/>
     <use style="fill:#404040;stroke:#404040;" x="313.021165" xlink:href="#m97550d2b5e" y="94.204902"/>
     <use style="fill:#404040;stroke:#404040;" x="315.557528" xlink:href="#m97550d2b5e" y="135.376206"/>
     <use style="fill:#404040;stroke:#404040;" x="318.093892" xlink:href="#m97550d2b5e" y="89.548383"/>
     <use style="fill:#404040;stroke:#404040;" x="320.630256" xlink:href="#m97550d2b5e" y="138.975331"/>
     <use style="fill:#404040;stroke:#404040;" x="323.166619" xlink:href="#m97550d2b5e" y="102.578481"/>
     <use style="fill:#404040;stroke:#404040;" x="325.702983" xlink:href="#m97550d2b5e" y="126.00821"/>
     <use style="fill:#404040;stroke:#404040;" x="328.239347" xlink:href="#m97550d2b5e" y="137.150646"/>
     <use style="fill:#404040;stroke:#404040;" x="330.77571" xlink:href="#m97550d2b5e" y="190.377392"/>
     <use style="fill:#404040;stroke:#404040;" x="333.312074" xlink:href="#m97550d2b5e" y="129.000007"/>
     <use style="fill:#404040;stroke:#404040;" x="335.848437" xlink:href="#m97550d2b5e" y="160.507724"/>
    </g>
   </g>
   <g id="patch_3">
    <path clip-path="url(#p6af07ed2ac)" d="M 126.598438 239.758125 
L 126.598438 22.318125 
L 210.298438 22.318125 
L 210.298438 239.758125 
z
" style="fill:#bfbf00;opacity:0.3;"/>
   </g>
   <g id="matplotlib.axis_1">
    <g id="xtick_1">
     <g id="line2d_1">
      <path clip-path="url(#p6af07ed2ac)" d="M 42.898438 239.758125 
L 42.898438 22.318125 
" style="fill:none;stroke:#b0b0b0;stroke-dasharray:2,3.3;stroke-dashoffset:0;stroke-width:2;"/>
     </g>
     <g id="line2d_2">
      <defs>
       <path d="M 0 0 
L 0 3.5 
" id="m522ae0ebf5" style="stroke:#000000;stroke-width:0.8;"/>
      </defs>
      <g>
       <use style="stroke:#000000;stroke-width:0.8;" x="42.898438" xlink:href="#m522ae0ebf5" y="239.758125"/>
      </g>
     </g>
     <g id="text_1">
      <!-- 0.0 -->
      <defs>
       <path d="M 31.78125 66.40625 
Q 24.171875 66.40625 20.328125 58.90625 
Q 16.5 51.421875 16.5 36.375 
Q 16.5 21.390625 20.328125 13.890625 
Q 24.171875 6.390625 31.78125 6.390625 
Q 39.453125 6.390625 43.28125 13.890625 
Q 47.125 21.390625 47.125 36.375 
Q 47.125 51.421875 43.28125 58.90625 
Q 39.453125 66.40625 31.78125 66.40625 
z
M 31.78125 74.21875 
Q 44.046875 74.21875 50.515625 64.515625 
Q 56.984375 54.828125 56.984375 36.375 
Q 56.984375 17.96875 50.515625 8.265625 
Q 44.046875 -1.421875 31.78125 -1.421875 
Q 19.53125 -1.421875 13.0625 8.265625 
Q 6.59375 17.96875 6.59375 36.375 
Q 6.59375 54.828125 13.0625 64.515625 
Q 19.53125 74.21875 31.78125 74.21875 
z
" id="DejaVuSans-30"/>
       <path d="M 10.6875 12.40625 
L 21 12.40625 
L 21 0 
L 10.6875 0 
z
" id="DejaVuSans-2e"/>
      </defs>
      <g transform="translate(34.946875 254.356563)scale(0.1 -0.1)">
       <use xlink:href="#DejaVuSans-30"/>
       <use x="63.623047" xlink:href="#DejaVuSans-2e"/>
       <use x="95.410156" xlink:href="#DejaVuSans-30"/>
      </g>
     </g>
    </g>
    <g id="xtick_2">
     <g id="line2d_3">
      <path clip-path="url(#p6af07ed2ac)" d="M 84.748437 239.758125 
L 84.748437 22.318125 
" style="fill:none;stroke:#b0b0b0;stroke-dasharray:2,3.3;stroke-dashoffset:0;stroke-width:2;"/>
     </g>
     <g id="line2d_4">
      <g>
       <use style="stroke:#000000;stroke-width:0.8;" x="84.748437" xlink:href="#m522ae0ebf5" y="239.758125"/>
      </g>
     </g>
     <g id="text_2">
      <!-- 0.5 -->
      <defs>
       <path d="M 10.796875 72.90625 
L 49.515625 72.90625 
L 49.515625 64.59375 
L 19.828125 64.59375 
L 19.828125 46.734375 
Q 21.96875 47.46875 24.109375 47.828125 
Q 26.265625 48.1875 28.421875 48.1875 
Q 40.625 48.1875 47.75 41.5 
Q 54.890625 34.8125 54.890625 23.390625 
Q 54.890625 11.625 47.5625 5.09375 
Q 40.234375 -1.421875 26.90625 -1.421875 
Q 22.3125 -1.421875 17.546875 -0.640625 
Q 12.796875 0.140625 7.71875 1.703125 
L 7.71875 11.625 
Q 12.109375 9.234375 16.796875 8.0625 
Q 21.484375 6.890625 26.703125 6.890625 
Q 35.15625 6.890625 40.078125 11.328125 
Q 45.015625 15.765625 45.015625 23.390625 
Q 45.015625 31 40.078125 35.4375 
Q 35.15625 39.890625 26.703125 39.890625 
Q 22.75 39.890625 18.8125 39.015625 
Q 14.890625 38.140625 10.796875 36.28125 
z
" id="DejaVuSans-35"/>
      </defs>
      <g transform="translate(76.796875 254.356563)scale(0.1 -0.1)">
       <use xlink:href="#DejaVuSans-30"/>
       <use x="63.623047" xlink:href="#DejaVuSans-2e"/>
       <use x="95.410156" xlink:href="#DejaVuSans-35"/>
      </g>
     </g>
    </g>
    <g id="xtick_3">
     <g id="line2d_5">
      <path clip-path="url(#p6af07ed2ac)" d="M 126.598438 239.758125 
L 126.598438 22.318125 
" style="fill:none;stroke:#b0b0b0;stroke-dasharray:2,3.3;stroke-dashoffset:0;stroke-width:2;"/>
     </g>
     <g id="line2d_6">
      <g>
       <use style="stroke:#000000;stroke-width:0.8;" x="126.598438" xlink:href="#m522ae0ebf5" y="239.758125"/>
      </g>
     </g>
     <g id="text_3">
      <!-- 1.0 -->
      <defs>
       <path d="M 12.40625 8.296875 
L 28.515625 8.296875 
L 28.515625 63.921875 
L 10.984375 60.40625 
L 10.984375 69.390625 
L 28.421875 72.90625 
L 38.28125 72.90625 
L 38.28125 8.296875 
L 54.390625 8.296875 
L 54.390625 0 
L 12.40625 0 
z
" id="DejaVuSans-31"/>
      </defs>
      <g transform="translate(118.646875 254.356563)scale(0.1 -0.1)">
       <use xlink:href="#DejaVuSans-31"/>
       <use x="63.623047" xlink:href="#DejaVuSans-2e"/>
       <use x="95.410156" xlink:href="#DejaVuSans-30"/>
      </g>
     </g>
    </g>
    <g id="xtick_4">
     <g id="line2d_7">
      <path clip-path="url(#p6af07ed2ac)" d="M 168.448438 239.758125 
L 168.448438 22.318125 
" style="fill:none;stroke:#b0b0b0;stroke-dasharray:2,3.3;stroke-dashoffset:0;stroke-width:2;"/>
     </g>
     <g id="line2d_8">
      <g>
       <use style="stroke:#000000;stroke-width:0.8;" x="168.448438" xlink:href="#m522ae0ebf5" y="239.758125"/>
      </g>
     </g>
     <g id="text_4">
      <!-- 1.5 -->
      <g transform="translate(160.496875 254.356563)scale(0.1 -0.1)">
       <use xlink:href="#DejaVuSans-31"/>
       <use x="63.623047" xlink:href="#DejaVuSans-2e"/>
       <use x="95.410156" xlink:href="#DejaVuSans-35"/>
      </g>
     </g>
    </g>
    <g id="xtick_5">
     <g id="line2d_9">
      <path clip-path="url(#p6af07ed2ac)" d="M 210.298438 239.758125 
L 210.298438 22.318125 
" style="fill:none;stroke:#b0b0b0;stroke-dasharray:2,3.3;stroke-dashoffset:0;stroke-width:2;"/>
     </g>
     <g id="line2d_10">
      <g>
       <use style="stroke:#000000;stroke-width:0.8;" x="210.298438" xlink:href="#m522ae0ebf5" y="239.758125"/>
      </g>
     </g>
     <g id="text_5">
      <!-- 2.0 -->
      <defs>
       <path d="M 19.1875 8.296875 
L 53.609375 8.296875 
L 53.609375 0 
L 7.328125 0 
L 7.328125 8.296875 
Q 12.9375 14.109375 22.625 23.890625 
Q 32.328125 33.6875 34.8125 36.53125 
Q 39.546875 41.84375 41.421875 45.53125 
Q 43.3125 49.21875 43.3125 52.78125 
Q 43.3125 58.59375 39.234375 62.25 
Q 35.15625 65.921875 28.609375 65.921875 
Q 23.96875 65.921875 18.8125 64.3125 
Q 13.671875 62.703125 7.8125 59.421875 
L 7.8125 69.390625 
Q 13.765625 71.78125 18.9375 73 
Q 24.125 74.21875 28.421875 74.21875 
Q 39.75 74.21875 46.484375 68.546875 
Q 53.21875 62.890625 53.21875 53.421875 
Q 53.21875 48.921875 51.53125 44.890625 
Q 49.859375 40.875 45.40625 35.40625 
Q 44.1875 33.984375 37.640625 27.21875 
Q 31.109375 20.453125 19.1875 8.296875 
z
" id="DejaVuSans-32"/>
      </defs>
      <g transform="translate(202.346875 254.356563)scale(0.1 -0.1)">
       <use xlink:href="#DejaVuSans-32"/>
       <use x="63.623047" xlink:href="#DejaVuSans-2e"/>
       <use x="95.410156" xlink:href="#DejaVuSans-30"/>
      </g>
     </g>
    </g>
    <g id="xtick_6">
     <g id="line2d_11">
      <path clip-path="url(#p6af07ed2ac)" d="M 252.148438 239.758125 
L 252.148438 22.318125 
" style="fill:none;stroke:#b0b0b0;stroke-dasharray:2,3.3;stroke-dashoffset:0;stroke-width:2;"/>
     </g>
     <g id="line2d_12">
      <g>
       <use style="stroke:#000000;stroke-width:0.8;" x="252.148438" xlink:href="#m522ae0ebf5" y="239.758125"/>
      </g>
     </g>
     <g id="text_6">
      <!-- 2.5 -->
      <g transform="translate(244.196875 254.356563)scale(0.1 -0.1)">
       <use xlink:href="#DejaVuSans-32"/>
       <use x="63.623047" xlink:href="#DejaVuSans-2e"/>
       <use x="95.410156" xlink:href="#DejaVuSans-35"/>
      </g>
     </g>
    </g>
    <g id="xtick_7">
     <g id="line2d_13">
      <path clip-path="url(#p6af07ed2ac)" d="M 293.998438 239.758125 
L 293.998438 22.318125 
" style="fill:none;stroke:#b0b0b0;stroke-dasharray:2,3.3;stroke-dashoffset:0;stroke-width:2;"/>
     </g>
     <g id="line2d_14">
      <g>
       <use style="stroke:#000000;stroke-width:0.8;" x="293.998438" xlink:href="#m522ae0ebf5" y="239.758125"/>
      </g>
     </g>
     <g id="text_7">
      <!-- 3.0 -->
      <defs>
       <path d="M 40.578125 39.3125 
Q 47.65625 37.796875 51.625 33 
Q 55.609375 28.21875 55.609375 21.1875 
Q 55.609375 10.40625 48.1875 4.484375 
Q 40.765625 -1.421875 27.09375 -1.421875 
Q 22.515625 -1.421875 17.65625 -0.515625 
Q 12.796875 0.390625 7.625 2.203125 
L 7.625 11.71875 
Q 11.71875 9.328125 16.59375 8.109375 
Q 21.484375 6.890625 26.8125 6.890625 
Q 36.078125 6.890625 40.9375 10.546875 
Q 45.796875 14.203125 45.796875 21.1875 
Q 45.796875 27.640625 41.28125 31.265625 
Q 36.765625 34.90625 28.71875 34.90625 
L 20.21875 34.90625 
L 20.21875 43.015625 
L 29.109375 43.015625 
Q 36.375 43.015625 40.234375 45.921875 
Q 44.09375 48.828125 44.09375 54.296875 
Q 44.09375 59.90625 40.109375 62.90625 
Q 36.140625 65.921875 28.71875 65.921875 
Q 24.65625 65.921875 20.015625 65.03125 
Q 15.375 64.15625 9.8125 62.3125 
L 9.8125 71.09375 
Q 15.4375 72.65625 20.34375 73.4375 
Q 25.25 74.21875 29.59375 74.21875 
Q 40.828125 74.21875 47.359375 69.109375 
Q 53.90625 64.015625 53.90625 55.328125 
Q 53.90625 49.265625 50.4375 45.09375 
Q 46.96875 40.921875 40.578125 39.3125 
z
" id="DejaVuSans-33"/>
      </defs>
      <g transform="translate(286.046875 254.356563)scale(0.1 -0.1)">
       <use xlink:href="#DejaVuSans-33"/>
       <use x="63.623047" xlink:href="#DejaVuSans-2e"/>
       <use x="95.410156" xlink:href="#DejaVuSans-30"/>
      </g>
     </g>
    </g>
    <g id="xtick_8">
     <g id="line2d_15">
      <path clip-path="url(#p6af07ed2ac)" d="M 335.848437 239.758125 
L 335.848437 22.318125 
" style="fill:none;stroke:#b0b0b0;stroke-dasharray:2,3.3;stroke-dashoffset:0;stroke-width:2;"/>
     </g>
     <g id="line2d_16">
      <g>
       <use style="stroke:#000000;stroke-width:0.8;" x="335.848437" xlink:href="#m522ae0ebf5" y="239.758125"/>
      </g>
     </g>
     <g id="text_8">
      <!-- 3.5 -->
      <g transform="translate(327.896875 254.356563)scale(0.1 -0.1)">
       <use xlink:href="#DejaVuSans-33"/>
       <use x="63.623047" xlink:href="#DejaVuSans-2e"/>
       <use x="95.410156" xlink:href="#DejaVuSans-35"/>
      </g>
     </g>
    </g>
    <g id="xtick_9">
     <g id="line2d_17">
      <path clip-path="url(#p6af07ed2ac)" d="M 377.698438 239.758125 
L 377.698438 22.318125 
" style="fill:none;stroke:#b0b0b0;stroke-dasharray:2,3.3;stroke-dashoffset:0;stroke-width:2;"/>
     </g>
     <g id="line2d_18">
      <g>
       <use style="stroke:#000000;stroke-width:0.8;" x="377.698438" xlink:href="#m522ae0ebf5" y="239.758125"/>
      </g>
     </g>
     <g id="text_9">
      <!-- 4.0 -->
      <defs>
       <path d="M 37.796875 64.3125 
L 12.890625 25.390625 
L 37.796875 25.390625 
z
M 35.203125 72.90625 
L 47.609375 72.90625 
L 47.609375 25.390625 
L 58.015625 25.390625 
L 58.015625 17.1875 
L 47.609375 17.1875 
L 47.609375 0 
L 37.796875 0 
L 37.796875 17.1875 
L 4.890625 17.1875 
L 4.890625 26.703125 
z
" id="DejaVuSans-34"/>
      </defs>
      <g transform="translate(369.746875 254.356563)scale(0.1 -0.1)">
       <use xlink:href="#DejaVuSans-34"/>
       <use x="63.623047" xlink:href="#DejaVuSans-2e"/>
       <use x="95.410156" xlink:href="#DejaVuSans-30"/>
      </g>
     </g>
    </g>
    <g id="text_10">
     <!-- x_axis -->
     <defs>
      <path d="M 54.890625 54.6875 
L 35.109375 28.078125 
L 55.90625 0 
L 45.3125 0 
L 29.390625 21.484375 
L 13.484375 0 
L 2.875 0 
L 24.125 28.609375 
L 4.6875 54.6875 
L 15.28125 54.6875 
L 29.78125 35.203125 
L 44.28125 54.6875 
z
" id="DejaVuSans-78"/>
      <path d="M 50.984375 -16.609375 
L 50.984375 -23.578125 
L -0.984375 -23.578125 
L -0.984375 -16.609375 
z
" id="DejaVuSans-5f"/>
      <path d="M 34.28125 27.484375 
Q 23.390625 27.484375 19.1875 25 
Q 14.984375 22.515625 14.984375 16.5 
Q 14.984375 11.71875 18.140625 8.90625 
Q 21.296875 6.109375 26.703125 6.109375 
Q 34.1875 6.109375 38.703125 11.40625 
Q 43.21875 16.703125 43.21875 25.484375 
L 43.21875 27.484375 
z
M 52.203125 31.203125 
L 52.203125 0 
L 43.21875 0 
L 43.21875 8.296875 
Q 40.140625 3.328125 35.546875 0.953125 
Q 30.953125 -1.421875 24.3125 -1.421875 
Q 15.921875 -1.421875 10.953125 3.296875 
Q 6 8.015625 6 15.921875 
Q 6 25.140625 12.171875 29.828125 
Q 18.359375 34.515625 30.609375 34.515625 
L 43.21875 34.515625 
L 43.21875 35.40625 
Q 43.21875 41.609375 39.140625 45 
Q 35.0625 48.390625 27.6875 48.390625 
Q 23 48.390625 18.546875 47.265625 
Q 14.109375 46.140625 10.015625 43.890625 
L 10.015625 52.203125 
Q 14.9375 54.109375 19.578125 55.046875 
Q 24.21875 56 28.609375 56 
Q 40.484375 56 46.34375 49.84375 
Q 52.203125 43.703125 52.203125 31.203125 
z
" id="DejaVuSans-61"/>
      <path d="M 9.421875 54.6875 
L 18.40625 54.6875 
L 18.40625 0 
L 9.421875 0 
z
M 9.421875 75.984375 
L 18.40625 75.984375 
L 18.40625 64.59375 
L 9.421875 64.59375 
z
" id="DejaVuSans-69"/>
      <path d="M 44.28125 53.078125 
L 44.28125 44.578125 
Q 40.484375 46.53125 36.375 47.5 
Q 32.28125 48.484375 27.875 48.484375 
Q 21.1875 48.484375 17.84375 46.4375 
Q 14.5 44.390625 14.5 40.28125 
Q 14.5 37.15625 16.890625 35.375 
Q 19.28125 33.59375 26.515625 31.984375 
L 29.59375 31.296875 
Q 39.15625 29.25 43.1875 25.515625 
Q 47.21875 21.78125 47.21875 15.09375 
Q 47.21875 7.46875 41.1875 3.015625 
Q 35.15625 -1.421875 24.609375 -1.421875 
Q 20.21875 -1.421875 15.453125 -0.5625 
Q 10.6875 0.296875 5.421875 2 
L 5.421875 11.28125 
Q 10.40625 8.6875 15.234375 7.390625 
Q 20.0625 6.109375 24.8125 6.109375 
Q 31.15625 6.109375 34.5625 8.28125 
Q 37.984375 10.453125 37.984375 14.40625 
Q 37.984375 18.0625 35.515625 20.015625 
Q 33.0625 21.96875 24.703125 23.78125 
L 21.578125 24.515625 
Q 13.234375 26.265625 9.515625 29.90625 
Q 5.8125 33.546875 5.8125 39.890625 
Q 5.8125 47.609375 11.28125 51.796875 
Q 16.75 56 26.8125 56 
Q 31.78125 56 36.171875 55.265625 
Q 40.578125 54.546875 44.28125 53.078125 
z
" id="DejaVuSans-73"/>
     </defs>
     <g transform="translate(194.821875 268.034688)scale(0.1 -0.1)">
      <use xlink:href="#DejaVuSans-78"/>
      <use x="59.179688" xlink:href="#DejaVuSans-5f"/>
      <use x="109.179688" xlink:href="#DejaVuSans-61"/>
      <use x="170.458984" xlink:href="#DejaVuSans-78"/>
      <use x="229.638672" xlink:href="#DejaVuSans-69"/>
      <use x="257.421875" xlink:href="#DejaVuSans-73"/>
     </g>
    </g>
   </g>
   <g id="matplotlib.axis_2">
    <g id="ytick_1">
     <g id="line2d_19">
      <path clip-path="url(#p6af07ed2ac)" d="M 42.898438 239.758125 
L 377.698438 239.758125 
" style="fill:none;stroke:#b0b0b0;stroke-dasharray:2,3.3;stroke-dashoffset:0;stroke-width:2;"/>
     </g>
     <g id="line2d_20">
      <defs>
       <path d="M 0 0 
L -3.5 0 
" id="m67e11d1eb7" style="stroke:#000000;stroke-width:0.8;"/>
      </defs>
      <g>
       <use style="stroke:#000000;stroke-width:0.8;" x="42.898438" xlink:href="#m67e11d1eb7" y="239.758125"/>
      </g>
     </g>
     <g id="text_11">
      <!-- −3 -->
      <defs>
       <path d="M 10.59375 35.5 
L 73.1875 35.5 
L 73.1875 27.203125 
L 10.59375 27.203125 
z
" id="DejaVuSans-2212"/>
      </defs>
      <g transform="translate(21.15625 243.557344)scale(0.1 -0.1)">
       <use xlink:href="#DejaVuSans-2212"/>
       <use x="83.789062" xlink:href="#DejaVuSans-33"/>
      </g>
     </g>
    </g>
    <g id="ytick_2">
     <g id="line2d_21">
      <path clip-path="url(#p6af07ed2ac)" d="M 42.898438 203.518125 
L 377.698438 203.518125 
" style="fill:none;stroke:#b0b0b0;stroke-dasharray:2,3.3;stroke-dashoffset:0;stroke-width:2;"/>
     </g>
     <g id="line2d_22">
      <g>
       <use style="stroke:#000000;stroke-width:0.8;" x="42.898438" xlink:href="#m67e11d1eb7" y="203.518125"/>
      </g>
     </g>
     <g id="text_12">
      <!-- −2 -->
      <g transform="translate(21.15625 207.317344)scale(0.1 -0.1)">
       <use xlink:href="#DejaVuSans-2212"/>
       <use x="83.789062" xlink:href="#DejaVuSans-32"/>
      </g>
     </g>
    </g>
    <g id="ytick_3">
     <g id="line2d_23">
      <path clip-path="url(#p6af07ed2ac)" d="M 42.898438 167.278125 
L 377.698438 167.278125 
" style="fill:none;stroke:#b0b0b0;stroke-dasharray:2,3.3;stroke-dashoffset:0;stroke-width:2;"/>
     </g>
     <g id="line2d_24">
      <g>
       <use style="stroke:#000000;stroke-width:0.8;" x="42.898438" xlink:href="#m67e11d1eb7" y="167.278125"/>
      </g>
     </g>
     <g id="text_13">
      <!-- −1 -->
      <g transform="translate(21.15625 171.077344)scale(0.1 -0.1)">
       <use xlink:href="#DejaVuSans-2212"/>
       <use x="83.789062" xlink:href="#DejaVuSans-31"/>
      </g>
     </g>
    </g>
    <g id="ytick_4">
     <g id="line2d_25">
      <path clip-path="url(#p6af07ed2ac)" d="M 42.898438 131.038125 
L 377.698438 131.038125 
" style="fill:none;stroke:#b0b0b0;stroke-dasharray:2,3.3;stroke-dashoffset:0;stroke-width:2;"/>
     </g>
     <g id="line2d_26">
      <g>
       <use style="stroke:#000000;stroke-width:0.8;" x="42.898438" xlink:href="#m67e11d1eb7" y="131.038125"/>
      </g>
     </g>
     <g id="text_14">
      <!-- 0 -->
      <g transform="translate(29.535937 134.837344)scale(0.1 -0.1)">
       <use xlink:href="#DejaVuSans-30"/>
      </g>
     </g>
    </g>
    <g id="ytick_5">
     <g id="line2d_27">
      <path clip-path="url(#p6af07ed2ac)" d="M 42.898438 94.798125 
L 377.698438 94.798125 
" style="fill:none;stroke:#b0b0b0;stroke-dasharray:2,3.3;stroke-dashoffset:0;stroke-width:2;"/>
     </g>
     <g id="line2d_28">
      <g>
       <use style="stroke:#000000;stroke-width:0.8;" x="42.898438" xlink:href="#m67e11d1eb7" y="94.798125"/>
      </g>
     </g>
     <g id="text_15">
      <!-- 1 -->
      <g transform="translate(29.535937 98.597344)scale(0.1 -0.1)">
       <use xlink:href="#DejaVuSans-31"/>
      </g>
     </g>
    </g>
    <g id="ytick_6">
     <g id="line2d_29">
      <path clip-path="url(#p6af07ed2ac)" d="M 42.898438 58.558125 
L 377.698438 58.558125 
" style="fill:none;stroke:#b0b0b0;stroke-dasharray:2,3.3;stroke-dashoffset:0;stroke-width:2;"/>
     </g>
     <g id="line2d_30">
      <g>
       <use style="stroke:#000000;stroke-width:0.8;" x="42.898438" xlink:href="#m67e11d1eb7" y="58.558125"/>
      </g>
     </g>
     <g id="text_16">
      <!-- 2 -->
      <g transform="translate(29.535937 62.357344)scale(0.1 -0.1)">
       <use xlink:href="#DejaVuSans-32"/>
      </g>
     </g>
    </g>
    <g id="ytick_7">
     <g id="line2d_31">
      <path clip-path="url(#p6af07ed2ac)" d="M 42.898438 22.318125 
L 377.698438 22.318125 
" style="fill:none;stroke:#b0b0b0;stroke-dasharray:2,3.3;stroke-dashoffset:0;stroke-width:2;"/>
     </g>
     <g id="line2d_32">
      <g>
       <use style="stroke:#000000;stroke-width:0.8;" x="42.898438" xlink:href="#m67e11d1eb7" y="22.318125"/>
      </g>
     </g>
     <g id="text_17">
      <!-- 3 -->
      <g transform="translate(29.535937 26.117344)scale(0.1 -0.1)">
       <use xlink:href="#DejaVuSans-33"/>
      </g>
     </g>
    </g>
    <g id="text_18">
     <!-- y_axis -->
     <defs>
      <path d="M 32.171875 -5.078125 
Q 28.375 -14.84375 24.75 -17.8125 
Q 21.140625 -20.796875 15.09375 -20.796875 
L 7.90625 -20.796875 
L 7.90625 -13.28125 
L 13.1875 -13.28125 
Q 16.890625 -13.28125 18.9375 -11.515625 
Q 21 -9.765625 23.484375 -3.21875 
L 25.09375 0.875 
L 2.984375 54.6875 
L 12.5 54.6875 
L 29.59375 11.921875 
L 46.6875 54.6875 
L 56.203125 54.6875 
z
" id="DejaVuSans-79"/>
     </defs>
     <g transform="translate(14.798437 146.514688)rotate(-90)scale(0.1 -0.1)">
      <use xlink:href="#DejaVuSans-79"/>
      <use x="59.179688" xlink:href="#DejaVuSans-5f"/>
      <use x="109.179688" xlink:href="#DejaVuSans-61"/>
      <use x="170.458984" xlink:href="#DejaVuSans-78"/>
      <use x="229.638672" xlink:href="#DejaVuSans-69"/>
      <use x="257.421875" xlink:href="#DejaVuSans-73"/>
     </g>
    </g>
   </g>
   <g id="line2d_33">
    <path clip-path="url(#p6af07ed2ac)" d="M 84.748437 113.663743 
L 87.284801 112.708122 
L 89.821165 111.769332 
L 92.357528 110.848234 
L 94.893892 109.945675 
L 97.430256 109.062483 
L 99.966619 108.199469 
L 102.502983 107.357425 
L 105.039347 106.537125 
L 107.57571 105.739322 
L 110.112074 104.964749 
L 112.648438 104.214116 
L 115.184801 103.488113 
L 117.721165 102.787406 
L 120.257528 102.11264 
L 122.793892 101.464433 
L 125.330256 100.843381 
L 127.866619 100.250053 
L 130.402983 99.684995 
L 132.939347 99.148726 
L 135.47571 98.641738 
L 138.012074 98.164496 
L 140.548438 97.717439 
L 143.084801 97.300977 
L 145.621165 96.915493 
L 148.157528 96.56134 
L 150.693892 96.238844 
L 153.230256 95.9483 
L 155.766619 95.689977 
L 158.302983 95.46411 
L 160.839347 95.270907 
L 163.37571 95.110546 
L 165.912074 94.983173 
L 168.448438 94.888907 
L 170.984801 94.827832 
L 173.521165 94.800007 
L 176.057528 94.805455 
L 178.593892 94.844172 
L 181.130256 94.916122 
L 183.666619 95.02124 
L 186.202983 95.159429 
L 188.739347 95.330561 
L 191.27571 95.534481 
L 193.812074 95.771 
L 196.348438 96.039901 
L 198.884801 96.340938 
L 201.421165 96.673834 
L 203.957528 97.038283 
L 206.493892 97.433951 
L 209.030256 97.860475 
L 211.566619 98.317462 
L 214.102983 98.804494 
L 216.639347 99.321123 
L 219.17571 99.866874 
L 221.712074 100.441247 
L 224.248438 101.043714 
L 226.784801 101.673722 
L 229.321165 102.330692 
L 231.857528 103.014022 
L 234.393892 103.723084 
L 236.930256 104.457226 
L 239.466619 105.215775 
L 242.002983 105.998034 
L 244.539347 106.803285 
L 247.07571 107.630789 
L 249.612074 108.479785 
L 252.148438 109.349494 
L 254.684801 110.239118 
L 257.221165 111.14784 
L 259.757528 112.074825 
L 262.293892 113.019222 
L 264.830256 113.980165 
L 267.366619 114.95677 
L 269.902983 115.94814 
L 272.439347 116.953367 
L 274.97571 117.971526 
L 277.512074 119.001683 
L 280.048438 120.042892 
L 282.584801 121.094197 
L 285.121165 122.154632 
L 287.657528 123.223224 
L 290.193892 124.298992 
L 292.730256 125.380948 
L 295.266619 126.468098 
L 297.802983 127.559444 
L 300.339347 128.653985 
L 302.87571 129.750715 
L 305.412074 130.848626 
L 307.948438 131.946712 
L 310.484801 133.043963 
L 313.021165 134.139373 
L 315.557528 135.231935 
L 318.093892 136.320647 
L 320.630256 137.404508 
L 323.166619 138.482523 
L 325.702983 139.553703 
L 328.239347 140.617064 
L 330.77571 141.671629 
L 333.312074 142.716431 
L 335.848437 143.750509 
" style="fill:none;stroke:#1f77b4;stroke-dasharray:7.4,3.2;stroke-dashoffset:0;stroke-width:2;"/>
   </g>
   <g id="line2d_34">
    <path clip-path="url(#p6af07ed2ac)" d="M 42.898438 131.038125 
L 377.698438 131.038125 
" style="fill:none;stroke:#ff0000;stroke-dasharray:7.4,3.2;stroke-dashoffset:0;stroke-width:2;"/>
   </g>
   <g id="patch_4">
    <path d="M 42.898438 239.758125 
L 42.898438 22.318125 
" style="fill:none;stroke:#000000;stroke-linecap:square;stroke-linejoin:miter;stroke-width:0.8;"/>
   </g>
   <g id="patch_5">
    <path d="M 377.698438 239.758125 
L 377.698438 22.318125 
" style="fill:none;stroke:#000000;stroke-linecap:square;stroke-linejoin:miter;stroke-width:0.8;"/>
   </g>
   <g id="patch_6">
    <path d="M 42.898438 239.758125 
L 377.698438 239.758125 
" style="fill:none;stroke:#000000;stroke-linecap:square;stroke-linejoin:miter;stroke-width:0.8;"/>
   </g>
   <g id="patch_7">
    <path d="M 42.898438 22.318125 
L 377.698438 22.318125 
" style="fill:none;stroke:#000000;stroke-linecap:square;stroke-linejoin:miter;stroke-width:0.8;"/>
   </g>
   <g id="patch_8">
    <path d="M 199.537865 81.682087 
Q 187.842178 87.778195 177.13793 93.357537 
" style="fill:none;stroke:#ff0000;stroke-linecap:round;"/>
    <path d="M 181.609432 93.282243 
L 177.13793 93.357537 
L 179.760596 89.735159 
" style="fill:none;stroke:#ff0000;stroke-linecap:round;"/>
   </g>
   <g id="text_19">
    <!-- maximum -->
    <defs>
     <path d="M 59.078125 45.609375 
Q 62.40625 50.6875 66.96875 53.34375 
Q 71.53125 56 77 56 
Q 86.421875 56 91.359375 50.1875 
Q 96.296875 44.390625 96.296875 33.296875 
L 96.296875 0 
L 78.71875 0 
L 78.71875 28.515625 
Q 78.765625 29.15625 78.78125 29.828125 
Q 78.8125 30.515625 78.8125 31.78125 
Q 78.8125 37.59375 77.09375 40.203125 
Q 75.390625 42.828125 71.578125 42.828125 
Q 66.609375 42.828125 63.890625 38.71875 
Q 61.1875 34.625 61.078125 26.859375 
L 61.078125 0 
L 43.5 0 
L 43.5 28.515625 
Q 43.5 37.59375 41.9375 40.203125 
Q 40.375 42.828125 36.375 42.828125 
Q 31.34375 42.828125 28.609375 38.703125 
Q 25.875 34.578125 25.875 26.90625 
L 25.875 0 
L 8.296875 0 
L 8.296875 54.6875 
L 25.875 54.6875 
L 25.875 46.6875 
Q 29.109375 51.3125 33.28125 53.65625 
Q 37.453125 56 42.484375 56 
Q 48.140625 56 52.484375 53.265625 
Q 56.84375 50.53125 59.078125 45.609375 
z
" id="DejaVuSans-Bold-6d"/>
     <path d="M 32.90625 24.609375 
Q 27.4375 24.609375 24.671875 22.75 
Q 21.921875 20.90625 21.921875 17.28125 
Q 21.921875 13.96875 24.140625 12.078125 
Q 26.375 10.203125 30.328125 10.203125 
Q 35.25 10.203125 38.625 13.734375 
Q 42 17.28125 42 22.609375 
L 42 24.609375 
z
M 59.625 31.203125 
L 59.625 0 
L 42 0 
L 42 8.109375 
Q 38.484375 3.125 34.078125 0.84375 
Q 29.6875 -1.421875 23.390625 -1.421875 
Q 14.890625 -1.421875 9.59375 3.53125 
Q 4.296875 8.5 4.296875 16.40625 
Q 4.296875 26.03125 10.90625 30.515625 
Q 17.53125 35.015625 31.6875 35.015625 
L 42 35.015625 
L 42 36.375 
Q 42 40.53125 38.71875 42.453125 
Q 35.453125 44.390625 28.515625 44.390625 
Q 22.90625 44.390625 18.0625 43.265625 
Q 13.234375 42.140625 9.078125 39.890625 
L 9.078125 53.21875 
Q 14.703125 54.59375 20.359375 55.296875 
Q 26.03125 56 31.6875 56 
Q 46.484375 56 53.046875 50.171875 
Q 59.625 44.34375 59.625 31.203125 
z
" id="DejaVuSans-Bold-61"/>
     <path d="M 22.21875 27.984375 
L 2.484375 54.6875 
L 21 54.6875 
L 32.171875 38.484375 
L 43.5 54.6875 
L 62.015625 54.6875 
L 42.28125 28.078125 
L 62.984375 0 
L 44.484375 0 
L 32.171875 17.28125 
L 20.015625 0 
L 1.515625 0 
z
" id="DejaVuSans-Bold-78"/>
     <path d="M 8.40625 54.6875 
L 25.875 54.6875 
L 25.875 0 
L 8.40625 0 
z
M 8.40625 75.984375 
L 25.875 75.984375 
L 25.875 61.71875 
L 8.40625 61.71875 
z
" id="DejaVuSans-Bold-69"/>
     <path d="M 7.8125 21.296875 
L 7.8125 54.6875 
L 25.390625 54.6875 
L 25.390625 49.21875 
Q 25.390625 44.78125 25.34375 38.0625 
Q 25.296875 31.34375 25.296875 29.109375 
Q 25.296875 22.515625 25.640625 19.609375 
Q 25.984375 16.703125 26.8125 15.375 
Q 27.875 13.671875 29.609375 12.734375 
Q 31.34375 11.8125 33.59375 11.8125 
Q 39.0625 11.8125 42.1875 16.015625 
Q 45.3125 20.21875 45.3125 27.6875 
L 45.3125 54.6875 
L 62.796875 54.6875 
L 62.796875 0 
L 45.3125 0 
L 45.3125 7.90625 
Q 41.359375 3.125 36.9375 0.84375 
Q 32.515625 -1.421875 27.203125 -1.421875 
Q 17.71875 -1.421875 12.765625 4.390625 
Q 7.8125 10.203125 7.8125 21.296875 
z
" id="DejaVuSans-Bold-75"/>
    </defs>
    <g style="fill:#ff0000;" transform="translate(186.92909 76.678125)scale(0.1 -0.1)">
     <use xlink:href="#DejaVuSans-Bold-6d"/>
     <use x="104.199219" xlink:href="#DejaVuSans-Bold-61"/>
     <use x="171.679688" xlink:href="#DejaVuSans-Bold-78"/>
     <use x="236.181641" xlink:href="#DejaVuSans-Bold-69"/>
     <use x="270.458984" xlink:href="#DejaVuSans-Bold-6d"/>
     <use x="374.658203" xlink:href="#DejaVuSans-Bold-75"/>
     <use x="445.849609" xlink:href="#DejaVuSans-Bold-6d"/>
    </g>
   </g>
   <g id="patch_9">
    <path d="M 94.788105 218.436128 
Q 99.775665 228.205674 104.254862 236.979445 
" style="fill:none;stroke:#0000ff;stroke-linecap:round;"/>
    <path d="M 104.217379 232.507466 
L 104.254862 236.979445 
L 100.654789 234.326244 
" style="fill:none;stroke:#0000ff;stroke-linecap:round;"/>
   </g>
   <g id="text_20">
    <!-- spines -->
    <defs>
     <path d="M 51.125 52.984375 
L 51.125 39.703125 
Q 45.515625 42.046875 40.28125 43.21875 
Q 35.0625 44.390625 30.421875 44.390625 
Q 25.4375 44.390625 23.015625 43.140625 
Q 20.609375 41.890625 20.609375 39.3125 
Q 20.609375 37.203125 22.4375 36.078125 
Q 24.265625 34.96875 29 34.421875 
L 32.078125 33.984375 
Q 45.515625 32.28125 50.140625 28.375 
Q 54.78125 24.46875 54.78125 16.109375 
Q 54.78125 7.375 48.328125 2.96875 
Q 41.890625 -1.421875 29.109375 -1.421875 
Q 23.6875 -1.421875 17.890625 -0.5625 
Q 12.109375 0.296875 6 2 
L 6 15.28125 
Q 11.234375 12.75 16.71875 11.46875 
Q 22.21875 10.203125 27.875 10.203125 
Q 33.015625 10.203125 35.59375 11.609375 
Q 38.1875 13.03125 38.1875 15.828125 
Q 38.1875 18.171875 36.40625 19.3125 
Q 34.625 20.453125 29.296875 21.09375 
L 26.21875 21.484375 
Q 14.546875 22.953125 9.859375 26.90625 
Q 5.171875 30.859375 5.171875 38.921875 
Q 5.171875 47.609375 11.125 51.796875 
Q 17.09375 56 29.390625 56 
Q 34.234375 56 39.546875 55.265625 
Q 44.875 54.546875 51.125 52.984375 
z
" id="DejaVuSans-Bold-73"/>
     <path d="M 25.875 7.90625 
L 25.875 -20.796875 
L 8.40625 -20.796875 
L 8.40625 54.6875 
L 25.875 54.6875 
L 25.875 46.6875 
Q 29.5 51.46875 33.890625 53.734375 
Q 38.28125 56 44 56 
Q 54.109375 56 60.59375 47.96875 
Q 67.09375 39.9375 67.09375 27.296875 
Q 67.09375 14.65625 60.59375 6.609375 
Q 54.109375 -1.421875 44 -1.421875 
Q 38.28125 -1.421875 33.890625 0.84375 
Q 29.5 3.125 25.875 7.90625 
z
M 37.5 43.3125 
Q 31.890625 43.3125 28.875 39.1875 
Q 25.875 35.0625 25.875 27.296875 
Q 25.875 19.53125 28.875 15.40625 
Q 31.890625 11.28125 37.5 11.28125 
Q 43.109375 11.28125 46.0625 15.375 
Q 49.03125 19.484375 49.03125 27.296875 
Q 49.03125 35.109375 46.0625 39.203125 
Q 43.109375 43.3125 37.5 43.3125 
z
" id="DejaVuSans-Bold-70"/>
     <path d="M 63.375 33.296875 
L 63.375 0 
L 45.796875 0 
L 45.796875 5.421875 
L 45.796875 25.484375 
Q 45.796875 32.5625 45.484375 35.25 
Q 45.171875 37.9375 44.390625 39.203125 
Q 43.359375 40.921875 41.59375 41.875 
Q 39.84375 42.828125 37.59375 42.828125 
Q 32.125 42.828125 29 38.59375 
Q 25.875 34.375 25.875 26.90625 
L 25.875 0 
L 8.40625 0 
L 8.40625 54.6875 
L 25.875 54.6875 
L 25.875 46.6875 
Q 29.828125 51.46875 34.265625 53.734375 
Q 38.71875 56 44.09375 56 
Q 53.5625 56 58.46875 50.1875 
Q 63.375 44.390625 63.375 33.296875 
z
" id="DejaVuSans-Bold-6e"/>
     <path d="M 62.984375 27.484375 
L 62.984375 22.515625 
L 22.125 22.515625 
Q 22.75 16.359375 26.5625 13.28125 
Q 30.375 10.203125 37.203125 10.203125 
Q 42.71875 10.203125 48.5 11.84375 
Q 54.296875 13.484375 60.40625 16.796875 
L 60.40625 3.328125 
Q 54.203125 0.984375 48 -0.21875 
Q 41.796875 -1.421875 35.59375 -1.421875 
Q 20.75 -1.421875 12.515625 6.125 
Q 4.296875 13.671875 4.296875 27.296875 
Q 4.296875 40.671875 12.375 48.328125 
Q 20.453125 56 34.625 56 
Q 47.515625 56 55.25 48.234375 
Q 62.984375 40.484375 62.984375 27.484375 
z
M 45.015625 33.296875 
Q 45.015625 38.28125 42.109375 41.328125 
Q 39.203125 44.390625 34.515625 44.390625 
Q 29.4375 44.390625 26.265625 41.53125 
Q 23.09375 38.671875 22.3125 33.296875 
z
" id="DejaVuSans-Bold-65"/>
    </defs>
    <g style="fill:#0000ff;" transform="translate(72.193438 212.578125)scale(0.1 -0.1)">
     <use xlink:href="#DejaVuSans-Bold-73"/>
     <use x="59.521484" xlink:href="#DejaVuSans-Bold-70"/>
     <use x="131.103516" xlink:href="#DejaVuSans-Bold-69"/>
     <use x="165.380859" xlink:href="#DejaVuSans-Bold-6e"/>
     <use x="236.572266" xlink:href="#DejaVuSans-Bold-65"/>
     <use x="304.394531" xlink:href="#DejaVuSans-Bold-73"/>
    </g>
   </g>
   <g id="patch_10">
    <path d="M 74.584282 216.008273 
Q 59.636779 223.450951 45.690106 230.395294 
" style="fill:none;stroke:#0000ff;stroke-linecap:round;"/>
    <path d="M 50.162236 230.402738 
L 45.690106 230.395294 
L 48.379339 226.822056 
" style="fill:none;stroke:#0000ff;stroke-linecap:round;"/>
   </g>
   <g id="patch_11">
    <path d="M 342.945364 230.42951 
Q 340.033649 233.959469 337.833359 236.626946 
" style="fill:none;stroke:#0000ff;stroke-linecap:round;"/>
    <path d="M 341.921484 234.813874 
L 337.833359 236.626946 
L 338.835776 232.268602 
" style="fill:none;stroke:#0000ff;stroke-linecap:round;"/>
   </g>
   <g id="text_21">
    <!-- | is tickline -->
    <defs>
     <path d="M 23.78125 76.421875 
L 23.78125 -23.578125 
L 12.703125 -23.578125 
L 12.703125 76.421875 
z
" id="DejaVuSans-Bold-7c"/>
     <path id="DejaVuSans-Bold-20"/>
     <path d="M 27.484375 70.21875 
L 27.484375 54.6875 
L 45.515625 54.6875 
L 45.515625 42.1875 
L 27.484375 42.1875 
L 27.484375 19 
Q 27.484375 15.1875 29 13.84375 
Q 30.515625 12.5 35.015625 12.5 
L 44 12.5 
L 44 0 
L 29 0 
Q 18.65625 0 14.328125 4.3125 
Q 10.015625 8.640625 10.015625 19 
L 10.015625 42.1875 
L 1.3125 42.1875 
L 1.3125 54.6875 
L 10.015625 54.6875 
L 10.015625 70.21875 
z
" id="DejaVuSans-Bold-74"/>
     <path d="M 52.59375 52.984375 
L 52.59375 38.71875 
Q 49.03125 41.15625 45.4375 42.328125 
Q 41.84375 43.5 37.984375 43.5 
Q 30.671875 43.5 26.59375 39.234375 
Q 22.515625 34.96875 22.515625 27.296875 
Q 22.515625 19.625 26.59375 15.34375 
Q 30.671875 11.078125 37.984375 11.078125 
Q 42.09375 11.078125 45.78125 12.296875 
Q 49.46875 13.53125 52.59375 15.921875 
L 52.59375 1.609375 
Q 48.484375 0.09375 44.265625 -0.65625 
Q 40.046875 -1.421875 35.796875 -1.421875 
Q 21 -1.421875 12.640625 6.171875 
Q 4.296875 13.765625 4.296875 27.296875 
Q 4.296875 40.828125 12.640625 48.40625 
Q 21 56 35.796875 56 
Q 40.09375 56 44.265625 55.25 
Q 48.4375 54.5 52.59375 52.984375 
z
" id="DejaVuSans-Bold-63"/>
     <path d="M 8.40625 75.984375 
L 25.875 75.984375 
L 25.875 34.625 
L 46 54.6875 
L 66.3125 54.6875 
L 39.59375 29.59375 
L 68.40625 0 
L 47.21875 0 
L 25.875 22.796875 
L 25.875 0 
L 8.40625 0 
z
" id="DejaVuSans-Bold-6b"/>
     <path d="M 8.40625 75.984375 
L 25.875 75.984375 
L 25.875 0 
L 8.40625 0 
z
" id="DejaVuSans-Bold-6c"/>
    </defs>
    <g style="fill:#0000ff;" transform="translate(344.218437 228.886125)scale(0.1 -0.1)">
     <use xlink:href="#DejaVuSans-Bold-7c"/>
     <use x="36.523438" xlink:href="#DejaVuSans-Bold-20"/>
     <use x="71.337891" xlink:href="#DejaVuSans-Bold-69"/>
     <use x="105.615234" xlink:href="#DejaVuSans-Bold-73"/>
     <use x="165.136719" xlink:href="#DejaVuSans-Bold-20"/>
     <use x="199.951172" xlink:href="#DejaVuSans-Bold-74"/>
     <use x="247.753906" xlink:href="#DejaVuSans-Bold-69"/>
     <use x="282.03125" xlink:href="#DejaVuSans-Bold-63"/>
     <use x="341.308594" xlink:href="#DejaVuSans-Bold-6b"/>
     <use x="407.8125" xlink:href="#DejaVuSans-Bold-6c"/>
     <use x="442.089844" xlink:href="#DejaVuSans-Bold-69"/>
     <use x="476.367188" xlink:href="#DejaVuSans-Bold-6e"/>
     <use x="547.558594" xlink:href="#DejaVuSans-Bold-65"/>
    </g>
   </g>
   <g id="text_22">
    <!-- 3.5 is ticklabel -->
    <defs>
     <path d="M 46.578125 39.3125 
Q 53.953125 37.40625 57.78125 32.6875 
Q 61.625 27.984375 61.625 20.703125 
Q 61.625 9.859375 53.3125 4.21875 
Q 45.015625 -1.421875 29.109375 -1.421875 
Q 23.484375 -1.421875 17.84375 -0.515625 
Q 12.203125 0.390625 6.6875 2.203125 
L 6.6875 16.703125 
Q 11.96875 14.0625 17.15625 12.71875 
Q 22.359375 11.375 27.390625 11.375 
Q 34.859375 11.375 38.84375 13.953125 
Q 42.828125 16.546875 42.828125 21.390625 
Q 42.828125 26.375 38.75 28.9375 
Q 34.671875 31.5 26.703125 31.5 
L 19.1875 31.5 
L 19.1875 43.609375 
L 27.09375 43.609375 
Q 34.1875 43.609375 37.640625 45.828125 
Q 41.109375 48.046875 41.109375 52.59375 
Q 41.109375 56.78125 37.734375 59.078125 
Q 34.375 61.375 28.21875 61.375 
Q 23.6875 61.375 19.046875 60.34375 
Q 14.40625 59.328125 9.8125 57.328125 
L 9.8125 71.09375 
Q 15.375 72.65625 20.84375 73.4375 
Q 26.3125 74.21875 31.59375 74.21875 
Q 45.796875 74.21875 52.84375 69.546875 
Q 59.90625 64.890625 59.90625 55.515625 
Q 59.90625 49.125 56.53125 45.046875 
Q 53.171875 40.96875 46.578125 39.3125 
z
" id="DejaVuSans-Bold-33"/>
     <path d="M 10.203125 18.890625 
L 27.78125 18.890625 
L 27.78125 0 
L 10.203125 0 
z
" id="DejaVuSans-Bold-2e"/>
     <path d="M 10.59375 72.90625 
L 57.328125 72.90625 
L 57.328125 59.078125 
L 25.59375 59.078125 
L 25.59375 47.796875 
Q 27.734375 48.390625 29.90625 48.703125 
Q 32.078125 49.03125 34.421875 49.03125 
Q 47.75 49.03125 55.171875 42.359375 
Q 62.59375 35.6875 62.59375 23.78125 
Q 62.59375 11.96875 54.515625 5.265625 
Q 46.4375 -1.421875 32.078125 -1.421875 
Q 25.875 -1.421875 19.796875 -0.21875 
Q 13.71875 0.984375 7.71875 3.421875 
L 7.71875 18.21875 
Q 13.671875 14.796875 19.015625 13.078125 
Q 24.359375 11.375 29.109375 11.375 
Q 35.9375 11.375 39.859375 14.71875 
Q 43.796875 18.0625 43.796875 23.78125 
Q 43.796875 29.546875 39.859375 32.859375 
Q 35.9375 36.1875 29.109375 36.1875 
Q 25.046875 36.1875 20.453125 35.125 
Q 15.875 34.078125 10.59375 31.890625 
z
" id="DejaVuSans-Bold-35"/>
     <path d="M 37.5 11.28125 
Q 43.109375 11.28125 46.0625 15.375 
Q 49.03125 19.484375 49.03125 27.296875 
Q 49.03125 35.109375 46.0625 39.203125 
Q 43.109375 43.3125 37.5 43.3125 
Q 31.890625 43.3125 28.875 39.1875 
Q 25.875 35.0625 25.875 27.296875 
Q 25.875 19.53125 28.875 15.40625 
Q 31.890625 11.28125 37.5 11.28125 
z
M 25.875 46.6875 
Q 29.5 51.46875 33.890625 53.734375 
Q 38.28125 56 44 56 
Q 54.109375 56 60.59375 47.96875 
Q 67.09375 39.9375 67.09375 27.296875 
Q 67.09375 14.65625 60.59375 6.609375 
Q 54.109375 -1.421875 44 -1.421875 
Q 38.28125 -1.421875 33.890625 0.84375 
Q 29.5 3.125 25.875 7.90625 
L 25.875 0 
L 8.40625 0 
L 8.40625 75.984375 
L 25.875 75.984375 
z
" id="DejaVuSans-Bold-62"/>
    </defs>
    <g style="fill:#0000ff;" transform="translate(344.218437 237.946125)scale(0.1 -0.1)">
     <use xlink:href="#DejaVuSans-Bold-33"/>
     <use x="69.580078" xlink:href="#DejaVuSans-Bold-2e"/>
     <use x="107.568359" xlink:href="#DejaVuSans-Bold-35"/>
     <use x="177.148438" xlink:href="#DejaVuSans-Bold-20"/>
     <use x="211.962891" xlink:href="#DejaVuSans-Bold-69"/>
     <use x="246.240234" xlink:href="#DejaVuSans-Bold-73"/>
     <use x="305.761719" xlink:href="#DejaVuSans-Bold-20"/>
     <use x="340.576172" xlink:href="#DejaVuSans-Bold-74"/>
     <use x="388.378906" xlink:href="#DejaVuSans-Bold-69"/>
     <use x="422.65625" xlink:href="#DejaVuSans-Bold-63"/>
     <use x="481.933594" xlink:href="#DejaVuSans-Bold-6b"/>
     <use x="548.4375" xlink:href="#DejaVuSans-Bold-6c"/>
     <use x="582.714844" xlink:href="#DejaVuSans-Bold-61"/>
     <use x="650.195312" xlink:href="#DejaVuSans-Bold-62"/>
     <use x="721.777344" xlink:href="#DejaVuSans-Bold-65"/>
     <use x="789.599609" xlink:href="#DejaVuSans-Bold-6c"/>
    </g>
   </g>
   <g id="text_23">
    <!-- structure of matplotlib -->
    <defs>
     <path d="M 18.3125 70.21875 
L 18.3125 54.6875 
L 36.8125 54.6875 
L 36.8125 47.703125 
L 18.3125 47.703125 
L 18.3125 18.015625 
Q 18.3125 11.328125 20.140625 9.421875 
Q 21.96875 7.515625 27.59375 7.515625 
L 36.8125 7.515625 
L 36.8125 0 
L 27.59375 0 
Q 17.1875 0 13.234375 3.875 
Q 9.28125 7.765625 9.28125 18.015625 
L 9.28125 47.703125 
L 2.6875 47.703125 
L 2.6875 54.6875 
L 9.28125 54.6875 
L 9.28125 70.21875 
z
" id="DejaVuSans-74"/>
     <path d="M 41.109375 46.296875 
Q 39.59375 47.171875 37.8125 47.578125 
Q 36.03125 48 33.890625 48 
Q 26.265625 48 22.1875 43.046875 
Q 18.109375 38.09375 18.109375 28.8125 
L 18.109375 0 
L 9.078125 0 
L 9.078125 54.6875 
L 18.109375 54.6875 
L 18.109375 46.1875 
Q 20.953125 51.171875 25.484375 53.578125 
Q 30.03125 56 36.53125 56 
Q 37.453125 56 38.578125 55.875 
Q 39.703125 55.765625 41.0625 55.515625 
z
" id="DejaVuSans-72"/>
     <path d="M 8.5 21.578125 
L 8.5 54.6875 
L 17.484375 54.6875 
L 17.484375 21.921875 
Q 17.484375 14.15625 20.5 10.265625 
Q 23.53125 6.390625 29.59375 6.390625 
Q 36.859375 6.390625 41.078125 11.03125 
Q 45.3125 15.671875 45.3125 23.6875 
L 45.3125 54.6875 
L 54.296875 54.6875 
L 54.296875 0 
L 45.3125 0 
L 45.3125 8.40625 
Q 42.046875 3.421875 37.71875 1 
Q 33.40625 -1.421875 27.6875 -1.421875 
Q 18.265625 -1.421875 13.375 4.4375 
Q 8.5 10.296875 8.5 21.578125 
z
M 31.109375 56 
z
" id="DejaVuSans-75"/>
     <path d="M 48.78125 52.59375 
L 48.78125 44.1875 
Q 44.96875 46.296875 41.140625 47.34375 
Q 37.3125 48.390625 33.40625 48.390625 
Q 24.65625 48.390625 19.8125 42.84375 
Q 14.984375 37.3125 14.984375 27.296875 
Q 14.984375 17.28125 19.8125 11.734375 
Q 24.65625 6.203125 33.40625 6.203125 
Q 37.3125 6.203125 41.140625 7.25 
Q 44.96875 8.296875 48.78125 10.40625 
L 48.78125 2.09375 
Q 45.015625 0.34375 40.984375 -0.53125 
Q 36.96875 -1.421875 32.421875 -1.421875 
Q 20.0625 -1.421875 12.78125 6.34375 
Q 5.515625 14.109375 5.515625 27.296875 
Q 5.515625 40.671875 12.859375 48.328125 
Q 20.21875 56 33.015625 56 
Q 37.15625 56 41.109375 55.140625 
Q 45.0625 54.296875 48.78125 52.59375 
z
" id="DejaVuSans-63"/>
     <path d="M 56.203125 29.59375 
L 56.203125 25.203125 
L 14.890625 25.203125 
Q 15.484375 15.921875 20.484375 11.0625 
Q 25.484375 6.203125 34.421875 6.203125 
Q 39.59375 6.203125 44.453125 7.46875 
Q 49.3125 8.734375 54.109375 11.28125 
L 54.109375 2.78125 
Q 49.265625 0.734375 44.1875 -0.34375 
Q 39.109375 -1.421875 33.890625 -1.421875 
Q 20.796875 -1.421875 13.15625 6.1875 
Q 5.515625 13.8125 5.515625 26.8125 
Q 5.515625 40.234375 12.765625 48.109375 
Q 20.015625 56 32.328125 56 
Q 43.359375 56 49.78125 48.890625 
Q 56.203125 41.796875 56.203125 29.59375 
z
M 47.21875 32.234375 
Q 47.125 39.59375 43.09375 43.984375 
Q 39.0625 48.390625 32.421875 48.390625 
Q 24.90625 48.390625 20.390625 44.140625 
Q 15.875 39.890625 15.1875 32.171875 
z
" id="DejaVuSans-65"/>
     <path id="DejaVuSans-20"/>
     <path d="M 30.609375 48.390625 
Q 23.390625 48.390625 19.1875 42.75 
Q 14.984375 37.109375 14.984375 27.296875 
Q 14.984375 17.484375 19.15625 11.84375 
Q 23.34375 6.203125 30.609375 6.203125 
Q 37.796875 6.203125 41.984375 11.859375 
Q 46.1875 17.53125 46.1875 27.296875 
Q 46.1875 37.015625 41.984375 42.703125 
Q 37.796875 48.390625 30.609375 48.390625 
z
M 30.609375 56 
Q 42.328125 56 49.015625 48.375 
Q 55.71875 40.765625 55.71875 27.296875 
Q 55.71875 13.875 49.015625 6.21875 
Q 42.328125 -1.421875 30.609375 -1.421875 
Q 18.84375 -1.421875 12.171875 6.21875 
Q 5.515625 13.875 5.515625 27.296875 
Q 5.515625 40.765625 12.171875 48.375 
Q 18.84375 56 30.609375 56 
z
" id="DejaVuSans-6f"/>
     <path d="M 37.109375 75.984375 
L 37.109375 68.5 
L 28.515625 68.5 
Q 23.6875 68.5 21.796875 66.546875 
Q 19.921875 64.59375 19.921875 59.515625 
L 19.921875 54.6875 
L 34.71875 54.6875 
L 34.71875 47.703125 
L 19.921875 47.703125 
L 19.921875 0 
L 10.890625 0 
L 10.890625 47.703125 
L 2.296875 47.703125 
L 2.296875 54.6875 
L 10.890625 54.6875 
L 10.890625 58.5 
Q 10.890625 67.625 15.140625 71.796875 
Q 19.390625 75.984375 28.609375 75.984375 
z
" id="DejaVuSans-66"/>
     <path d="M 52 44.1875 
Q 55.375 50.25 60.0625 53.125 
Q 64.75 56 71.09375 56 
Q 79.640625 56 84.28125 50.015625 
Q 88.921875 44.046875 88.921875 33.015625 
L 88.921875 0 
L 79.890625 0 
L 79.890625 32.71875 
Q 79.890625 40.578125 77.09375 44.375 
Q 74.3125 48.1875 68.609375 48.1875 
Q 61.625 48.1875 57.5625 43.546875 
Q 53.515625 38.921875 53.515625 30.90625 
L 53.515625 0 
L 44.484375 0 
L 44.484375 32.71875 
Q 44.484375 40.625 41.703125 44.40625 
Q 38.921875 48.1875 33.109375 48.1875 
Q 26.21875 48.1875 22.15625 43.53125 
Q 18.109375 38.875 18.109375 30.90625 
L 18.109375 0 
L 9.078125 0 
L 9.078125 54.6875 
L 18.109375 54.6875 
L 18.109375 46.1875 
Q 21.1875 51.21875 25.484375 53.609375 
Q 29.78125 56 35.6875 56 
Q 41.65625 56 45.828125 52.96875 
Q 50 49.953125 52 44.1875 
z
" id="DejaVuSans-6d"/>
     <path d="M 18.109375 8.203125 
L 18.109375 -20.796875 
L 9.078125 -20.796875 
L 9.078125 54.6875 
L 18.109375 54.6875 
L 18.109375 46.390625 
Q 20.953125 51.265625 25.265625 53.625 
Q 29.59375 56 35.59375 56 
Q 45.5625 56 51.78125 48.09375 
Q 58.015625 40.1875 58.015625 27.296875 
Q 58.015625 14.40625 51.78125 6.484375 
Q 45.5625 -1.421875 35.59375 -1.421875 
Q 29.59375 -1.421875 25.265625 0.953125 
Q 20.953125 3.328125 18.109375 8.203125 
z
M 48.6875 27.296875 
Q 48.6875 37.203125 44.609375 42.84375 
Q 40.53125 48.484375 33.40625 48.484375 
Q 26.265625 48.484375 22.1875 42.84375 
Q 18.109375 37.203125 18.109375 27.296875 
Q 18.109375 17.390625 22.1875 11.75 
Q 26.265625 6.109375 33.40625 6.109375 
Q 40.53125 6.109375 44.609375 11.75 
Q 48.6875 17.390625 48.6875 27.296875 
z
" id="DejaVuSans-70"/>
     <path d="M 9.421875 75.984375 
L 18.40625 75.984375 
L 18.40625 0 
L 9.421875 0 
z
" id="DejaVuSans-6c"/>
     <path d="M 48.6875 27.296875 
Q 48.6875 37.203125 44.609375 42.84375 
Q 40.53125 48.484375 33.40625 48.484375 
Q 26.265625 48.484375 22.1875 42.84375 
Q 18.109375 37.203125 18.109375 27.296875 
Q 18.109375 17.390625 22.1875 11.75 
Q 26.265625 6.109375 33.40625 6.109375 
Q 40.53125 6.109375 44.609375 11.75 
Q 48.6875 17.390625 48.6875 27.296875 
z
M 18.109375 46.390625 
Q 20.953125 51.265625 25.265625 53.625 
Q 29.59375 56 35.59375 56 
Q 45.5625 56 51.78125 48.09375 
Q 58.015625 40.1875 58.015625 27.296875 
Q 58.015625 14.40625 51.78125 6.484375 
Q 45.5625 -1.421875 35.59375 -1.421875 
Q 29.59375 -1.421875 25.265625 0.953125 
Q 20.953125 3.328125 18.109375 8.203125 
L 18.109375 0 
L 9.078125 0 
L 9.078125 75.984375 
L 18.109375 75.984375 
z
" id="DejaVuSans-62"/>
    </defs>
    <g transform="translate(142.828438 16.318125)scale(0.12 -0.12)">
     <use xlink:href="#DejaVuSans-73"/>
     <use x="52.099609" xlink:href="#DejaVuSans-74"/>
     <use x="91.308594" xlink:href="#DejaVuSans-72"/>
     <use x="132.421875" xlink:href="#DejaVuSans-75"/>
     <use x="195.800781" xlink:href="#DejaVuSans-63"/>
     <use x="250.78125" xlink:href="#DejaVuSans-74"/>
     <use x="289.990234" xlink:href="#DejaVuSans-75"/>
     <use x="353.369141" xlink:href="#DejaVuSans-72"/>
     <use x="394.451172" xlink:href="#DejaVuSans-65"/>
     <use x="455.974609" xlink:href="#DejaVuSans-20"/>
     <use x="487.761719" xlink:href="#DejaVuSans-6f"/>
     <use x="548.943359" xlink:href="#DejaVuSans-66"/>
     <use x="584.148438" xlink:href="#DejaVuSans-20"/>
     <use x="615.935547" xlink:href="#DejaVuSans-6d"/>
     <use x="713.347656" xlink:href="#DejaVuSans-61"/>
     <use x="774.626953" xlink:href="#DejaVuSans-74"/>
     <use x="813.835938" xlink:href="#DejaVuSans-70"/>
     <use x="877.3125" xlink:href="#DejaVuSans-6c"/>
     <use x="905.095703" xlink:href="#DejaVuSans-6f"/>
     <use x="966.277344" xlink:href="#DejaVuSans-74"/>
     <use x="1005.486328" xlink:href="#DejaVuSans-6c"/>
     <use x="1033.269531" xlink:href="#DejaVuSans-69"/>
     <use x="1061.052734" xlink:href="#DejaVuSans-62"/>
    </g>
   </g>
   <g id="legend_1">
    <g id="patch_12">
     <path d="M 271.334375 59.674375 
L 370.698438 59.674375 
Q 372.698438 59.674375 372.698438 57.674375 
L 372.698438 29.318125 
Q 372.698438 27.318125 370.698438 27.318125 
L 271.334375 27.318125 
Q 269.334375 27.318125 269.334375 29.318125 
L 269.334375 57.674375 
Q 269.334375 59.674375 271.334375 59.674375 
z
" style="fill:#ffffff;opacity:0.8;stroke:#cccccc;stroke-linejoin:miter;"/>
    </g>
    <g id="line2d_35">
     <path d="M 273.334375 35.416563 
L 293.334375 35.416563 
" style="fill:none;stroke:#1f77b4;stroke-dasharray:7.4,3.2;stroke-dashoffset:0;stroke-width:2;"/>
    </g>
    <g id="line2d_36"/>
    <g id="text_24">
     <!-- plot figure -->
     <defs>
      <path d="M 45.40625 27.984375 
Q 45.40625 37.75 41.375 43.109375 
Q 37.359375 48.484375 30.078125 48.484375 
Q 22.859375 48.484375 18.828125 43.109375 
Q 14.796875 37.75 14.796875 27.984375 
Q 14.796875 18.265625 18.828125 12.890625 
Q 22.859375 7.515625 30.078125 7.515625 
Q 37.359375 7.515625 41.375 12.890625 
Q 45.40625 18.265625 45.40625 27.984375 
z
M 54.390625 6.78125 
Q 54.390625 -7.171875 48.1875 -13.984375 
Q 42 -20.796875 29.203125 -20.796875 
Q 24.46875 -20.796875 20.265625 -20.09375 
Q 16.0625 -19.390625 12.109375 -17.921875 
L 12.109375 -9.1875 
Q 16.0625 -11.328125 19.921875 -12.34375 
Q 23.78125 -13.375 27.78125 -13.375 
Q 36.625 -13.375 41.015625 -8.765625 
Q 45.40625 -4.15625 45.40625 5.171875 
L 45.40625 9.625 
Q 42.625 4.78125 38.28125 2.390625 
Q 33.9375 0 27.875 0 
Q 17.828125 0 11.671875 7.65625 
Q 5.515625 15.328125 5.515625 27.984375 
Q 5.515625 40.671875 11.671875 48.328125 
Q 17.828125 56 27.875 56 
Q 33.9375 56 38.28125 53.609375 
Q 42.625 51.21875 45.40625 46.390625 
L 45.40625 54.6875 
L 54.390625 54.6875 
z
" id="DejaVuSans-67"/>
     </defs>
     <g transform="translate(301.334375 38.916563)scale(0.1 -0.1)">
      <use xlink:href="#DejaVuSans-70"/>
      <use x="63.476562" xlink:href="#DejaVuSans-6c"/>
      <use x="91.259766" xlink:href="#DejaVuSans-6f"/>
      <use x="152.441406" xlink:href="#DejaVuSans-74"/>
      <use x="191.650391" xlink:href="#DejaVuSans-20"/>
      <use x="223.4375" xlink:href="#DejaVuSans-66"/>
      <use x="258.642578" xlink:href="#DejaVuSans-69"/>
      <use x="286.425781" xlink:href="#DejaVuSans-67"/>
      <use x="349.902344" xlink:href="#DejaVuSans-75"/>
      <use x="413.28125" xlink:href="#DejaVuSans-72"/>
      <use x="454.363281" xlink:href="#DejaVuSans-65"/>
     </g>
    </g>
    <g id="PathCollection_2">
     <g>
      <use style="fill:#404040;stroke:#404040;" x="283.334375" xlink:href="#m97550d2b5e" y="50.969688"/>
     </g>
    </g>
    <g id="text_25">
     <!-- scatter figure -->
     <g transform="translate(301.334375 53.594688)scale(0.1 -0.1)">
      <use xlink:href="#DejaVuSans-73"/>
      <use x="52.099609" xlink:href="#DejaVuSans-63"/>
      <use x="107.080078" xlink:href="#DejaVuSans-61"/>
      <use x="168.359375" xlink:href="#DejaVuSans-74"/>
      <use x="207.568359" xlink:href="#DejaVuSans-74"/>
      <use x="246.777344" xlink:href="#DejaVuSans-65"/>
      <use x="308.300781" xlink:href="#DejaVuSans-72"/>
      <use x="349.414062" xlink:href="#DejaVuSans-20"/>
      <use x="381.201172" xlink:href="#DejaVuSans-66"/>
      <use x="416.40625" xlink:href="#DejaVuSans-69"/>
      <use x="444.189453" xlink:href="#DejaVuSans-67"/>
      <use x="507.666016" xlink:href="#DejaVuSans-75"/>
      <use x="571.044922" xlink:href="#DejaVuSans-72"/>
      <use x="612.126953" xlink:href="#DejaVuSans-65"/>
     </g>
    </g>
   </g>
  </g>
 </g>
 <defs>
  <clipPath id="p6af07ed2ac">
   <rect height="217.44" width="334.8" x="42.898438" y="22.318125"/>
  </clipPath>
 </defs>
</svg>
