<?xml version="1.0" encoding="utf-8" standalone="no"?>
<!DOCTYPE svg PUBLIC "-//W3C//DTD SVG 1.1//EN"
  "http://www.w3.org/Graphics/SVG/1.1/DTD/svg11.dtd">
<!-- Created with matplotlib (http://matplotlib.org/) -->
<svg height="265pt" version="1.1" viewBox="0 0 392 265" width="392pt" xmlns="http://www.w3.org/2000/svg" xmlns:xlink="http://www.w3.org/1999/xlink">
 <defs>
  <style type="text/css">
*{stroke-linecap:butt;stroke-linejoin:round;}
  </style>
 </defs>
 <g id="figure_1">
  <g id="patch_1">
   <path d="M 0 265.995469 
L 392.14375 265.995469 
L 392.14375 0 
L 0 0 
z
" style="fill:#ffffff;"/>
  </g>
  <g id="axes_1">
   <g id="patch_2">
    <path d="M 43.78125 228.439219 
L 378.58125 228.439219 
L 378.58125 10.999219 
L 43.78125 10.999219 
z
" style="fill:#ffffff;"/>
   </g>
   <g id="PathCollection_1">
    <defs>
     <path d="M 0 3 
C 0.795609 3 1.55874 2.683901 2.12132 2.12132 
C 2.683901 1.55874 3 0.795609 3 0 
C 3 -0.795609 2.683901 -1.55874 2.12132 -2.12132 
C 1.55874 -2.683901 0.795609 -3 0 -3 
C -0.795609 -3 -1.55874 -2.683901 -2.12132 -2.12132 
C -2.683901 -1.55874 -3 -0.795609 -3 0 
C -3 0.795609 -2.683901 1.55874 -2.12132 2.12132 
C -1.55874 2.683901 -0.795609 3 0 3 
z
" id="mc2b815d634" style="stroke:#0000ff;"/>
    </defs>
    <g clip-path="url(#p86e70a6094)">
     <use style="fill:#0000ff;stroke:#0000ff;" x="43.78125" xlink:href="#mc2b815d634" y="40.679395"/>
     <use style="fill:#0000ff;stroke:#0000ff;" x="47.163068" xlink:href="#mc2b815d634" y="200.970428"/>
     <use style="fill:#0000ff;stroke:#0000ff;" x="50.544886" xlink:href="#mc2b815d634" y="224.101679"/>
     <use style="fill:#0000ff;stroke:#0000ff;" x="53.926705" xlink:href="#mc2b815d634" y="194.221356"/>
     <use style="fill:#0000ff;stroke:#0000ff;" x="57.308523" xlink:href="#mc2b815d634" y="120.380921"/>
     <use style="fill:#0000ff;stroke:#0000ff;" x="60.690341" xlink:href="#mc2b815d634" y="127.937942"/>
     <use style="fill:#0000ff;stroke:#0000ff;" x="64.072159" xlink:href="#mc2b815d634" y="134.219095"/>
     <use style="fill:#0000ff;stroke:#0000ff;" x="67.453977" xlink:href="#mc2b815d634" y="16.153341"/>
     <use style="fill:#0000ff;stroke:#0000ff;" x="70.835795" xlink:href="#mc2b815d634" y="63.861512"/>
     <use style="fill:#0000ff;stroke:#0000ff;" x="74.217614" xlink:href="#mc2b815d634" y="67.361767"/>
     <use style="fill:#0000ff;stroke:#0000ff;" x="77.599432" xlink:href="#mc2b815d634" y="41.980612"/>
     <use style="fill:#0000ff;stroke:#0000ff;" x="80.98125" xlink:href="#mc2b815d634" y="142.232072"/>
     <use style="fill:#0000ff;stroke:#0000ff;" x="84.363068" xlink:href="#mc2b815d634" y="183.887957"/>
     <use style="fill:#0000ff;stroke:#0000ff;" x="87.744886" xlink:href="#mc2b815d634" y="193.460797"/>
     <use style="fill:#0000ff;stroke:#0000ff;" x="91.126705" xlink:href="#mc2b815d634" y="155.500499"/>
     <use style="fill:#0000ff;stroke:#0000ff;" x="94.508523" xlink:href="#mc2b815d634" y="91.169909"/>
     <use style="fill:#0000ff;stroke:#0000ff;" x="97.890341" xlink:href="#mc2b815d634" y="225.003955"/>
     <use style="fill:#0000ff;stroke:#0000ff;" x="101.272159" xlink:href="#mc2b815d634" y="169.233471"/>
     <use style="fill:#0000ff;stroke:#0000ff;" x="104.653977" xlink:href="#mc2b815d634" y="145.051389"/>
     <use style="fill:#0000ff;stroke:#0000ff;" x="108.035795" xlink:href="#mc2b815d634" y="95.621685"/>
     <use style="fill:#0000ff;stroke:#0000ff;" x="111.417614" xlink:href="#mc2b815d634" y="206.912508"/>
     <use style="fill:#0000ff;stroke:#0000ff;" x="114.799432" xlink:href="#mc2b815d634" y="141.760675"/>
     <use style="fill:#0000ff;stroke:#0000ff;" x="118.18125" xlink:href="#mc2b815d634" y="14.737756"/>
     <use style="fill:#0000ff;stroke:#0000ff;" x="121.563068" xlink:href="#mc2b815d634" y="124.503443"/>
     <use style="fill:#0000ff;stroke:#0000ff;" x="124.944886" xlink:href="#mc2b815d634" y="26.444286"/>
     <use style="fill:#0000ff;stroke:#0000ff;" x="128.326705" xlink:href="#mc2b815d634" y="169.608145"/>
     <use style="fill:#0000ff;stroke:#0000ff;" x="131.708523" xlink:href="#mc2b815d634" y="125.745283"/>
     <use style="fill:#0000ff;stroke:#0000ff;" x="135.090341" xlink:href="#mc2b815d634" y="93.779733"/>
     <use style="fill:#0000ff;stroke:#0000ff;" x="138.472159" xlink:href="#mc2b815d634" y="213.020652"/>
     <use style="fill:#0000ff;stroke:#0000ff;" x="141.853977" xlink:href="#mc2b815d634" y="111.713129"/>
     <use style="fill:#0000ff;stroke:#0000ff;" x="145.235795" xlink:href="#mc2b815d634" y="110.874072"/>
     <use style="fill:#0000ff;stroke:#0000ff;" x="148.617614" xlink:href="#mc2b815d634" y="167.751611"/>
     <use style="fill:#0000ff;stroke:#0000ff;" x="151.999432" xlink:href="#mc2b815d634" y="148.324465"/>
     <use style="fill:#0000ff;stroke:#0000ff;" x="155.38125" xlink:href="#mc2b815d634" y="187.675052"/>
     <use style="fill:#0000ff;stroke:#0000ff;" x="158.763068" xlink:href="#mc2b815d634" y="34.554715"/>
     <use style="fill:#0000ff;stroke:#0000ff;" x="162.144886" xlink:href="#mc2b815d634" y="35.837746"/>
     <use style="fill:#0000ff;stroke:#0000ff;" x="165.526705" xlink:href="#mc2b815d634" y="144.273932"/>
     <use style="fill:#0000ff;stroke:#0000ff;" x="168.908523" xlink:href="#mc2b815d634" y="223.147835"/>
     <use style="fill:#0000ff;stroke:#0000ff;" x="172.290341" xlink:href="#mc2b815d634" y="143.042197"/>
     <use style="fill:#0000ff;stroke:#0000ff;" x="175.672159" xlink:href="#mc2b815d634" y="107.608417"/>
     <use style="fill:#0000ff;stroke:#0000ff;" x="179.053977" xlink:href="#mc2b815d634" y="77.84724"/>
     <use style="fill:#0000ff;stroke:#0000ff;" x="182.435795" xlink:href="#mc2b815d634" y="48.257531"/>
     <use style="fill:#0000ff;stroke:#0000ff;" x="185.817614" xlink:href="#mc2b815d634" y="129.651344"/>
     <use style="fill:#0000ff;stroke:#0000ff;" x="189.199432" xlink:href="#mc2b815d634" y="110.943176"/>
     <use style="fill:#0000ff;stroke:#0000ff;" x="192.58125" xlink:href="#mc2b815d634" y="97.58143"/>
     <use style="fill:#0000ff;stroke:#0000ff;" x="195.963068" xlink:href="#mc2b815d634" y="26.914798"/>
     <use style="fill:#0000ff;stroke:#0000ff;" x="199.344886" xlink:href="#mc2b815d634" y="162.079311"/>
     <use style="fill:#0000ff;stroke:#0000ff;" x="202.726705" xlink:href="#mc2b815d634" y="14.291277"/>
     <use style="fill:#0000ff;stroke:#0000ff;" x="206.108523" xlink:href="#mc2b815d634" y="82.769991"/>
     <use style="fill:#0000ff;stroke:#0000ff;" x="209.490341" xlink:href="#mc2b815d634" y="111.211686"/>
     <use style="fill:#0000ff;stroke:#0000ff;" x="212.872159" xlink:href="#mc2b815d634" y="114.03182"/>
     <use style="fill:#0000ff;stroke:#0000ff;" x="216.253977" xlink:href="#mc2b815d634" y="175.519319"/>
     <use style="fill:#0000ff;stroke:#0000ff;" x="219.635795" xlink:href="#mc2b815d634" y="225.190176"/>
     <use style="fill:#0000ff;stroke:#0000ff;" x="223.017614" xlink:href="#mc2b815d634" y="199.108734"/>
     <use style="fill:#0000ff;stroke:#0000ff;" x="226.399432" xlink:href="#mc2b815d634" y="118.81777"/>
     <use style="fill:#0000ff;stroke:#0000ff;" x="229.78125" xlink:href="#mc2b815d634" y="192.951324"/>
     <use style="fill:#0000ff;stroke:#0000ff;" x="233.163068" xlink:href="#mc2b815d634" y="211.718883"/>
     <use style="fill:#0000ff;stroke:#0000ff;" x="236.544886" xlink:href="#mc2b815d634" y="148.35502"/>
     <use style="fill:#0000ff;stroke:#0000ff;" x="239.926705" xlink:href="#mc2b815d634" y="48.844543"/>
     <use style="fill:#0000ff;stroke:#0000ff;" x="243.308523" xlink:href="#mc2b815d634" y="162.704492"/>
     <use style="fill:#0000ff;stroke:#0000ff;" x="246.690341" xlink:href="#mc2b815d634" y="63.824364"/>
     <use style="fill:#0000ff;stroke:#0000ff;" x="250.072159" xlink:href="#mc2b815d634" y="24.023778"/>
     <use style="fill:#0000ff;stroke:#0000ff;" x="253.453977" xlink:href="#mc2b815d634" y="85.244557"/>
     <use style="fill:#0000ff;stroke:#0000ff;" x="256.835795" xlink:href="#mc2b815d634" y="177.824868"/>
     <use style="fill:#0000ff;stroke:#0000ff;" x="260.217614" xlink:href="#mc2b815d634" y="48.226683"/>
     <use style="fill:#0000ff;stroke:#0000ff;" x="263.599432" xlink:href="#mc2b815d634" y="116.316365"/>
     <use style="fill:#0000ff;stroke:#0000ff;" x="266.98125" xlink:href="#mc2b815d634" y="212.164654"/>
     <use style="fill:#0000ff;stroke:#0000ff;" x="270.363068" xlink:href="#mc2b815d634" y="50.468072"/>
     <use style="fill:#0000ff;stroke:#0000ff;" x="273.744886" xlink:href="#mc2b815d634" y="62.207755"/>
     <use style="fill:#0000ff;stroke:#0000ff;" x="277.126705" xlink:href="#mc2b815d634" y="216.587875"/>
     <use style="fill:#0000ff;stroke:#0000ff;" x="280.508523" xlink:href="#mc2b815d634" y="25.29892"/>
     <use style="fill:#0000ff;stroke:#0000ff;" x="283.890341" xlink:href="#mc2b815d634" y="80.002184"/>
     <use style="fill:#0000ff;stroke:#0000ff;" x="287.272159" xlink:href="#mc2b815d634" y="130.691872"/>
     <use style="fill:#0000ff;stroke:#0000ff;" x="290.653977" xlink:href="#mc2b815d634" y="128.84455"/>
     <use style="fill:#0000ff;stroke:#0000ff;" x="294.035795" xlink:href="#mc2b815d634" y="33.315678"/>
     <use style="fill:#0000ff;stroke:#0000ff;" x="297.417614" xlink:href="#mc2b815d634" y="130.701858"/>
     <use style="fill:#0000ff;stroke:#0000ff;" x="300.799432" xlink:href="#mc2b815d634" y="109.545504"/>
     <use style="fill:#0000ff;stroke:#0000ff;" x="304.18125" xlink:href="#mc2b815d634" y="75.141112"/>
     <use style="fill:#0000ff;stroke:#0000ff;" x="307.563068" xlink:href="#mc2b815d634" y="131.464532"/>
     <use style="fill:#0000ff;stroke:#0000ff;" x="310.944886" xlink:href="#mc2b815d634" y="99.053542"/>
     <use style="fill:#0000ff;stroke:#0000ff;" x="314.326705" xlink:href="#mc2b815d634" y="119.970186"/>
     <use style="fill:#0000ff;stroke:#0000ff;" x="317.708523" xlink:href="#mc2b815d634" y="103.084031"/>
     <use style="fill:#0000ff;stroke:#0000ff;" x="321.090341" xlink:href="#mc2b815d634" y="92.976072"/>
     <use style="fill:#0000ff;stroke:#0000ff;" x="324.472159" xlink:href="#mc2b815d634" y="26.808519"/>
     <use style="fill:#0000ff;stroke:#0000ff;" x="327.853977" xlink:href="#mc2b815d634" y="174.39427"/>
     <use style="fill:#0000ff;stroke:#0000ff;" x="331.235795" xlink:href="#mc2b815d634" y="176.344207"/>
     <use style="fill:#0000ff;stroke:#0000ff;" x="334.617614" xlink:href="#mc2b815d634" y="28.177231"/>
     <use style="fill:#0000ff;stroke:#0000ff;" x="337.999432" xlink:href="#mc2b815d634" y="133.061387"/>
     <use style="fill:#0000ff;stroke:#0000ff;" x="341.38125" xlink:href="#mc2b815d634" y="183.92754"/>
     <use style="fill:#0000ff;stroke:#0000ff;" x="344.763068" xlink:href="#mc2b815d634" y="73.627759"/>
     <use style="fill:#0000ff;stroke:#0000ff;" x="348.144886" xlink:href="#mc2b815d634" y="119.512765"/>
     <use style="fill:#0000ff;stroke:#0000ff;" x="351.526705" xlink:href="#mc2b815d634" y="100.872758"/>
     <use style="fill:#0000ff;stroke:#0000ff;" x="354.908523" xlink:href="#mc2b815d634" y="218.202324"/>
     <use style="fill:#0000ff;stroke:#0000ff;" x="358.290341" xlink:href="#mc2b815d634" y="47.632332"/>
     <use style="fill:#0000ff;stroke:#0000ff;" x="361.672159" xlink:href="#mc2b815d634" y="66.293664"/>
     <use style="fill:#0000ff;stroke:#0000ff;" x="365.053977" xlink:href="#mc2b815d634" y="90.032886"/>
     <use style="fill:#0000ff;stroke:#0000ff;" x="368.435795" xlink:href="#mc2b815d634" y="49.188816"/>
     <use style="fill:#0000ff;stroke:#0000ff;" x="371.817614" xlink:href="#mc2b815d634" y="88.661754"/>
     <use style="fill:#0000ff;stroke:#0000ff;" x="375.199432" xlink:href="#mc2b815d634" y="145.802203"/>
     <use style="fill:#0000ff;stroke:#0000ff;" x="378.58125" xlink:href="#mc2b815d634" y="64.228975"/>
    </g>
   </g>
   <g id="patch_3">
    <path clip-path="url(#p86e70a6094)" d="M 43.78125 141.463219 
L 43.78125 97.975219 
L 378.58125 97.975219 
L 378.58125 141.463219 
z
" style="fill:#ff0000;opacity:0.1;"/>
   </g>
   <g id="patch_4">
    <path clip-path="url(#p86e70a6094)" d="M 176.691803 228.439219 
L 176.691803 10.999219 
L 243.988285 10.999219 
L 243.988285 228.439219 
z
" style="fill:#bfbf00;opacity:0.1;"/>
   </g>
   <g id="matplotlib.axis_1">
    <g id="xtick_1">
     <g id="line2d_1">
      <defs>
       <path d="M 0 0 
L 0 3.5 
" id="m00f6d3c188" style="stroke:#000000;stroke-width:0.8;"/>
      </defs>
      <g>
       <use style="stroke:#000000;stroke-width:0.8;" x="109.39532" xlink:href="#m00f6d3c188" y="228.439219"/>
      </g>
     </g>
     <g id="text_1">
      <!-- 2 -->
      <defs>
       <path d="M 19.1875 8.296875 
L 53.609375 8.296875 
L 53.609375 0 
L 7.328125 0 
L 7.328125 8.296875 
Q 12.9375 14.109375 22.625 23.890625 
Q 32.328125 33.6875 34.8125 36.53125 
Q 39.546875 41.84375 41.421875 45.53125 
Q 43.3125 49.21875 43.3125 52.78125 
Q 43.3125 58.59375 39.234375 62.25 
Q 35.15625 65.921875 28.609375 65.921875 
Q 23.96875 65.921875 18.8125 64.3125 
Q 13.671875 62.703125 7.8125 59.421875 
L 7.8125 69.390625 
Q 13.765625 71.78125 18.9375 73 
Q 24.125 74.21875 28.421875 74.21875 
Q 39.75 74.21875 46.484375 68.546875 
Q 53.21875 62.890625 53.21875 53.421875 
Q 53.21875 48.921875 51.53125 44.890625 
Q 49.859375 40.875 45.40625 35.40625 
Q 44.1875 33.984375 37.640625 27.21875 
Q 31.109375 20.453125 19.1875 8.296875 
z
" id="DejaVuSans-32"/>
      </defs>
      <g transform="translate(106.21407 243.037656)scale(0.1 -0.1)">
       <use xlink:href="#DejaVuSans-32"/>
      </g>
     </g>
    </g>
    <g id="xtick_2">
     <g id="line2d_2">
      <g>
       <use style="stroke:#000000;stroke-width:0.8;" x="176.691803" xlink:href="#m00f6d3c188" y="228.439219"/>
      </g>
     </g>
     <g id="text_2">
      <!-- 4 -->
      <defs>
       <path d="M 37.796875 64.3125 
L 12.890625 25.390625 
L 37.796875 25.390625 
z
M 35.203125 72.90625 
L 47.609375 72.90625 
L 47.609375 25.390625 
L 58.015625 25.390625 
L 58.015625 17.1875 
L 47.609375 17.1875 
L 47.609375 0 
L 37.796875 0 
L 37.796875 17.1875 
L 4.890625 17.1875 
L 4.890625 26.703125 
z
" id="DejaVuSans-34"/>
      </defs>
      <g transform="translate(173.510553 243.037656)scale(0.1 -0.1)">
       <use xlink:href="#DejaVuSans-34"/>
      </g>
     </g>
    </g>
    <g id="xtick_3">
     <g id="line2d_3">
      <g>
       <use style="stroke:#000000;stroke-width:0.8;" x="243.988285" xlink:href="#m00f6d3c188" y="228.439219"/>
      </g>
     </g>
     <g id="text_3">
      <!-- 6 -->
      <defs>
       <path d="M 33.015625 40.375 
Q 26.375 40.375 22.484375 35.828125 
Q 18.609375 31.296875 18.609375 23.390625 
Q 18.609375 15.53125 22.484375 10.953125 
Q 26.375 6.390625 33.015625 6.390625 
Q 39.65625 6.390625 43.53125 10.953125 
Q 47.40625 15.53125 47.40625 23.390625 
Q 47.40625 31.296875 43.53125 35.828125 
Q 39.65625 40.375 33.015625 40.375 
z
M 52.59375 71.296875 
L 52.59375 62.3125 
Q 48.875 64.0625 45.09375 64.984375 
Q 41.3125 65.921875 37.59375 65.921875 
Q 27.828125 65.921875 22.671875 59.328125 
Q 17.53125 52.734375 16.796875 39.40625 
Q 19.671875 43.65625 24.015625 45.921875 
Q 28.375 48.1875 33.59375 48.1875 
Q 44.578125 48.1875 50.953125 41.515625 
Q 57.328125 34.859375 57.328125 23.390625 
Q 57.328125 12.15625 50.6875 5.359375 
Q 44.046875 -1.421875 33.015625 -1.421875 
Q 20.359375 -1.421875 13.671875 8.265625 
Q 6.984375 17.96875 6.984375 36.375 
Q 6.984375 53.65625 15.1875 63.9375 
Q 23.390625 74.21875 37.203125 74.21875 
Q 40.921875 74.21875 44.703125 73.484375 
Q 48.484375 72.75 52.59375 71.296875 
z
" id="DejaVuSans-36"/>
      </defs>
      <g transform="translate(240.807035 243.037656)scale(0.1 -0.1)">
       <use xlink:href="#DejaVuSans-36"/>
      </g>
     </g>
    </g>
    <g id="xtick_4">
     <g id="line2d_4">
      <g>
       <use style="stroke:#000000;stroke-width:0.8;" x="311.284768" xlink:href="#m00f6d3c188" y="228.439219"/>
      </g>
     </g>
     <g id="text_4">
      <!-- 8 -->
      <defs>
       <path d="M 31.78125 34.625 
Q 24.75 34.625 20.71875 30.859375 
Q 16.703125 27.09375 16.703125 20.515625 
Q 16.703125 13.921875 20.71875 10.15625 
Q 24.75 6.390625 31.78125 6.390625 
Q 38.8125 6.390625 42.859375 10.171875 
Q 46.921875 13.96875 46.921875 20.515625 
Q 46.921875 27.09375 42.890625 30.859375 
Q 38.875 34.625 31.78125 34.625 
z
M 21.921875 38.8125 
Q 15.578125 40.375 12.03125 44.71875 
Q 8.5 49.078125 8.5 55.328125 
Q 8.5 64.0625 14.71875 69.140625 
Q 20.953125 74.21875 31.78125 74.21875 
Q 42.671875 74.21875 48.875 69.140625 
Q 55.078125 64.0625 55.078125 55.328125 
Q 55.078125 49.078125 51.53125 44.71875 
Q 48 40.375 41.703125 38.8125 
Q 48.828125 37.15625 52.796875 32.3125 
Q 56.78125 27.484375 56.78125 20.515625 
Q 56.78125 9.90625 50.3125 4.234375 
Q 43.84375 -1.421875 31.78125 -1.421875 
Q 19.734375 -1.421875 13.25 4.234375 
Q 6.78125 9.90625 6.78125 20.515625 
Q 6.78125 27.484375 10.78125 32.3125 
Q 14.796875 37.15625 21.921875 38.8125 
z
M 18.3125 54.390625 
Q 18.3125 48.734375 21.84375 45.5625 
Q 25.390625 42.390625 31.78125 42.390625 
Q 38.140625 42.390625 41.71875 45.5625 
Q 45.3125 48.734375 45.3125 54.390625 
Q 45.3125 60.0625 41.71875 63.234375 
Q 38.140625 66.40625 31.78125 66.40625 
Q 25.390625 66.40625 21.84375 63.234375 
Q 18.3125 60.0625 18.3125 54.390625 
z
" id="DejaVuSans-38"/>
      </defs>
      <g transform="translate(308.103518 243.037656)scale(0.1 -0.1)">
       <use xlink:href="#DejaVuSans-38"/>
      </g>
     </g>
    </g>
    <g id="xtick_5">
     <g id="line2d_5">
      <g>
       <use style="stroke:#000000;stroke-width:0.8;" x="378.58125" xlink:href="#m00f6d3c188" y="228.439219"/>
      </g>
     </g>
     <g id="text_5">
      <!-- 10 -->
      <defs>
       <path d="M 12.40625 8.296875 
L 28.515625 8.296875 
L 28.515625 63.921875 
L 10.984375 60.40625 
L 10.984375 69.390625 
L 28.421875 72.90625 
L 38.28125 72.90625 
L 38.28125 8.296875 
L 54.390625 8.296875 
L 54.390625 0 
L 12.40625 0 
z
" id="DejaVuSans-31"/>
       <path d="M 31.78125 66.40625 
Q 24.171875 66.40625 20.328125 58.90625 
Q 16.5 51.421875 16.5 36.375 
Q 16.5 21.390625 20.328125 13.890625 
Q 24.171875 6.390625 31.78125 6.390625 
Q 39.453125 6.390625 43.28125 13.890625 
Q 47.125 21.390625 47.125 36.375 
Q 47.125 51.421875 43.28125 58.90625 
Q 39.453125 66.40625 31.78125 66.40625 
z
M 31.78125 74.21875 
Q 44.046875 74.21875 50.515625 64.515625 
Q 56.984375 54.828125 56.984375 36.375 
Q 56.984375 17.96875 50.515625 8.265625 
Q 44.046875 -1.421875 31.78125 -1.421875 
Q 19.53125 -1.421875 13.0625 8.265625 
Q 6.59375 17.96875 6.59375 36.375 
Q 6.59375 54.828125 13.0625 64.515625 
Q 19.53125 74.21875 31.78125 74.21875 
z
" id="DejaVuSans-30"/>
      </defs>
      <g transform="translate(372.21875 243.037656)scale(0.1 -0.1)">
       <use xlink:href="#DejaVuSans-31"/>
       <use x="63.623047" xlink:href="#DejaVuSans-30"/>
      </g>
     </g>
    </g>
    <g id="text_6">
     <!-- My x-axis -->
     <defs>
      <path d="M 9.8125 72.90625 
L 24.515625 72.90625 
L 43.109375 23.296875 
L 61.8125 72.90625 
L 76.515625 72.90625 
L 76.515625 0 
L 66.890625 0 
L 66.890625 64.015625 
L 48.09375 14.015625 
L 38.1875 14.015625 
L 19.390625 64.015625 
L 19.390625 0 
L 9.8125 0 
z
" id="DejaVuSans-4d"/>
      <path d="M 32.171875 -5.078125 
Q 28.375 -14.84375 24.75 -17.8125 
Q 21.140625 -20.796875 15.09375 -20.796875 
L 7.90625 -20.796875 
L 7.90625 -13.28125 
L 13.1875 -13.28125 
Q 16.890625 -13.28125 18.9375 -11.515625 
Q 21 -9.765625 23.484375 -3.21875 
L 25.09375 0.875 
L 2.984375 54.6875 
L 12.5 54.6875 
L 29.59375 11.921875 
L 46.6875 54.6875 
L 56.203125 54.6875 
z
" id="DejaVuSans-79"/>
      <path id="DejaVuSans-20"/>
      <path d="M 54.890625 54.6875 
L 35.109375 28.078125 
L 55.90625 0 
L 45.3125 0 
L 29.390625 21.484375 
L 13.484375 0 
L 2.875 0 
L 24.125 28.609375 
L 4.6875 54.6875 
L 15.28125 54.6875 
L 29.78125 35.203125 
L 44.28125 54.6875 
z
" id="DejaVuSans-78"/>
      <path d="M 4.890625 31.390625 
L 31.203125 31.390625 
L 31.203125 23.390625 
L 4.890625 23.390625 
z
" id="DejaVuSans-2d"/>
      <path d="M 34.28125 27.484375 
Q 23.390625 27.484375 19.1875 25 
Q 14.984375 22.515625 14.984375 16.5 
Q 14.984375 11.71875 18.140625 8.90625 
Q 21.296875 6.109375 26.703125 6.109375 
Q 34.1875 6.109375 38.703125 11.40625 
Q 43.21875 16.703125 43.21875 25.484375 
L 43.21875 27.484375 
z
M 52.203125 31.203125 
L 52.203125 0 
L 43.21875 0 
L 43.21875 8.296875 
Q 40.140625 3.328125 35.546875 0.953125 
Q 30.953125 -1.421875 24.3125 -1.421875 
Q 15.921875 -1.421875 10.953125 3.296875 
Q 6 8.015625 6 15.921875 
Q 6 25.140625 12.171875 29.828125 
Q 18.359375 34.515625 30.609375 34.515625 
L 43.21875 34.515625 
L 43.21875 35.40625 
Q 43.21875 41.609375 39.140625 45 
Q 35.0625 48.390625 27.6875 48.390625 
Q 23 48.390625 18.546875 47.265625 
Q 14.109375 46.140625 10.015625 43.890625 
L 10.015625 52.203125 
Q 14.9375 54.109375 19.578125 55.046875 
Q 24.21875 56 28.609375 56 
Q 40.484375 56 46.34375 49.84375 
Q 52.203125 43.703125 52.203125 31.203125 
z
" id="DejaVuSans-61"/>
      <path d="M 9.421875 54.6875 
L 18.40625 54.6875 
L 18.40625 0 
L 9.421875 0 
z
M 9.421875 75.984375 
L 18.40625 75.984375 
L 18.40625 64.59375 
L 9.421875 64.59375 
z
" id="DejaVuSans-69"/>
      <path d="M 44.28125 53.078125 
L 44.28125 44.578125 
Q 40.484375 46.53125 36.375 47.5 
Q 32.28125 48.484375 27.875 48.484375 
Q 21.1875 48.484375 17.84375 46.4375 
Q 14.5 44.390625 14.5 40.28125 
Q 14.5 37.15625 16.890625 35.375 
Q 19.28125 33.59375 26.515625 31.984375 
L 29.59375 31.296875 
Q 39.15625 29.25 43.1875 25.515625 
Q 47.21875 21.78125 47.21875 15.09375 
Q 47.21875 7.46875 41.1875 3.015625 
Q 35.15625 -1.421875 24.609375 -1.421875 
Q 20.21875 -1.421875 15.453125 -0.5625 
Q 10.6875 0.296875 5.421875 2 
L 5.421875 11.28125 
Q 10.40625 8.6875 15.234375 7.390625 
Q 20.0625 6.109375 24.8125 6.109375 
Q 31.15625 6.109375 34.5625 8.28125 
Q 37.984375 10.453125 37.984375 14.40625 
Q 37.984375 18.0625 35.515625 20.015625 
Q 33.0625 21.96875 24.703125 23.78125 
L 21.578125 24.515625 
Q 13.234375 26.265625 9.515625 29.90625 
Q 5.8125 33.546875 5.8125 39.890625 
Q 5.8125 47.609375 11.28125 51.796875 
Q 16.75 56 26.8125 56 
Q 31.78125 56 36.171875 55.265625 
Q 40.578125 54.546875 44.28125 53.078125 
z
" id="DejaVuSans-73"/>
     </defs>
     <g transform="translate(187.538281 256.715781)scale(0.1 -0.1)">
      <use xlink:href="#DejaVuSans-4d"/>
      <use x="86.279297" xlink:href="#DejaVuSans-79"/>
      <use x="145.458984" xlink:href="#DejaVuSans-20"/>
      <use x="177.246094" xlink:href="#DejaVuSans-78"/>
      <use x="236.425781" xlink:href="#DejaVuSans-2d"/>
      <use x="272.509766" xlink:href="#DejaVuSans-61"/>
      <use x="333.789062" xlink:href="#DejaVuSans-78"/>
      <use x="392.96875" xlink:href="#DejaVuSans-69"/>
      <use x="420.751953" xlink:href="#DejaVuSans-73"/>
     </g>
    </g>
   </g>
   <g id="matplotlib.axis_2">
    <g id="ytick_1">
     <g id="line2d_6">
      <defs>
       <path d="M 0 0 
L -3.5 0 
" id="m83b6fd7d58" style="stroke:#000000;stroke-width:0.8;"/>
      </defs>
      <g>
       <use style="stroke:#000000;stroke-width:0.8;" x="43.78125" xlink:href="#m83b6fd7d58" y="228.439219"/>
      </g>
     </g>
     <g id="text_7">
      <!-- 0.0 -->
      <defs>
       <path d="M 10.6875 12.40625 
L 21 12.40625 
L 21 0 
L 10.6875 0 
z
" id="DejaVuSans-2e"/>
      </defs>
      <g transform="translate(20.878125 232.238437)scale(0.1 -0.1)">
       <use xlink:href="#DejaVuSans-30"/>
       <use x="63.623047" xlink:href="#DejaVuSans-2e"/>
       <use x="95.410156" xlink:href="#DejaVuSans-30"/>
      </g>
     </g>
    </g>
    <g id="ytick_2">
     <g id="line2d_7">
      <g>
       <use style="stroke:#000000;stroke-width:0.8;" x="43.78125" xlink:href="#m83b6fd7d58" y="184.951219"/>
      </g>
     </g>
     <g id="text_8">
      <!-- 0.2 -->
      <g transform="translate(20.878125 188.750437)scale(0.1 -0.1)">
       <use xlink:href="#DejaVuSans-30"/>
       <use x="63.623047" xlink:href="#DejaVuSans-2e"/>
       <use x="95.410156" xlink:href="#DejaVuSans-32"/>
      </g>
     </g>
    </g>
    <g id="ytick_3">
     <g id="line2d_8">
      <g>
       <use style="stroke:#000000;stroke-width:0.8;" x="43.78125" xlink:href="#m83b6fd7d58" y="141.463219"/>
      </g>
     </g>
     <g id="text_9">
      <!-- 0.4 -->
      <g transform="translate(20.878125 145.262437)scale(0.1 -0.1)">
       <use xlink:href="#DejaVuSans-30"/>
       <use x="63.623047" xlink:href="#DejaVuSans-2e"/>
       <use x="95.410156" xlink:href="#DejaVuSans-34"/>
      </g>
     </g>
    </g>
    <g id="ytick_4">
     <g id="line2d_9">
      <g>
       <use style="stroke:#000000;stroke-width:0.8;" x="43.78125" xlink:href="#m83b6fd7d58" y="97.975219"/>
      </g>
     </g>
     <g id="text_10">
      <!-- 0.6 -->
      <g transform="translate(20.878125 101.774437)scale(0.1 -0.1)">
       <use xlink:href="#DejaVuSans-30"/>
       <use x="63.623047" xlink:href="#DejaVuSans-2e"/>
       <use x="95.410156" xlink:href="#DejaVuSans-36"/>
      </g>
     </g>
    </g>
    <g id="ytick_5">
     <g id="line2d_10">
      <g>
       <use style="stroke:#000000;stroke-width:0.8;" x="43.78125" xlink:href="#m83b6fd7d58" y="54.487219"/>
      </g>
     </g>
     <g id="text_11">
      <!-- 0.8 -->
      <g transform="translate(20.878125 58.286437)scale(0.1 -0.1)">
       <use xlink:href="#DejaVuSans-30"/>
       <use x="63.623047" xlink:href="#DejaVuSans-2e"/>
       <use x="95.410156" xlink:href="#DejaVuSans-38"/>
      </g>
     </g>
    </g>
    <g id="ytick_6">
     <g id="line2d_11">
      <g>
       <use style="stroke:#000000;stroke-width:0.8;" x="43.78125" xlink:href="#m83b6fd7d58" y="10.999219"/>
      </g>
     </g>
     <g id="text_12">
      <!-- 1.0 -->
      <g transform="translate(20.878125 14.798437)scale(0.1 -0.1)">
       <use xlink:href="#DejaVuSans-31"/>
       <use x="63.623047" xlink:href="#DejaVuSans-2e"/>
       <use x="95.410156" xlink:href="#DejaVuSans-30"/>
      </g>
     </g>
    </g>
    <g id="text_13">
     <!-- My y-axis -->
     <g transform="translate(14.798438 143.361406)rotate(-90)scale(0.1 -0.1)">
      <use xlink:href="#DejaVuSans-4d"/>
      <use x="86.279297" xlink:href="#DejaVuSans-79"/>
      <use x="145.458984" xlink:href="#DejaVuSans-20"/>
      <use x="177.246094" xlink:href="#DejaVuSans-79"/>
      <use x="236.410156" xlink:href="#DejaVuSans-2d"/>
      <use x="272.494141" xlink:href="#DejaVuSans-61"/>
      <use x="333.773438" xlink:href="#DejaVuSans-78"/>
      <use x="392.953125" xlink:href="#DejaVuSans-69"/>
      <use x="420.736328" xlink:href="#DejaVuSans-73"/>
     </g>
    </g>
   </g>
   <g id="patch_5">
    <path d="M 43.78125 228.439219 
L 43.78125 10.999219 
" style="fill:none;stroke:#000000;stroke-linecap:square;stroke-linejoin:miter;stroke-width:0.8;"/>
   </g>
   <g id="patch_6">
    <path d="M 378.58125 228.439219 
L 378.58125 10.999219 
" style="fill:none;stroke:#000000;stroke-linecap:square;stroke-linejoin:miter;stroke-width:0.8;"/>
   </g>
   <g id="patch_7">
    <path d="M 43.78125 228.439219 
L 378.58125 228.439219 
" style="fill:none;stroke:#000000;stroke-linecap:square;stroke-linejoin:miter;stroke-width:0.8;"/>
   </g>
   <g id="patch_8">
    <path d="M 43.78125 10.999219 
L 378.58125 10.999219 
" style="fill:none;stroke:#000000;stroke-linecap:square;stroke-linejoin:miter;stroke-width:0.8;"/>
   </g>
   <g id="legend_1">
    <g id="patch_9">
     <path d="M 50.78125 33.677344 
L 150.145313 33.677344 
Q 152.145313 33.677344 152.145313 31.677344 
L 152.145313 17.999219 
Q 152.145313 15.999219 150.145313 15.999219 
L 50.78125 15.999219 
Q 48.78125 15.999219 48.78125 17.999219 
L 48.78125 31.677344 
Q 48.78125 33.677344 50.78125 33.677344 
z
" style="fill:#ffffff;opacity:0.8;stroke:#cccccc;stroke-linejoin:miter;"/>
    </g>
    <g id="PathCollection_2">
     <g>
      <use style="fill:#0000ff;stroke:#0000ff;" x="62.78125" xlink:href="#mc2b815d634" y="24.972656"/>
     </g>
    </g>
    <g id="text_14">
     <!-- scatter figure -->
     <defs>
      <path d="M 48.78125 52.59375 
L 48.78125 44.1875 
Q 44.96875 46.296875 41.140625 47.34375 
Q 37.3125 48.390625 33.40625 48.390625 
Q 24.65625 48.390625 19.8125 42.84375 
Q 14.984375 37.3125 14.984375 27.296875 
Q 14.984375 17.28125 19.8125 11.734375 
Q 24.65625 6.203125 33.40625 6.203125 
Q 37.3125 6.203125 41.140625 7.25 
Q 44.96875 8.296875 48.78125 10.40625 
L 48.78125 2.09375 
Q 45.015625 0.34375 40.984375 -0.53125 
Q 36.96875 -1.421875 32.421875 -1.421875 
Q 20.0625 -1.421875 12.78125 6.34375 
Q 5.515625 14.109375 5.515625 27.296875 
Q 5.515625 40.671875 12.859375 48.328125 
Q 20.21875 56 33.015625 56 
Q 37.15625 56 41.109375 55.140625 
Q 45.0625 54.296875 48.78125 52.59375 
z
" id="DejaVuSans-63"/>
      <path d="M 18.3125 70.21875 
L 18.3125 54.6875 
L 36.8125 54.6875 
L 36.8125 47.703125 
L 18.3125 47.703125 
L 18.3125 18.015625 
Q 18.3125 11.328125 20.140625 9.421875 
Q 21.96875 7.515625 27.59375 7.515625 
L 36.8125 7.515625 
L 36.8125 0 
L 27.59375 0 
Q 17.1875 0 13.234375 3.875 
Q 9.28125 7.765625 9.28125 18.015625 
L 9.28125 47.703125 
L 2.6875 47.703125 
L 2.6875 54.6875 
L 9.28125 54.6875 
L 9.28125 70.21875 
z
" id="DejaVuSans-74"/>
      <path d="M 56.203125 29.59375 
L 56.203125 25.203125 
L 14.890625 25.203125 
Q 15.484375 15.921875 20.484375 11.0625 
Q 25.484375 6.203125 34.421875 6.203125 
Q 39.59375 6.203125 44.453125 7.46875 
Q 49.3125 8.734375 54.109375 11.28125 
L 54.109375 2.78125 
Q 49.265625 0.734375 44.1875 -0.34375 
Q 39.109375 -1.421875 33.890625 -1.421875 
Q 20.796875 -1.421875 13.15625 6.1875 
Q 5.515625 13.8125 5.515625 26.8125 
Q 5.515625 40.234375 12.765625 48.109375 
Q 20.015625 56 32.328125 56 
Q 43.359375 56 49.78125 48.890625 
Q 56.203125 41.796875 56.203125 29.59375 
z
M 47.21875 32.234375 
Q 47.125 39.59375 43.09375 43.984375 
Q 39.0625 48.390625 32.421875 48.390625 
Q 24.90625 48.390625 20.390625 44.140625 
Q 15.875 39.890625 15.1875 32.171875 
z
" id="DejaVuSans-65"/>
      <path d="M 41.109375 46.296875 
Q 39.59375 47.171875 37.8125 47.578125 
Q 36.03125 48 33.890625 48 
Q 26.265625 48 22.1875 43.046875 
Q 18.109375 38.09375 18.109375 28.8125 
L 18.109375 0 
L 9.078125 0 
L 9.078125 54.6875 
L 18.109375 54.6875 
L 18.109375 46.1875 
Q 20.953125 51.171875 25.484375 53.578125 
Q 30.03125 56 36.53125 56 
Q 37.453125 56 38.578125 55.875 
Q 39.703125 55.765625 41.0625 55.515625 
z
" id="DejaVuSans-72"/>
      <path d="M 37.109375 75.984375 
L 37.109375 68.5 
L 28.515625 68.5 
Q 23.6875 68.5 21.796875 66.546875 
Q 19.921875 64.59375 19.921875 59.515625 
L 19.921875 54.6875 
L 34.71875 54.6875 
L 34.71875 47.703125 
L 19.921875 47.703125 
L 19.921875 0 
L 10.890625 0 
L 10.890625 47.703125 
L 2.296875 47.703125 
L 2.296875 54.6875 
L 10.890625 54.6875 
L 10.890625 58.5 
Q 10.890625 67.625 15.140625 71.796875 
Q 19.390625 75.984375 28.609375 75.984375 
z
" id="DejaVuSans-66"/>
      <path d="M 45.40625 27.984375 
Q 45.40625 37.75 41.375 43.109375 
Q 37.359375 48.484375 30.078125 48.484375 
Q 22.859375 48.484375 18.828125 43.109375 
Q 14.796875 37.75 14.796875 27.984375 
Q 14.796875 18.265625 18.828125 12.890625 
Q 22.859375 7.515625 30.078125 7.515625 
Q 37.359375 7.515625 41.375 12.890625 
Q 45.40625 18.265625 45.40625 27.984375 
z
M 54.390625 6.78125 
Q 54.390625 -7.171875 48.1875 -13.984375 
Q 42 -20.796875 29.203125 -20.796875 
Q 24.46875 -20.796875 20.265625 -20.09375 
Q 16.0625 -19.390625 12.109375 -17.921875 
L 12.109375 -9.1875 
Q 16.0625 -11.328125 19.921875 -12.34375 
Q 23.78125 -13.375 27.78125 -13.375 
Q 36.625 -13.375 41.015625 -8.765625 
Q 45.40625 -4.15625 45.40625 5.171875 
L 45.40625 9.625 
Q 42.625 4.78125 38.28125 2.390625 
Q 33.9375 0 27.875 0 
Q 17.828125 0 11.671875 7.65625 
Q 5.515625 15.328125 5.515625 27.984375 
Q 5.515625 40.671875 11.671875 48.328125 
Q 17.828125 56 27.875 56 
Q 33.9375 56 38.28125 53.609375 
Q 42.625 51.21875 45.40625 46.390625 
L 45.40625 54.6875 
L 54.390625 54.6875 
z
" id="DejaVuSans-67"/>
      <path d="M 8.5 21.578125 
L 8.5 54.6875 
L 17.484375 54.6875 
L 17.484375 21.921875 
Q 17.484375 14.15625 20.5 10.265625 
Q 23.53125 6.390625 29.59375 6.390625 
Q 36.859375 6.390625 41.078125 11.03125 
Q 45.3125 15.671875 45.3125 23.6875 
L 45.3125 54.6875 
L 54.296875 54.6875 
L 54.296875 0 
L 45.3125 0 
L 45.3125 8.40625 
Q 42.046875 3.421875 37.71875 1 
Q 33.40625 -1.421875 27.6875 -1.421875 
Q 18.265625 -1.421875 13.375 4.4375 
Q 8.5 10.296875 8.5 21.578125 
z
M 31.109375 56 
z
" id="DejaVuSans-75"/>
     </defs>
     <g transform="translate(80.78125 27.597656)scale(0.1 -0.1)">
      <use xlink:href="#DejaVuSans-73"/>
      <use x="52.099609" xlink:href="#DejaVuSans-63"/>
      <use x="107.080078" xlink:href="#DejaVuSans-61"/>
      <use x="168.359375" xlink:href="#DejaVuSans-74"/>
      <use x="207.568359" xlink:href="#DejaVuSans-74"/>
      <use x="246.777344" xlink:href="#DejaVuSans-65"/>
      <use x="308.300781" xlink:href="#DejaVuSans-72"/>
      <use x="349.414062" xlink:href="#DejaVuSans-20"/>
      <use x="381.201172" xlink:href="#DejaVuSans-66"/>
      <use x="416.40625" xlink:href="#DejaVuSans-69"/>
      <use x="444.189453" xlink:href="#DejaVuSans-67"/>
      <use x="507.666016" xlink:href="#DejaVuSans-75"/>
      <use x="571.044922" xlink:href="#DejaVuSans-72"/>
      <use x="612.126953" xlink:href="#DejaVuSans-65"/>
     </g>
    </g>
   </g>
  </g>
 </g>
 <defs>
  <clipPath id="p86e70a6094">
   <rect height="217.44" width="334.8" x="43.78125" y="10.999219"/>
  </clipPath>
 </defs>
</svg>
