<?xml version="1.0" encoding="utf-8" standalone="no"?>
<!DOCTYPE svg PUBLIC "-//W3C//DTD SVG 1.1//EN"
  "http://www.w3.org/Graphics/SVG/1.1/DTD/svg11.dtd">
<!-- Created with matplotlib (http://matplotlib.org/) -->
<svg height="252pt" version="1.1" viewBox="0 0 375 252" width="375pt" xmlns="http://www.w3.org/2000/svg" xmlns:xlink="http://www.w3.org/1999/xlink">
 <defs>
  <style type="text/css">
*{stroke-linecap:butt;stroke-linejoin:round;}
  </style>
 </defs>
 <g id="figure_1">
  <g id="patch_1">
   <path d="M 0 252.317344 
L 375.603125 252.317344 
L 375.603125 0 
L 0 0 
z
" style="fill:#ffffff;"/>
  </g>
  <g id="axes_1">
   <g id="patch_2">
    <path d="M 30.103125 228.439219 
L 364.903125 228.439219 
L 364.903125 10.999219 
L 30.103125 10.999219 
z
" style="fill:#ffffff;"/>
   </g>
   <g id="PathCollection_1">
    <defs>
     <path d="M 0 3 
C 0.795609 3 1.55874 2.683901 2.12132 2.12132 
C 2.683901 1.55874 3 0.795609 3 0 
C 3 -0.795609 2.683901 -1.55874 2.12132 -2.12132 
C 1.55874 -2.683901 0.795609 -3 0 -3 
C -0.795609 -3 -1.55874 -2.683901 -2.12132 -2.12132 
C -2.683901 -1.55874 -3 -0.795609 -3 0 
C -3 0.795609 -2.683901 1.55874 -2.12132 2.12132 
C -1.55874 2.683901 -0.795609 3 0 3 
z
" id="ma955c0bee3" style="stroke:#0000ff;"/>
    </defs>
    <g clip-path="url(#pee7cc61621)">
     <use style="fill:#0000ff;stroke:#0000ff;" x="59.398125" xlink:href="#ma955c0bee3" y="122.53838"/>
     <use style="fill:#0000ff;stroke:#0000ff;" x="62.202216" xlink:href="#ma955c0bee3" y="170.997883"/>
     <use style="fill:#0000ff;stroke:#0000ff;" x="65.006307" xlink:href="#ma955c0bee3" y="113.367434"/>
     <use style="fill:#0000ff;stroke:#0000ff;" x="67.810398" xlink:href="#ma955c0bee3" y="98.883571"/>
     <use style="fill:#0000ff;stroke:#0000ff;" x="70.614489" xlink:href="#ma955c0bee3" y="131.138433"/>
     <use style="fill:#0000ff;stroke:#0000ff;" x="73.41858" xlink:href="#ma955c0bee3" y="183.479678"/>
     <use style="fill:#0000ff;stroke:#0000ff;" x="76.22267" xlink:href="#ma955c0bee3" y="164.202657"/>
     <use style="fill:#0000ff;stroke:#0000ff;" x="79.026761" xlink:href="#ma955c0bee3" y="175.79693"/>
     <use style="fill:#0000ff;stroke:#0000ff;" x="81.830852" xlink:href="#ma955c0bee3" y="79.872998"/>
     <use style="fill:#0000ff;stroke:#0000ff;" x="84.634943" xlink:href="#ma955c0bee3" y="143.15574"/>
     <use style="fill:#0000ff;stroke:#0000ff;" x="87.439034" xlink:href="#ma955c0bee3" y="184.63047"/>
     <use style="fill:#0000ff;stroke:#0000ff;" x="90.243125" xlink:href="#ma955c0bee3" y="175.841195"/>
     <use style="fill:#0000ff;stroke:#0000ff;" x="93.047216" xlink:href="#ma955c0bee3" y="87.513819"/>
     <use style="fill:#0000ff;stroke:#0000ff;" x="95.851307" xlink:href="#ma955c0bee3" y="114.142122"/>
     <use style="fill:#0000ff;stroke:#0000ff;" x="98.655398" xlink:href="#ma955c0bee3" y="208.107833"/>
     <use style="fill:#0000ff;stroke:#0000ff;" x="101.459489" xlink:href="#ma955c0bee3" y="136.986646"/>
     <use style="fill:#0000ff;stroke:#0000ff;" x="104.26358" xlink:href="#ma955c0bee3" y="166.454229"/>
     <use style="fill:#0000ff;stroke:#0000ff;" x="107.06767" xlink:href="#ma955c0bee3" y="158.758104"/>
     <use style="fill:#0000ff;stroke:#0000ff;" x="109.871761" xlink:href="#ma955c0bee3" y="49.719889"/>
     <use style="fill:#0000ff;stroke:#0000ff;" x="112.675852" xlink:href="#ma955c0bee3" y="167.88488"/>
     <use style="fill:#0000ff;stroke:#0000ff;" x="115.479943" xlink:href="#ma955c0bee3" y="195.298141"/>
     <use style="fill:#0000ff;stroke:#0000ff;" x="118.284034" xlink:href="#ma955c0bee3" y="67.975666"/>
     <use style="fill:#0000ff;stroke:#0000ff;" x="121.088125" xlink:href="#ma955c0bee3" y="53.257275"/>
     <use style="fill:#0000ff;stroke:#0000ff;" x="123.892216" xlink:href="#ma955c0bee3" y="171.940517"/>
     <use style="fill:#0000ff;stroke:#0000ff;" x="126.696307" xlink:href="#ma955c0bee3" y="61.492312"/>
     <use style="fill:#0000ff;stroke:#0000ff;" x="129.500398" xlink:href="#ma955c0bee3" y="142.859524"/>
     <use style="fill:#0000ff;stroke:#0000ff;" x="132.304489" xlink:href="#ma955c0bee3" y="45.337049"/>
     <use style="fill:#0000ff;stroke:#0000ff;" x="135.10858" xlink:href="#ma955c0bee3" y="182.562308"/>
     <use style="fill:#0000ff;stroke:#0000ff;" x="137.91267" xlink:href="#ma955c0bee3" y="179.043841"/>
     <use style="fill:#0000ff;stroke:#0000ff;" x="140.716761" xlink:href="#ma955c0bee3" y="81.006336"/>
     <use style="fill:#0000ff;stroke:#0000ff;" x="143.520852" xlink:href="#ma955c0bee3" y="56.965255"/>
     <use style="fill:#0000ff;stroke:#0000ff;" x="146.324943" xlink:href="#ma955c0bee3" y="122.464338"/>
     <use style="fill:#0000ff;stroke:#0000ff;" x="149.129034" xlink:href="#ma955c0bee3" y="181.854222"/>
     <use style="fill:#0000ff;stroke:#0000ff;" x="151.933125" xlink:href="#ma955c0bee3" y="74.652399"/>
     <use style="fill:#0000ff;stroke:#0000ff;" x="154.737216" xlink:href="#ma955c0bee3" y="139.223638"/>
     <use style="fill:#0000ff;stroke:#0000ff;" x="157.541307" xlink:href="#ma955c0bee3" y="155.216425"/>
     <use style="fill:#0000ff;stroke:#0000ff;" x="160.345398" xlink:href="#ma955c0bee3" y="201.117111"/>
     <use style="fill:#0000ff;stroke:#0000ff;" x="163.149489" xlink:href="#ma955c0bee3" y="135.28022"/>
     <use style="fill:#0000ff;stroke:#0000ff;" x="165.95358" xlink:href="#ma955c0bee3" y="68.911426"/>
     <use style="fill:#0000ff;stroke:#0000ff;" x="168.75767" xlink:href="#ma955c0bee3" y="207.135529"/>
     <use style="fill:#0000ff;stroke:#0000ff;" x="171.561761" xlink:href="#ma955c0bee3" y="175.847394"/>
     <use style="fill:#0000ff;stroke:#0000ff;" x="174.365852" xlink:href="#ma955c0bee3" y="169.49183"/>
     <use style="fill:#0000ff;stroke:#0000ff;" x="177.169943" xlink:href="#ma955c0bee3" y="163.282688"/>
     <use style="fill:#0000ff;stroke:#0000ff;" x="179.974034" xlink:href="#ma955c0bee3" y="176.876186"/>
     <use style="fill:#0000ff;stroke:#0000ff;" x="182.778125" xlink:href="#ma955c0bee3" y="91.974838"/>
     <use style="fill:#0000ff;stroke:#0000ff;" x="185.582216" xlink:href="#ma955c0bee3" y="127.744087"/>
     <use style="fill:#0000ff;stroke:#0000ff;" x="188.386307" xlink:href="#ma955c0bee3" y="187.655195"/>
     <use style="fill:#0000ff;stroke:#0000ff;" x="191.190398" xlink:href="#ma955c0bee3" y="173.958219"/>
     <use style="fill:#0000ff;stroke:#0000ff;" x="193.994489" xlink:href="#ma955c0bee3" y="209.388639"/>
     <use style="fill:#0000ff;stroke:#0000ff;" x="196.79858" xlink:href="#ma955c0bee3" y="47.038997"/>
     <use style="fill:#0000ff;stroke:#0000ff;" x="199.60267" xlink:href="#ma955c0bee3" y="188.897908"/>
     <use style="fill:#0000ff;stroke:#0000ff;" x="202.406761" xlink:href="#ma955c0bee3" y="109.632525"/>
     <use style="fill:#0000ff;stroke:#0000ff;" x="205.210852" xlink:href="#ma955c0bee3" y="184.329712"/>
     <use style="fill:#0000ff;stroke:#0000ff;" x="208.014943" xlink:href="#ma955c0bee3" y="190.081509"/>
     <use style="fill:#0000ff;stroke:#0000ff;" x="210.819034" xlink:href="#ma955c0bee3" y="131.722689"/>
     <use style="fill:#0000ff;stroke:#0000ff;" x="213.623125" xlink:href="#ma955c0bee3" y="57.613747"/>
     <use style="fill:#0000ff;stroke:#0000ff;" x="216.427216" xlink:href="#ma955c0bee3" y="178.095288"/>
     <use style="fill:#0000ff;stroke:#0000ff;" x="219.231307" xlink:href="#ma955c0bee3" y="89.299607"/>
     <use style="fill:#0000ff;stroke:#0000ff;" x="222.035398" xlink:href="#ma955c0bee3" y="167.251247"/>
     <use style="fill:#0000ff;stroke:#0000ff;" x="224.839489" xlink:href="#ma955c0bee3" y="108.358849"/>
     <use style="fill:#0000ff;stroke:#0000ff;" x="227.64358" xlink:href="#ma955c0bee3" y="157.109765"/>
     <use style="fill:#0000ff;stroke:#0000ff;" x="230.44767" xlink:href="#ma955c0bee3" y="205.431254"/>
     <use style="fill:#0000ff;stroke:#0000ff;" x="233.251761" xlink:href="#ma955c0bee3" y="168.758087"/>
     <use style="fill:#0000ff;stroke:#0000ff;" x="236.055852" xlink:href="#ma955c0bee3" y="203.764291"/>
     <use style="fill:#0000ff;stroke:#0000ff;" x="238.859943" xlink:href="#ma955c0bee3" y="171.328359"/>
     <use style="fill:#0000ff;stroke:#0000ff;" x="241.664034" xlink:href="#ma955c0bee3" y="122.408598"/>
     <use style="fill:#0000ff;stroke:#0000ff;" x="244.468125" xlink:href="#ma955c0bee3" y="47.354663"/>
     <use style="fill:#0000ff;stroke:#0000ff;" x="247.272216" xlink:href="#ma955c0bee3" y="91.5235"/>
     <use style="fill:#0000ff;stroke:#0000ff;" x="250.076307" xlink:href="#ma955c0bee3" y="165.90722"/>
     <use style="fill:#0000ff;stroke:#0000ff;" x="252.880398" xlink:href="#ma955c0bee3" y="167.159937"/>
     <use style="fill:#0000ff;stroke:#0000ff;" x="255.684489" xlink:href="#ma955c0bee3" y="67.443677"/>
     <use style="fill:#0000ff;stroke:#0000ff;" x="258.48858" xlink:href="#ma955c0bee3" y="119.067256"/>
     <use style="fill:#0000ff;stroke:#0000ff;" x="261.29267" xlink:href="#ma955c0bee3" y="99.4992"/>
     <use style="fill:#0000ff;stroke:#0000ff;" x="264.096761" xlink:href="#ma955c0bee3" y="179.36143"/>
     <use style="fill:#0000ff;stroke:#0000ff;" x="266.900852" xlink:href="#ma955c0bee3" y="141.096854"/>
     <use style="fill:#0000ff;stroke:#0000ff;" x="269.704943" xlink:href="#ma955c0bee3" y="185.238058"/>
     <use style="fill:#0000ff;stroke:#0000ff;" x="272.509034" xlink:href="#ma955c0bee3" y="86.303395"/>
     <use style="fill:#0000ff;stroke:#0000ff;" x="275.313125" xlink:href="#ma955c0bee3" y="154.383648"/>
     <use style="fill:#0000ff;stroke:#0000ff;" x="278.117216" xlink:href="#ma955c0bee3" y="59.95268"/>
     <use style="fill:#0000ff;stroke:#0000ff;" x="280.921307" xlink:href="#ma955c0bee3" y="72.375245"/>
     <use style="fill:#0000ff;stroke:#0000ff;" x="283.725398" xlink:href="#ma955c0bee3" y="140.902308"/>
     <use style="fill:#0000ff;stroke:#0000ff;" x="286.529489" xlink:href="#ma955c0bee3" y="78.533557"/>
     <use style="fill:#0000ff;stroke:#0000ff;" x="289.33358" xlink:href="#ma955c0bee3" y="111.321588"/>
     <use style="fill:#0000ff;stroke:#0000ff;" x="292.13767" xlink:href="#ma955c0bee3" y="80.410516"/>
     <use style="fill:#0000ff;stroke:#0000ff;" x="294.941761" xlink:href="#ma955c0bee3" y="88.237124"/>
     <use style="fill:#0000ff;stroke:#0000ff;" x="297.745852" xlink:href="#ma955c0bee3" y="204.132495"/>
     <use style="fill:#0000ff;stroke:#0000ff;" x="300.549943" xlink:href="#ma955c0bee3" y="118.609225"/>
     <use style="fill:#0000ff;stroke:#0000ff;" x="303.354034" xlink:href="#ma955c0bee3" y="190.183116"/>
     <use style="fill:#0000ff;stroke:#0000ff;" x="306.158125" xlink:href="#ma955c0bee3" y="60.787702"/>
     <use style="fill:#0000ff;stroke:#0000ff;" x="308.962216" xlink:href="#ma955c0bee3" y="59.435271"/>
     <use style="fill:#0000ff;stroke:#0000ff;" x="311.766307" xlink:href="#ma955c0bee3" y="100.20673"/>
     <use style="fill:#0000ff;stroke:#0000ff;" x="314.570398" xlink:href="#ma955c0bee3" y="68.736729"/>
     <use style="fill:#0000ff;stroke:#0000ff;" x="317.374489" xlink:href="#ma955c0bee3" y="115.172141"/>
     <use style="fill:#0000ff;stroke:#0000ff;" x="320.17858" xlink:href="#ma955c0bee3" y="210.32071"/>
     <use style="fill:#0000ff;stroke:#0000ff;" x="322.98267" xlink:href="#ma955c0bee3" y="193.397363"/>
     <use style="fill:#0000ff;stroke:#0000ff;" x="325.786761" xlink:href="#ma955c0bee3" y="93.367054"/>
     <use style="fill:#0000ff;stroke:#0000ff;" x="328.590852" xlink:href="#ma955c0bee3" y="173.238002"/>
     <use style="fill:#0000ff;stroke:#0000ff;" x="331.394943" xlink:href="#ma955c0bee3" y="184.934232"/>
     <use style="fill:#0000ff;stroke:#0000ff;" x="334.199034" xlink:href="#ma955c0bee3" y="197.834563"/>
     <use style="fill:#0000ff;stroke:#0000ff;" x="337.003125" xlink:href="#ma955c0bee3" y="205.346808"/>
    </g>
   </g>
   <g id="PathCollection_2">
    <defs>
     <path d="M 0 3 
C 0.795609 3 1.55874 2.683901 2.12132 2.12132 
C 2.683901 1.55874 3 0.795609 3 0 
C 3 -0.795609 2.683901 -1.55874 2.12132 -2.12132 
C 1.55874 -2.683901 0.795609 -3 0 -3 
C -0.795609 -3 -1.55874 -2.683901 -2.12132 -2.12132 
C -2.683901 -1.55874 -3 -0.795609 -3 0 
C -3 0.795609 -2.683901 1.55874 -2.12132 2.12132 
C -1.55874 2.683901 -0.795609 3 0 3 
z
" id="m916c8b62ab" style="stroke:#ff0000;"/>
    </defs>
    <g clip-path="url(#pee7cc61621)">
     <use style="fill:#ff0000;stroke:#ff0000;" x="59.398125" xlink:href="#m916c8b62ab" y="116.979721"/>
     <use style="fill:#ff0000;stroke:#ff0000;" x="62.202216" xlink:href="#m916c8b62ab" y="121.586974"/>
     <use style="fill:#ff0000;stroke:#ff0000;" x="65.006307" xlink:href="#m916c8b62ab" y="166.921899"/>
     <use style="fill:#ff0000;stroke:#ff0000;" x="67.810398" xlink:href="#m916c8b62ab" y="59.230885"/>
     <use style="fill:#ff0000;stroke:#ff0000;" x="70.614489" xlink:href="#m916c8b62ab" y="56.174656"/>
     <use style="fill:#ff0000;stroke:#ff0000;" x="73.41858" xlink:href="#m916c8b62ab" y="83.594654"/>
     <use style="fill:#ff0000;stroke:#ff0000;" x="76.22267" xlink:href="#m916c8b62ab" y="147.859331"/>
     <use style="fill:#ff0000;stroke:#ff0000;" x="79.026761" xlink:href="#m916c8b62ab" y="93.487334"/>
     <use style="fill:#ff0000;stroke:#ff0000;" x="81.830852" xlink:href="#m916c8b62ab" y="46.691804"/>
     <use style="fill:#ff0000;stroke:#ff0000;" x="84.634943" xlink:href="#m916c8b62ab" y="64.771935"/>
     <use style="fill:#ff0000;stroke:#ff0000;" x="87.439034" xlink:href="#m916c8b62ab" y="46.449905"/>
     <use style="fill:#ff0000;stroke:#ff0000;" x="90.243125" xlink:href="#m916c8b62ab" y="190.651417"/>
     <use style="fill:#ff0000;stroke:#ff0000;" x="93.047216" xlink:href="#m916c8b62ab" y="83.718767"/>
     <use style="fill:#ff0000;stroke:#ff0000;" x="95.851307" xlink:href="#m916c8b62ab" y="70.413651"/>
     <use style="fill:#ff0000;stroke:#ff0000;" x="98.655398" xlink:href="#m916c8b62ab" y="137.033688"/>
     <use style="fill:#ff0000;stroke:#ff0000;" x="101.459489" xlink:href="#m916c8b62ab" y="109.70409"/>
     <use style="fill:#ff0000;stroke:#ff0000;" x="104.26358" xlink:href="#m916c8b62ab" y="83.686941"/>
     <use style="fill:#ff0000;stroke:#ff0000;" x="107.06767" xlink:href="#m916c8b62ab" y="165.358782"/>
     <use style="fill:#ff0000;stroke:#ff0000;" x="109.871761" xlink:href="#m916c8b62ab" y="209.482657"/>
     <use style="fill:#ff0000;stroke:#ff0000;" x="112.675852" xlink:href="#m916c8b62ab" y="68.6747"/>
     <use style="fill:#ff0000;stroke:#ff0000;" x="115.479943" xlink:href="#m916c8b62ab" y="107.828481"/>
     <use style="fill:#ff0000;stroke:#ff0000;" x="118.284034" xlink:href="#m916c8b62ab" y="189.354462"/>
     <use style="fill:#ff0000;stroke:#ff0000;" x="121.088125" xlink:href="#m916c8b62ab" y="91.555322"/>
     <use style="fill:#ff0000;stroke:#ff0000;" x="123.892216" xlink:href="#m916c8b62ab" y="68.659924"/>
     <use style="fill:#ff0000;stroke:#ff0000;" x="126.696307" xlink:href="#m916c8b62ab" y="147.927992"/>
     <use style="fill:#ff0000;stroke:#ff0000;" x="129.500398" xlink:href="#m916c8b62ab" y="157.68065"/>
     <use style="fill:#ff0000;stroke:#ff0000;" x="132.304489" xlink:href="#m916c8b62ab" y="164.053059"/>
     <use style="fill:#ff0000;stroke:#ff0000;" x="135.10858" xlink:href="#m916c8b62ab" y="87.835357"/>
     <use style="fill:#ff0000;stroke:#ff0000;" x="137.91267" xlink:href="#m916c8b62ab" y="53.681749"/>
     <use style="fill:#ff0000;stroke:#ff0000;" x="140.716761" xlink:href="#m916c8b62ab" y="56.828824"/>
     <use style="fill:#ff0000;stroke:#ff0000;" x="143.520852" xlink:href="#m916c8b62ab" y="90.813806"/>
     <use style="fill:#ff0000;stroke:#ff0000;" x="146.324943" xlink:href="#m916c8b62ab" y="70.476947"/>
     <use style="fill:#ff0000;stroke:#ff0000;" x="149.129034" xlink:href="#m916c8b62ab" y="166.57918"/>
     <use style="fill:#ff0000;stroke:#ff0000;" x="151.933125" xlink:href="#m916c8b62ab" y="166.58344"/>
     <use style="fill:#ff0000;stroke:#ff0000;" x="154.737216" xlink:href="#m916c8b62ab" y="170.081255"/>
     <use style="fill:#ff0000;stroke:#ff0000;" x="157.541307" xlink:href="#m916c8b62ab" y="153.101113"/>
     <use style="fill:#ff0000;stroke:#ff0000;" x="160.345398" xlink:href="#m916c8b62ab" y="76.444186"/>
     <use style="fill:#ff0000;stroke:#ff0000;" x="163.149489" xlink:href="#m916c8b62ab" y="208.893569"/>
     <use style="fill:#ff0000;stroke:#ff0000;" x="165.95358" xlink:href="#m916c8b62ab" y="99.094788"/>
     <use style="fill:#ff0000;stroke:#ff0000;" x="168.75767" xlink:href="#m916c8b62ab" y="160.844374"/>
     <use style="fill:#ff0000;stroke:#ff0000;" x="171.561761" xlink:href="#m916c8b62ab" y="97.960877"/>
     <use style="fill:#ff0000;stroke:#ff0000;" x="174.365852" xlink:href="#m916c8b62ab" y="52.980825"/>
     <use style="fill:#ff0000;stroke:#ff0000;" x="177.169943" xlink:href="#m916c8b62ab" y="137.890789"/>
     <use style="fill:#ff0000;stroke:#ff0000;" x="179.974034" xlink:href="#m916c8b62ab" y="90.201077"/>
     <use style="fill:#ff0000;stroke:#ff0000;" x="182.778125" xlink:href="#m916c8b62ab" y="139.990999"/>
     <use style="fill:#ff0000;stroke:#ff0000;" x="185.582216" xlink:href="#m916c8b62ab" y="146.017408"/>
     <use style="fill:#ff0000;stroke:#ff0000;" x="188.386307" xlink:href="#m916c8b62ab" y="193.612523"/>
     <use style="fill:#ff0000;stroke:#ff0000;" x="191.190398" xlink:href="#m916c8b62ab" y="182.597642"/>
     <use style="fill:#ff0000;stroke:#ff0000;" x="193.994489" xlink:href="#m916c8b62ab" y="109.210542"/>
     <use style="fill:#ff0000;stroke:#ff0000;" x="196.79858" xlink:href="#m916c8b62ab" y="98.248703"/>
     <use style="fill:#ff0000;stroke:#ff0000;" x="199.60267" xlink:href="#m916c8b62ab" y="195.134671"/>
     <use style="fill:#ff0000;stroke:#ff0000;" x="202.406761" xlink:href="#m916c8b62ab" y="110.055891"/>
     <use style="fill:#ff0000;stroke:#ff0000;" x="205.210852" xlink:href="#m916c8b62ab" y="136.550292"/>
     <use style="fill:#ff0000;stroke:#ff0000;" x="208.014943" xlink:href="#m916c8b62ab" y="137.898517"/>
     <use style="fill:#ff0000;stroke:#ff0000;" x="210.819034" xlink:href="#m916c8b62ab" y="127.639973"/>
     <use style="fill:#ff0000;stroke:#ff0000;" x="213.623125" xlink:href="#m916c8b62ab" y="199.370685"/>
     <use style="fill:#ff0000;stroke:#ff0000;" x="216.427216" xlink:href="#m916c8b62ab" y="150.849635"/>
     <use style="fill:#ff0000;stroke:#ff0000;" x="219.231307" xlink:href="#m916c8b62ab" y="92.940066"/>
     <use style="fill:#ff0000;stroke:#ff0000;" x="222.035398" xlink:href="#m916c8b62ab" y="168.451213"/>
     <use style="fill:#ff0000;stroke:#ff0000;" x="224.839489" xlink:href="#m916c8b62ab" y="205.337979"/>
     <use style="fill:#ff0000;stroke:#ff0000;" x="227.64358" xlink:href="#m916c8b62ab" y="173.943309"/>
     <use style="fill:#ff0000;stroke:#ff0000;" x="230.44767" xlink:href="#m916c8b62ab" y="125.675565"/>
     <use style="fill:#ff0000;stroke:#ff0000;" x="233.251761" xlink:href="#m916c8b62ab" y="44.699875"/>
     <use style="fill:#ff0000;stroke:#ff0000;" x="236.055852" xlink:href="#m916c8b62ab" y="114.033496"/>
     <use style="fill:#ff0000;stroke:#ff0000;" x="238.859943" xlink:href="#m916c8b62ab" y="119.220308"/>
     <use style="fill:#ff0000;stroke:#ff0000;" x="241.664034" xlink:href="#m916c8b62ab" y="132.700573"/>
     <use style="fill:#ff0000;stroke:#ff0000;" x="244.468125" xlink:href="#m916c8b62ab" y="177.759939"/>
     <use style="fill:#ff0000;stroke:#ff0000;" x="247.272216" xlink:href="#m916c8b62ab" y="91.902313"/>
     <use style="fill:#ff0000;stroke:#ff0000;" x="250.076307" xlink:href="#m916c8b62ab" y="85.069421"/>
     <use style="fill:#ff0000;stroke:#ff0000;" x="252.880398" xlink:href="#m916c8b62ab" y="70.924801"/>
     <use style="fill:#ff0000;stroke:#ff0000;" x="255.684489" xlink:href="#m916c8b62ab" y="124.00697"/>
     <use style="fill:#ff0000;stroke:#ff0000;" x="258.48858" xlink:href="#m916c8b62ab" y="198.205543"/>
     <use style="fill:#ff0000;stroke:#ff0000;" x="261.29267" xlink:href="#m916c8b62ab" y="204.742935"/>
     <use style="fill:#ff0000;stroke:#ff0000;" x="264.096761" xlink:href="#m916c8b62ab" y="187.150605"/>
     <use style="fill:#ff0000;stroke:#ff0000;" x="266.900852" xlink:href="#m916c8b62ab" y="103.40109"/>
     <use style="fill:#ff0000;stroke:#ff0000;" x="269.704943" xlink:href="#m916c8b62ab" y="52.327963"/>
     <use style="fill:#ff0000;stroke:#ff0000;" x="272.509034" xlink:href="#m916c8b62ab" y="89.646297"/>
     <use style="fill:#ff0000;stroke:#ff0000;" x="275.313125" xlink:href="#m916c8b62ab" y="157.124459"/>
     <use style="fill:#ff0000;stroke:#ff0000;" x="278.117216" xlink:href="#m916c8b62ab" y="109.534304"/>
     <use style="fill:#ff0000;stroke:#ff0000;" x="280.921307" xlink:href="#m916c8b62ab" y="170.910221"/>
     <use style="fill:#ff0000;stroke:#ff0000;" x="283.725398" xlink:href="#m916c8b62ab" y="54.710874"/>
     <use style="fill:#ff0000;stroke:#ff0000;" x="286.529489" xlink:href="#m916c8b62ab" y="83.795559"/>
     <use style="fill:#ff0000;stroke:#ff0000;" x="289.33358" xlink:href="#m916c8b62ab" y="195.637664"/>
     <use style="fill:#ff0000;stroke:#ff0000;" x="292.13767" xlink:href="#m916c8b62ab" y="55.26602"/>
     <use style="fill:#ff0000;stroke:#ff0000;" x="294.941761" xlink:href="#m916c8b62ab" y="140.481255"/>
     <use style="fill:#ff0000;stroke:#ff0000;" x="297.745852" xlink:href="#m916c8b62ab" y="134.320673"/>
     <use style="fill:#ff0000;stroke:#ff0000;" x="300.549943" xlink:href="#m916c8b62ab" y="95.457745"/>
     <use style="fill:#ff0000;stroke:#ff0000;" x="303.354034" xlink:href="#m916c8b62ab" y="138.880267"/>
     <use style="fill:#ff0000;stroke:#ff0000;" x="306.158125" xlink:href="#m916c8b62ab" y="174.512077"/>
     <use style="fill:#ff0000;stroke:#ff0000;" x="308.962216" xlink:href="#m916c8b62ab" y="125.129009"/>
     <use style="fill:#ff0000;stroke:#ff0000;" x="311.766307" xlink:href="#m916c8b62ab" y="153.764751"/>
     <use style="fill:#ff0000;stroke:#ff0000;" x="314.570398" xlink:href="#m916c8b62ab" y="55.003289"/>
     <use style="fill:#ff0000;stroke:#ff0000;" x="317.374489" xlink:href="#m916c8b62ab" y="75.066719"/>
     <use style="fill:#ff0000;stroke:#ff0000;" x="320.17858" xlink:href="#m916c8b62ab" y="46.441865"/>
     <use style="fill:#ff0000;stroke:#ff0000;" x="322.98267" xlink:href="#m916c8b62ab" y="105.263181"/>
     <use style="fill:#ff0000;stroke:#ff0000;" x="325.786761" xlink:href="#m916c8b62ab" y="51.291574"/>
     <use style="fill:#ff0000;stroke:#ff0000;" x="328.590852" xlink:href="#m916c8b62ab" y="200.103915"/>
     <use style="fill:#ff0000;stroke:#ff0000;" x="331.394943" xlink:href="#m916c8b62ab" y="51.660554"/>
     <use style="fill:#ff0000;stroke:#ff0000;" x="334.199034" xlink:href="#m916c8b62ab" y="152.289307"/>
     <use style="fill:#ff0000;stroke:#ff0000;" x="337.003125" xlink:href="#m916c8b62ab" y="181.096029"/>
    </g>
   </g>
   <g id="matplotlib.axis_1">
    <g id="xtick_1">
     <g id="line2d_1">
      <defs>
       <path d="M 0 0 
L 0 3.5 
" id="mcb3bed38cb" style="stroke:#000000;stroke-width:0.8;"/>
      </defs>
      <g>
       <use style="stroke:#000000;stroke-width:0.8;" x="58.003125" xlink:href="#mcb3bed38cb" y="228.439219"/>
      </g>
     </g>
     <g id="text_1">
      <!-- 0 -->
      <defs>
       <path d="M 31.78125 66.40625 
Q 24.171875 66.40625 20.328125 58.90625 
Q 16.5 51.421875 16.5 36.375 
Q 16.5 21.390625 20.328125 13.890625 
Q 24.171875 6.390625 31.78125 6.390625 
Q 39.453125 6.390625 43.28125 13.890625 
Q 47.125 21.390625 47.125 36.375 
Q 47.125 51.421875 43.28125 58.90625 
Q 39.453125 66.40625 31.78125 66.40625 
z
M 31.78125 74.21875 
Q 44.046875 74.21875 50.515625 64.515625 
Q 56.984375 54.828125 56.984375 36.375 
Q 56.984375 17.96875 50.515625 8.265625 
Q 44.046875 -1.421875 31.78125 -1.421875 
Q 19.53125 -1.421875 13.0625 8.265625 
Q 6.59375 17.96875 6.59375 36.375 
Q 6.59375 54.828125 13.0625 64.515625 
Q 19.53125 74.21875 31.78125 74.21875 
z
" id="DejaVuSans-30"/>
      </defs>
      <g transform="translate(54.821875 243.037656)scale(0.1 -0.1)">
       <use xlink:href="#DejaVuSans-30"/>
      </g>
     </g>
    </g>
    <g id="xtick_2">
     <g id="line2d_2">
      <g>
       <use style="stroke:#000000;stroke-width:0.8;" x="113.803125" xlink:href="#mcb3bed38cb" y="228.439219"/>
      </g>
     </g>
     <g id="text_2">
      <!-- 2 -->
      <defs>
       <path d="M 19.1875 8.296875 
L 53.609375 8.296875 
L 53.609375 0 
L 7.328125 0 
L 7.328125 8.296875 
Q 12.9375 14.109375 22.625 23.890625 
Q 32.328125 33.6875 34.8125 36.53125 
Q 39.546875 41.84375 41.421875 45.53125 
Q 43.3125 49.21875 43.3125 52.78125 
Q 43.3125 58.59375 39.234375 62.25 
Q 35.15625 65.921875 28.609375 65.921875 
Q 23.96875 65.921875 18.8125 64.3125 
Q 13.671875 62.703125 7.8125 59.421875 
L 7.8125 69.390625 
Q 13.765625 71.78125 18.9375 73 
Q 24.125 74.21875 28.421875 74.21875 
Q 39.75 74.21875 46.484375 68.546875 
Q 53.21875 62.890625 53.21875 53.421875 
Q 53.21875 48.921875 51.53125 44.890625 
Q 49.859375 40.875 45.40625 35.40625 
Q 44.1875 33.984375 37.640625 27.21875 
Q 31.109375 20.453125 19.1875 8.296875 
z
" id="DejaVuSans-32"/>
      </defs>
      <g transform="translate(110.621875 243.037656)scale(0.1 -0.1)">
       <use xlink:href="#DejaVuSans-32"/>
      </g>
     </g>
    </g>
    <g id="xtick_3">
     <g id="line2d_3">
      <g>
       <use style="stroke:#000000;stroke-width:0.8;" x="169.603125" xlink:href="#mcb3bed38cb" y="228.439219"/>
      </g>
     </g>
     <g id="text_3">
      <!-- 4 -->
      <defs>
       <path d="M 37.796875 64.3125 
L 12.890625 25.390625 
L 37.796875 25.390625 
z
M 35.203125 72.90625 
L 47.609375 72.90625 
L 47.609375 25.390625 
L 58.015625 25.390625 
L 58.015625 17.1875 
L 47.609375 17.1875 
L 47.609375 0 
L 37.796875 0 
L 37.796875 17.1875 
L 4.890625 17.1875 
L 4.890625 26.703125 
z
" id="DejaVuSans-34"/>
      </defs>
      <g transform="translate(166.421875 243.037656)scale(0.1 -0.1)">
       <use xlink:href="#DejaVuSans-34"/>
      </g>
     </g>
    </g>
    <g id="xtick_4">
     <g id="line2d_4">
      <g>
       <use style="stroke:#000000;stroke-width:0.8;" x="225.403125" xlink:href="#mcb3bed38cb" y="228.439219"/>
      </g>
     </g>
     <g id="text_4">
      <!-- 6 -->
      <defs>
       <path d="M 33.015625 40.375 
Q 26.375 40.375 22.484375 35.828125 
Q 18.609375 31.296875 18.609375 23.390625 
Q 18.609375 15.53125 22.484375 10.953125 
Q 26.375 6.390625 33.015625 6.390625 
Q 39.65625 6.390625 43.53125 10.953125 
Q 47.40625 15.53125 47.40625 23.390625 
Q 47.40625 31.296875 43.53125 35.828125 
Q 39.65625 40.375 33.015625 40.375 
z
M 52.59375 71.296875 
L 52.59375 62.3125 
Q 48.875 64.0625 45.09375 64.984375 
Q 41.3125 65.921875 37.59375 65.921875 
Q 27.828125 65.921875 22.671875 59.328125 
Q 17.53125 52.734375 16.796875 39.40625 
Q 19.671875 43.65625 24.015625 45.921875 
Q 28.375 48.1875 33.59375 48.1875 
Q 44.578125 48.1875 50.953125 41.515625 
Q 57.328125 34.859375 57.328125 23.390625 
Q 57.328125 12.15625 50.6875 5.359375 
Q 44.046875 -1.421875 33.015625 -1.421875 
Q 20.359375 -1.421875 13.671875 8.265625 
Q 6.984375 17.96875 6.984375 36.375 
Q 6.984375 53.65625 15.1875 63.9375 
Q 23.390625 74.21875 37.203125 74.21875 
Q 40.921875 74.21875 44.703125 73.484375 
Q 48.484375 72.75 52.59375 71.296875 
z
" id="DejaVuSans-36"/>
      </defs>
      <g transform="translate(222.221875 243.037656)scale(0.1 -0.1)">
       <use xlink:href="#DejaVuSans-36"/>
      </g>
     </g>
    </g>
    <g id="xtick_5">
     <g id="line2d_5">
      <g>
       <use style="stroke:#000000;stroke-width:0.8;" x="281.203125" xlink:href="#mcb3bed38cb" y="228.439219"/>
      </g>
     </g>
     <g id="text_5">
      <!-- 8 -->
      <defs>
       <path d="M 31.78125 34.625 
Q 24.75 34.625 20.71875 30.859375 
Q 16.703125 27.09375 16.703125 20.515625 
Q 16.703125 13.921875 20.71875 10.15625 
Q 24.75 6.390625 31.78125 6.390625 
Q 38.8125 6.390625 42.859375 10.171875 
Q 46.921875 13.96875 46.921875 20.515625 
Q 46.921875 27.09375 42.890625 30.859375 
Q 38.875 34.625 31.78125 34.625 
z
M 21.921875 38.8125 
Q 15.578125 40.375 12.03125 44.71875 
Q 8.5 49.078125 8.5 55.328125 
Q 8.5 64.0625 14.71875 69.140625 
Q 20.953125 74.21875 31.78125 74.21875 
Q 42.671875 74.21875 48.875 69.140625 
Q 55.078125 64.0625 55.078125 55.328125 
Q 55.078125 49.078125 51.53125 44.71875 
Q 48 40.375 41.703125 38.8125 
Q 48.828125 37.15625 52.796875 32.3125 
Q 56.78125 27.484375 56.78125 20.515625 
Q 56.78125 9.90625 50.3125 4.234375 
Q 43.84375 -1.421875 31.78125 -1.421875 
Q 19.734375 -1.421875 13.25 4.234375 
Q 6.78125 9.90625 6.78125 20.515625 
Q 6.78125 27.484375 10.78125 32.3125 
Q 14.796875 37.15625 21.921875 38.8125 
z
M 18.3125 54.390625 
Q 18.3125 48.734375 21.84375 45.5625 
Q 25.390625 42.390625 31.78125 42.390625 
Q 38.140625 42.390625 41.71875 45.5625 
Q 45.3125 48.734375 45.3125 54.390625 
Q 45.3125 60.0625 41.71875 63.234375 
Q 38.140625 66.40625 31.78125 66.40625 
Q 25.390625 66.40625 21.84375 63.234375 
Q 18.3125 60.0625 18.3125 54.390625 
z
" id="DejaVuSans-38"/>
      </defs>
      <g transform="translate(278.021875 243.037656)scale(0.1 -0.1)">
       <use xlink:href="#DejaVuSans-38"/>
      </g>
     </g>
    </g>
    <g id="xtick_6">
     <g id="line2d_6">
      <g>
       <use style="stroke:#000000;stroke-width:0.8;" x="337.003125" xlink:href="#mcb3bed38cb" y="228.439219"/>
      </g>
     </g>
     <g id="text_6">
      <!-- 10 -->
      <defs>
       <path d="M 12.40625 8.296875 
L 28.515625 8.296875 
L 28.515625 63.921875 
L 10.984375 60.40625 
L 10.984375 69.390625 
L 28.421875 72.90625 
L 38.28125 72.90625 
L 38.28125 8.296875 
L 54.390625 8.296875 
L 54.390625 0 
L 12.40625 0 
z
" id="DejaVuSans-31"/>
      </defs>
      <g transform="translate(330.640625 243.037656)scale(0.1 -0.1)">
       <use xlink:href="#DejaVuSans-31"/>
       <use x="63.623047" xlink:href="#DejaVuSans-30"/>
      </g>
     </g>
    </g>
   </g>
   <g id="matplotlib.axis_2">
    <g id="ytick_1">
     <g id="line2d_7">
      <defs>
       <path d="M 0 0 
L -3.5 0 
" id="m9964fc9f30" style="stroke:#000000;stroke-width:0.8;"/>
      </defs>
      <g>
       <use style="stroke:#000000;stroke-width:0.8;" x="30.103125" xlink:href="#m9964fc9f30" y="211.713065"/>
      </g>
     </g>
     <g id="text_7">
      <!-- 0.0 -->
      <defs>
       <path d="M 10.6875 12.40625 
L 21 12.40625 
L 21 0 
L 10.6875 0 
z
" id="DejaVuSans-2e"/>
      </defs>
      <g transform="translate(7.2 215.512284)scale(0.1 -0.1)">
       <use xlink:href="#DejaVuSans-30"/>
       <use x="63.623047" xlink:href="#DejaVuSans-2e"/>
       <use x="95.410156" xlink:href="#DejaVuSans-30"/>
      </g>
     </g>
    </g>
    <g id="ytick_2">
     <g id="line2d_8">
      <g>
       <use style="stroke:#000000;stroke-width:0.8;" x="30.103125" xlink:href="#m9964fc9f30" y="178.260757"/>
      </g>
     </g>
     <g id="text_8">
      <!-- 0.2 -->
      <g transform="translate(7.2 182.059976)scale(0.1 -0.1)">
       <use xlink:href="#DejaVuSans-30"/>
       <use x="63.623047" xlink:href="#DejaVuSans-2e"/>
       <use x="95.410156" xlink:href="#DejaVuSans-32"/>
      </g>
     </g>
    </g>
    <g id="ytick_3">
     <g id="line2d_9">
      <g>
       <use style="stroke:#000000;stroke-width:0.8;" x="30.103125" xlink:href="#m9964fc9f30" y="144.80845"/>
      </g>
     </g>
     <g id="text_9">
      <!-- 0.4 -->
      <g transform="translate(7.2 148.607668)scale(0.1 -0.1)">
       <use xlink:href="#DejaVuSans-30"/>
       <use x="63.623047" xlink:href="#DejaVuSans-2e"/>
       <use x="95.410156" xlink:href="#DejaVuSans-34"/>
      </g>
     </g>
    </g>
    <g id="ytick_4">
     <g id="line2d_10">
      <g>
       <use style="stroke:#000000;stroke-width:0.8;" x="30.103125" xlink:href="#m9964fc9f30" y="111.356142"/>
      </g>
     </g>
     <g id="text_10">
      <!-- 0.6 -->
      <g transform="translate(7.2 115.155361)scale(0.1 -0.1)">
       <use xlink:href="#DejaVuSans-30"/>
       <use x="63.623047" xlink:href="#DejaVuSans-2e"/>
       <use x="95.410156" xlink:href="#DejaVuSans-36"/>
      </g>
     </g>
    </g>
    <g id="ytick_5">
     <g id="line2d_11">
      <g>
       <use style="stroke:#000000;stroke-width:0.8;" x="30.103125" xlink:href="#m9964fc9f30" y="77.903834"/>
      </g>
     </g>
     <g id="text_11">
      <!-- 0.8 -->
      <g transform="translate(7.2 81.703053)scale(0.1 -0.1)">
       <use xlink:href="#DejaVuSans-30"/>
       <use x="63.623047" xlink:href="#DejaVuSans-2e"/>
       <use x="95.410156" xlink:href="#DejaVuSans-38"/>
      </g>
     </g>
    </g>
    <g id="ytick_6">
     <g id="line2d_12">
      <g>
       <use style="stroke:#000000;stroke-width:0.8;" x="30.103125" xlink:href="#m9964fc9f30" y="44.451526"/>
      </g>
     </g>
     <g id="text_12">
      <!-- 1.0 -->
      <g transform="translate(7.2 48.250745)scale(0.1 -0.1)">
       <use xlink:href="#DejaVuSans-31"/>
       <use x="63.623047" xlink:href="#DejaVuSans-2e"/>
       <use x="95.410156" xlink:href="#DejaVuSans-30"/>
      </g>
     </g>
    </g>
    <g id="ytick_7">
     <g id="line2d_13">
      <g>
       <use style="stroke:#000000;stroke-width:0.8;" x="30.103125" xlink:href="#m9964fc9f30" y="10.999219"/>
      </g>
     </g>
     <g id="text_13">
      <!-- 1.2 -->
      <g transform="translate(7.2 14.798437)scale(0.1 -0.1)">
       <use xlink:href="#DejaVuSans-31"/>
       <use x="63.623047" xlink:href="#DejaVuSans-2e"/>
       <use x="95.410156" xlink:href="#DejaVuSans-32"/>
      </g>
     </g>
    </g>
   </g>
   <g id="patch_3">
    <path d="M 30.103125 228.439219 
L 30.103125 10.999219 
" style="fill:none;stroke:#000000;stroke-linecap:square;stroke-linejoin:miter;stroke-width:0.8;"/>
   </g>
   <g id="patch_4">
    <path d="M 364.903125 228.439219 
L 364.903125 10.999219 
" style="fill:none;stroke:#000000;stroke-linecap:square;stroke-linejoin:miter;stroke-width:0.8;"/>
   </g>
   <g id="patch_5">
    <path d="M 30.103125 228.439219 
L 364.903125 228.439219 
" style="fill:none;stroke:#000000;stroke-linecap:square;stroke-linejoin:miter;stroke-width:0.8;"/>
   </g>
   <g id="patch_6">
    <path d="M 30.103125 10.999219 
L 364.903125 10.999219 
" style="fill:none;stroke:#000000;stroke-linecap:square;stroke-linejoin:miter;stroke-width:0.8;"/>
   </g>
   <g id="legend_1">
    <g id="patch_7">
     <path d="M 252.176563 48.355469 
L 357.903125 48.355469 
Q 359.903125 48.355469 359.903125 46.355469 
L 359.903125 17.999219 
Q 359.903125 15.999219 357.903125 15.999219 
L 252.176563 15.999219 
Q 250.176563 15.999219 250.176563 17.999219 
L 250.176563 46.355469 
Q 250.176563 48.355469 252.176563 48.355469 
z
" style="fill:#ffffff;opacity:0.8;stroke:#cccccc;stroke-linejoin:miter;"/>
    </g>
    <g id="PathCollection_3">
     <g>
      <use style="fill:#0000ff;stroke:#0000ff;" x="264.176563" xlink:href="#ma955c0bee3" y="24.972656"/>
     </g>
    </g>
    <g id="text_14">
     <!-- scatter figure -->
     <defs>
      <path d="M 44.28125 53.078125 
L 44.28125 44.578125 
Q 40.484375 46.53125 36.375 47.5 
Q 32.28125 48.484375 27.875 48.484375 
Q 21.1875 48.484375 17.84375 46.4375 
Q 14.5 44.390625 14.5 40.28125 
Q 14.5 37.15625 16.890625 35.375 
Q 19.28125 33.59375 26.515625 31.984375 
L 29.59375 31.296875 
Q 39.15625 29.25 43.1875 25.515625 
Q 47.21875 21.78125 47.21875 15.09375 
Q 47.21875 7.46875 41.1875 3.015625 
Q 35.15625 -1.421875 24.609375 -1.421875 
Q 20.21875 -1.421875 15.453125 -0.5625 
Q 10.6875 0.296875 5.421875 2 
L 5.421875 11.28125 
Q 10.40625 8.6875 15.234375 7.390625 
Q 20.0625 6.109375 24.8125 6.109375 
Q 31.15625 6.109375 34.5625 8.28125 
Q 37.984375 10.453125 37.984375 14.40625 
Q 37.984375 18.0625 35.515625 20.015625 
Q 33.0625 21.96875 24.703125 23.78125 
L 21.578125 24.515625 
Q 13.234375 26.265625 9.515625 29.90625 
Q 5.8125 33.546875 5.8125 39.890625 
Q 5.8125 47.609375 11.28125 51.796875 
Q 16.75 56 26.8125 56 
Q 31.78125 56 36.171875 55.265625 
Q 40.578125 54.546875 44.28125 53.078125 
z
" id="DejaVuSans-73"/>
      <path d="M 48.78125 52.59375 
L 48.78125 44.1875 
Q 44.96875 46.296875 41.140625 47.34375 
Q 37.3125 48.390625 33.40625 48.390625 
Q 24.65625 48.390625 19.8125 42.84375 
Q 14.984375 37.3125 14.984375 27.296875 
Q 14.984375 17.28125 19.8125 11.734375 
Q 24.65625 6.203125 33.40625 6.203125 
Q 37.3125 6.203125 41.140625 7.25 
Q 44.96875 8.296875 48.78125 10.40625 
L 48.78125 2.09375 
Q 45.015625 0.34375 40.984375 -0.53125 
Q 36.96875 -1.421875 32.421875 -1.421875 
Q 20.0625 -1.421875 12.78125 6.34375 
Q 5.515625 14.109375 5.515625 27.296875 
Q 5.515625 40.671875 12.859375 48.328125 
Q 20.21875 56 33.015625 56 
Q 37.15625 56 41.109375 55.140625 
Q 45.0625 54.296875 48.78125 52.59375 
z
" id="DejaVuSans-63"/>
      <path d="M 34.28125 27.484375 
Q 23.390625 27.484375 19.1875 25 
Q 14.984375 22.515625 14.984375 16.5 
Q 14.984375 11.71875 18.140625 8.90625 
Q 21.296875 6.109375 26.703125 6.109375 
Q 34.1875 6.109375 38.703125 11.40625 
Q 43.21875 16.703125 43.21875 25.484375 
L 43.21875 27.484375 
z
M 52.203125 31.203125 
L 52.203125 0 
L 43.21875 0 
L 43.21875 8.296875 
Q 40.140625 3.328125 35.546875 0.953125 
Q 30.953125 -1.421875 24.3125 -1.421875 
Q 15.921875 -1.421875 10.953125 3.296875 
Q 6 8.015625 6 15.921875 
Q 6 25.140625 12.171875 29.828125 
Q 18.359375 34.515625 30.609375 34.515625 
L 43.21875 34.515625 
L 43.21875 35.40625 
Q 43.21875 41.609375 39.140625 45 
Q 35.0625 48.390625 27.6875 48.390625 
Q 23 48.390625 18.546875 47.265625 
Q 14.109375 46.140625 10.015625 43.890625 
L 10.015625 52.203125 
Q 14.9375 54.109375 19.578125 55.046875 
Q 24.21875 56 28.609375 56 
Q 40.484375 56 46.34375 49.84375 
Q 52.203125 43.703125 52.203125 31.203125 
z
" id="DejaVuSans-61"/>
      <path d="M 18.3125 70.21875 
L 18.3125 54.6875 
L 36.8125 54.6875 
L 36.8125 47.703125 
L 18.3125 47.703125 
L 18.3125 18.015625 
Q 18.3125 11.328125 20.140625 9.421875 
Q 21.96875 7.515625 27.59375 7.515625 
L 36.8125 7.515625 
L 36.8125 0 
L 27.59375 0 
Q 17.1875 0 13.234375 3.875 
Q 9.28125 7.765625 9.28125 18.015625 
L 9.28125 47.703125 
L 2.6875 47.703125 
L 2.6875 54.6875 
L 9.28125 54.6875 
L 9.28125 70.21875 
z
" id="DejaVuSans-74"/>
      <path d="M 56.203125 29.59375 
L 56.203125 25.203125 
L 14.890625 25.203125 
Q 15.484375 15.921875 20.484375 11.0625 
Q 25.484375 6.203125 34.421875 6.203125 
Q 39.59375 6.203125 44.453125 7.46875 
Q 49.3125 8.734375 54.109375 11.28125 
L 54.109375 2.78125 
Q 49.265625 0.734375 44.1875 -0.34375 
Q 39.109375 -1.421875 33.890625 -1.421875 
Q 20.796875 -1.421875 13.15625 6.1875 
Q 5.515625 13.8125 5.515625 26.8125 
Q 5.515625 40.234375 12.765625 48.109375 
Q 20.015625 56 32.328125 56 
Q 43.359375 56 49.78125 48.890625 
Q 56.203125 41.796875 56.203125 29.59375 
z
M 47.21875 32.234375 
Q 47.125 39.59375 43.09375 43.984375 
Q 39.0625 48.390625 32.421875 48.390625 
Q 24.90625 48.390625 20.390625 44.140625 
Q 15.875 39.890625 15.1875 32.171875 
z
" id="DejaVuSans-65"/>
      <path d="M 41.109375 46.296875 
Q 39.59375 47.171875 37.8125 47.578125 
Q 36.03125 48 33.890625 48 
Q 26.265625 48 22.1875 43.046875 
Q 18.109375 38.09375 18.109375 28.8125 
L 18.109375 0 
L 9.078125 0 
L 9.078125 54.6875 
L 18.109375 54.6875 
L 18.109375 46.1875 
Q 20.953125 51.171875 25.484375 53.578125 
Q 30.03125 56 36.53125 56 
Q 37.453125 56 38.578125 55.875 
Q 39.703125 55.765625 41.0625 55.515625 
z
" id="DejaVuSans-72"/>
      <path id="DejaVuSans-20"/>
      <path d="M 37.109375 75.984375 
L 37.109375 68.5 
L 28.515625 68.5 
Q 23.6875 68.5 21.796875 66.546875 
Q 19.921875 64.59375 19.921875 59.515625 
L 19.921875 54.6875 
L 34.71875 54.6875 
L 34.71875 47.703125 
L 19.921875 47.703125 
L 19.921875 0 
L 10.890625 0 
L 10.890625 47.703125 
L 2.296875 47.703125 
L 2.296875 54.6875 
L 10.890625 54.6875 
L 10.890625 58.5 
Q 10.890625 67.625 15.140625 71.796875 
Q 19.390625 75.984375 28.609375 75.984375 
z
" id="DejaVuSans-66"/>
      <path d="M 9.421875 54.6875 
L 18.40625 54.6875 
L 18.40625 0 
L 9.421875 0 
z
M 9.421875 75.984375 
L 18.40625 75.984375 
L 18.40625 64.59375 
L 9.421875 64.59375 
z
" id="DejaVuSans-69"/>
      <path d="M 45.40625 27.984375 
Q 45.40625 37.75 41.375 43.109375 
Q 37.359375 48.484375 30.078125 48.484375 
Q 22.859375 48.484375 18.828125 43.109375 
Q 14.796875 37.75 14.796875 27.984375 
Q 14.796875 18.265625 18.828125 12.890625 
Q 22.859375 7.515625 30.078125 7.515625 
Q 37.359375 7.515625 41.375 12.890625 
Q 45.40625 18.265625 45.40625 27.984375 
z
M 54.390625 6.78125 
Q 54.390625 -7.171875 48.1875 -13.984375 
Q 42 -20.796875 29.203125 -20.796875 
Q 24.46875 -20.796875 20.265625 -20.09375 
Q 16.0625 -19.390625 12.109375 -17.921875 
L 12.109375 -9.1875 
Q 16.0625 -11.328125 19.921875 -12.34375 
Q 23.78125 -13.375 27.78125 -13.375 
Q 36.625 -13.375 41.015625 -8.765625 
Q 45.40625 -4.15625 45.40625 5.171875 
L 45.40625 9.625 
Q 42.625 4.78125 38.28125 2.390625 
Q 33.9375 0 27.875 0 
Q 17.828125 0 11.671875 7.65625 
Q 5.515625 15.328125 5.515625 27.984375 
Q 5.515625 40.671875 11.671875 48.328125 
Q 17.828125 56 27.875 56 
Q 33.9375 56 38.28125 53.609375 
Q 42.625 51.21875 45.40625 46.390625 
L 45.40625 54.6875 
L 54.390625 54.6875 
z
" id="DejaVuSans-67"/>
      <path d="M 8.5 21.578125 
L 8.5 54.6875 
L 17.484375 54.6875 
L 17.484375 21.921875 
Q 17.484375 14.15625 20.5 10.265625 
Q 23.53125 6.390625 29.59375 6.390625 
Q 36.859375 6.390625 41.078125 11.03125 
Q 45.3125 15.671875 45.3125 23.6875 
L 45.3125 54.6875 
L 54.296875 54.6875 
L 54.296875 0 
L 45.3125 0 
L 45.3125 8.40625 
Q 42.046875 3.421875 37.71875 1 
Q 33.40625 -1.421875 27.6875 -1.421875 
Q 18.265625 -1.421875 13.375 4.4375 
Q 8.5 10.296875 8.5 21.578125 
z
M 31.109375 56 
z
" id="DejaVuSans-75"/>
     </defs>
     <g transform="translate(282.176563 27.597656)scale(0.1 -0.1)">
      <use xlink:href="#DejaVuSans-73"/>
      <use x="52.099609" xlink:href="#DejaVuSans-63"/>
      <use x="107.080078" xlink:href="#DejaVuSans-61"/>
      <use x="168.359375" xlink:href="#DejaVuSans-74"/>
      <use x="207.568359" xlink:href="#DejaVuSans-74"/>
      <use x="246.777344" xlink:href="#DejaVuSans-65"/>
      <use x="308.300781" xlink:href="#DejaVuSans-72"/>
      <use x="349.414062" xlink:href="#DejaVuSans-20"/>
      <use x="381.201172" xlink:href="#DejaVuSans-66"/>
      <use x="416.40625" xlink:href="#DejaVuSans-69"/>
      <use x="444.189453" xlink:href="#DejaVuSans-67"/>
      <use x="507.666016" xlink:href="#DejaVuSans-75"/>
      <use x="571.044922" xlink:href="#DejaVuSans-72"/>
      <use x="612.126953" xlink:href="#DejaVuSans-65"/>
     </g>
    </g>
    <g id="PathCollection_4">
     <g>
      <use style="fill:#ff0000;stroke:#ff0000;" x="264.176563" xlink:href="#m916c8b62ab" y="39.650781"/>
     </g>
    </g>
    <g id="text_15">
     <!-- scatter figure2 -->
     <g transform="translate(282.176563 42.275781)scale(0.1 -0.1)">
      <use xlink:href="#DejaVuSans-73"/>
      <use x="52.099609" xlink:href="#DejaVuSans-63"/>
      <use x="107.080078" xlink:href="#DejaVuSans-61"/>
      <use x="168.359375" xlink:href="#DejaVuSans-74"/>
      <use x="207.568359" xlink:href="#DejaVuSans-74"/>
      <use x="246.777344" xlink:href="#DejaVuSans-65"/>
      <use x="308.300781" xlink:href="#DejaVuSans-72"/>
      <use x="349.414062" xlink:href="#DejaVuSans-20"/>
      <use x="381.201172" xlink:href="#DejaVuSans-66"/>
      <use x="416.40625" xlink:href="#DejaVuSans-69"/>
      <use x="444.189453" xlink:href="#DejaVuSans-67"/>
      <use x="507.666016" xlink:href="#DejaVuSans-75"/>
      <use x="571.044922" xlink:href="#DejaVuSans-72"/>
      <use x="612.126953" xlink:href="#DejaVuSans-65"/>
      <use x="673.650391" xlink:href="#DejaVuSans-32"/>
     </g>
    </g>
   </g>
  </g>
 </g>
 <defs>
  <clipPath id="pee7cc61621">
   <rect height="217.44" width="334.8" x="30.103125" y="10.999219"/>
  </clipPath>
 </defs>
</svg>
